<svg xmlns="http://www.w3.org/2000/svg" width="556" height="114" fill="none"><path d="M523.741 67.294H435.859l-.647 1.522-7.748 18.23-1.478 3.478h87.685c5.405 0 9.084 5.557 6.946 10.584v.001l-4.418 10.391H390.242l18.05-42.465c5.936-13.96 19.587-23.01 34.687-23.01h74.226l.647-1.522 7.607-17.898 1.478-3.477h-99.131L436.581 2.5h99.287c12.617 0 21.164 12.958 16.195 24.647l-12.501 29.407c-2.721 6.407-8.921 10.594-15.821 10.74Z" stroke="#FFF" stroke-width="5"/><path fill-rule="evenodd" clip-rule="evenodd" d="M24.498 3.1c-6.088-.002-11.593 3.597-14.002 9.152L.616 35.314c-2.138 4.997 1.55 10.541 7.014 10.541h32.168a3.81 3.81 0 0 0 3.505-2.3l3.197-7.442H12.645l9.052-21.091-4.915-2.31h37.253a3.81 3.81 0 0 0 3.504-2.3l3.14-7.308-36.181-.005Zm82.988 33.541c-2.391 5.588-7.903 9.214-14.005 9.214h-34c-5.46 0-9.145-5.552-7-10.55l9.878-23.01C64.754 6.718 70.261 3.1 76.357 3.1h34.001c5.461 0 9.144 5.553 6.999 10.55l-9.871 22.992Zm-11.125-2.828 9.053-21.1H68.86l4.675 2.309-9.053 21.09h28.38a3.805 3.805 0 0 0 3.499-2.3v.002Zm40.929 75.676h-7.227l14.245-33.148-15.747.003 4.163-9.611h43.734l-2.893 6.807c-.69 1.627-2.657 2.804-4.581 2.804H156.54l-12.232 28.537a7.627 7.627 0 0 1-7.018 4.608ZM280.414 97.6h-3.847l-10.463-.015-5.196 11.902h-12.017l18.41-42.754h11.986l-8.675 20.183 28.469-19.513a3.827 3.827 0 0 1 2.165-.67h18.021l-31.898 22.035 14.395 20.721h-13.167l-8.183-11.887V97.6Zm-23.001-30.867h-12.324l-18.383 42.756h8.972c1.927 0 3.988-1.271 4.68-2.9l10.718-25.056 6.337-14.8Zm-36.04 42.754h-12.836l-5.295-9.742h-22.719l-2.209 5.142a7.62 7.62 0 0 1-7.01 4.6h-7.325l18.368-42.754H223.2c5.467 0 9.156 5.551 7.009 10.548l-7.917 18.433a6.682 6.682 0 0 1-6.145 4.033l5.228 9.742-.002-.002Zm4.016-21.179-6.8-11.964-33.677.03 4.66 2.241-4.965 11.623h25.525a3.811 3.811 0 0 0 3.507-2.307l4.948-11.586 6.802 11.963Zm102.057-3.817h27.624l-2.601 6.034a3.809 3.809 0 0 1-3.497 2.293h-25.121l-2.993 6.928h33.741l-3.173 7.436a3.804 3.804 0 0 1-3.501 2.307h-37.78c-2.729 0-4.57-2.776-3.499-5.275l14.103-32.881a7.614 7.614 0 0 1 7-4.6h41.03l-3.132 7.307a3.806 3.806 0 0 1-3.5 2.301H325.21l4.761 2.264-2.525 5.886ZM127.094 36.106l14.04-32.998h-7.326a7.619 7.619 0 0 0-7.004 4.596l-11.875 27.597c-2.15 4.997 1.537 10.554 7.004 10.554h31.178c6.115 0 11.636-3.633 14.025-9.228l14.315-33.519-7.246-.009a7.615 7.615 0 0 0-7.019 4.611l-11.159 26.084a3.809 3.809 0 0 1-3.511 2.318l-25.422-.006Zm125.673 9.75h-7.228l14.246-33.148-15.748.003 4.163-9.612h43.734l-2.892 6.808c-.691 1.627-2.658 2.804-4.582 2.804h-12.444l-12.231 28.537a7.63 7.63 0 0 1-7.018 4.607Zm138.144-.002h.001v.001l-.001-.001Zm-5.227-9.74 5.227 9.74h-12.836l-5.295-9.742h-22.719l-2.209 5.142a7.621 7.621 0 0 1-7.01 4.6h-7.325l18.367-42.755h40.853c5.467 0 9.157 5.552 7.01 10.548l-7.918 18.433a6.68 6.68 0 0 1-6.145 4.033Zm2.444-23.403 6.801 11.964-6.803-11.963-4.948 11.585a3.811 3.811 0 0 1-3.507 2.307h-25.526l4.965-11.622-4.66-2.242 33.678-.03Zm-57.482 8.146h-27.689l2.531-5.885-4.772-2.264h37.024a3.817 3.817 0 0 0 3.509-2.301l3.139-7.308h-41.127a7.631 7.631 0 0 0-7.016 4.6l-14.136 32.882c-1.074 2.498.771 5.274 3.507 5.274h37.868a3.813 3.813 0 0 0 3.51-2.307l3.18-7.435h-33.82l3-6.928h25.18a3.816 3.816 0 0 0 3.505-2.293l2.607-6.035ZM185.65 41.253a7.63 7.63 0 0 1-7.015 4.602h-7.328l18.378-42.748 9.182-.008c1.414 0 2.713.775 3.373 2.017l14.663 27.55 10.776-24.962a7.626 7.626 0 0 1 7.001-4.589l7.444-.009-17.409 40.45a3.815 3.815 0 0 1-3.507 2.3h-7.795a3.816 3.816 0 0 1-3.369-2.015l-14.125-26.475-10.272 23.887h.003Zm-85.323 58.493 2.936-6.835.001-.002-22.876.001h-2.8c-5.463 0-9.151-5.538-7.018-10.533l1.14-2.667 1.596-3.741c2.389-5.6 7.915-9.236 14.035-9.236h39.163l-3.126 7.306a3.81 3.81 0 0 1-3.507 2.305H79.405l4.793 2.31-1.884 4.403h25.651c5.468 0 9.158 5.552 7.011 10.548l-2.871 6.683c-2.396 5.58-7.915 9.201-14.02 9.201H58.918l3.222-7.451a3.812 3.812 0 0 1 3.502-2.292h34.684Z" fill="#FFF"/></svg>