<svg xmlns="http://www.w3.org/2000/svg" width="148" height="148" fill="none"><g clip-path="url(#a)" fill="#fff"><path d="M73.84 43.436c.98-.34 2.049-.056 2.947.387.627.404 1.254.812 1.956 1.076l.22.4c-.029.066-.082.203-.11.27.5 1.138.82 2.487.335 3.683-.331.404-.907.466-1.373.622-.002.578.09 1.15.14 1.723.996.161 1.84-.533 2.826-.464.133-.552.238-1.113.415-1.654.204.359.212.771.214 1.175.258.073.52.14.784.204l.004.395c4.322.026 8.64-.02 12.962.024-.011.148-.032.444-.04.593l.452.002c-.004-.786 0-1.574-.002-2.36.11-.005.324-.011.431-.013.003.618.005 1.237.011 1.856l.379.463c.07-.084.212-.249.283-.333.328.308.141.729.127 1.106 1.209-.013 2.43.069 3.636-.03l.361-.264.498.195c.543-.013 1.089-.015 1.634-.017l-.03.844c-.703-.01-1.407-.026-2.099.094-.446-.384-1.046-.262-1.585-.276-.829.038-1.684-.108-2.487.156-.477.133-1 .101-1.421-.17-.102.252.053.815-.37.793-1.667.022-3.331-.015-4.996.01-.227.121-.457.235-.684.346-.24.718-.93 1.196-1.517 1.635-.073 1.101.363 2.13.533 3.2-.329.094-.66.19-.984.298-.466 1.1-.18 2.6-1.259 3.368-.826.48-1.374 1.527-2.489 1.361.567.473-.154.325-.08-.053-2.016-.178-3.715-1.362-5.467-2.264-.082.494-.21.98-.344 1.463.666.127 1.216.616 1.334 1.3.213 1.488-.213 2.966-.206 4.458.047.876-.329 1.68-.797 2.394-.41.464-1.056-.013-1.548-.081a36.21 36.21 0 0 0-.329.653c.14.584.2 1.191.395 1.763 1.098 1.213 2.096 2.528 2.863 3.977a52.54 52.54 0 0 1 2.107 5.038c.06.334.374.453.649.574.036.344.073.687.107 1.035.108.157.217.313.329.472.066 2.118-.193 4.227-.522 6.316-.204.944.347 1.865.124 2.814.026.486-.309.853-.466 1.282-.03 1.003-.08 2.019.03 3.02.078.735.699 1.207 1.12 1.755.46.488.844 1.142 1.54 1.316.654.196 1.28.479 1.857.851.176.436.144.898.06 1.351-1.259.231-2.543.116-3.814.135-.98.052-1.854-.475-2.806-.584-.921-.024-2.044.434-2.752-.391.3-1.144.324-2.373.873-3.44.176-1.21-.158-2.436-.088-3.656-.105-.088-.316-.264-.42-.353.075-.796-.319-1.505-.45-2.267a85.782 85.782 0 0 0-.315-3.334c-.101-.539.178-1.033.558-1.391.034-.623.118-1.24.178-1.858-.092-.402-.412-.7-.618-1.044-.69.29-1.62.153-2.03-.522-.973-1.447-1.944-2.895-2.927-4.334-.387-.025-.795.015-1.156-.14-.416-.427-.633-.996-.899-1.515-.38.427-.353 1.082-.803 1.47-.954.916-1.207 2.26-1.705 3.433-.382.76-.167 1.677-.593 2.418-.228.4-.8.479-.95.934-.197.492-.429 1.001-.89 1.3-.501.328-.634.951-.857 1.466-.204.475.099.973.028 1.461-.318 1.549-1.304 2.844-1.718 4.36-.19.683-.46 1.452-1.255 1.598-.904 1.615-1.402 3.591-.89 5.409.313.571.295 1.214.199 1.843-1.437.112-2.91.305-4.321-.097-.33-.655-.284-1.426-.215-2.134.436-1.862 1.014-3.692 1.368-5.573-.442-.393-.34-.995-.33-1.52-.016-.982.652-1.769 1.116-2.574.174-.827.093-1.715.52-2.474.503-.95.928-1.976 1.703-2.743.148-.676.647-1.187.848-1.838.215-.576-.16-1.16-.085-1.748.184-1.785.509-3.553.79-5.325-.532-.444-.36-1.15-.53-1.75.083-.236.189-.461.315-.68-.133-.123-.264-.248-.397-.37.129-.63.092-1.757 1.059-1.553.06-2.085-.664-4.104-.421-6.191.129.15.255.302.384.455l-.069-.707c.404-.215.834-.38 1.285-.464-.735-.096-1.45-.283-2.17-.45-.174-.458-.077-.946-.013-1.414.28-1.58.383-3.183.44-4.785.815-.283 1.712-.043 2.507-.42-.247-2.005-.309-4.096.404-6.018.573-1.637 1.669-3.216 3.378-3.791.808-.193 1.823-.41 2.394.373.157-.143.314-.291.47-.435-1.303-2.59.254-6.371 3.212-6.904Zm10.43 11.228c-.343.21-.68.451-.319.834-.176.105-.352.206-.53.302-.28.215-.907.337-.834.771.314.504.584 1.034.808 1.583.685-.562 1.23-1.319 1.6-2.12l.311-.315a3.562 3.562 0 0 0-.26-1.066 87.14 87.14 0 0 1-.775.011Z"/><path d="M90.572 73.89c.984-1.241 2.573-1.929 4.15-1.903 4.795.005 9.593-.002 14.389.002 2.339.05 4.619 1.877 4.89 4.253-6.638-.022-13.275.02-19.911-.022-.006 4.442-.015 8.885 0 13.329 5.094-.009 10.188-.018 15.283.004-.02-1.591.006-3.183-.015-4.774-2.519.014-5.039.02-7.558 0-2.02-.078-3.524-1.823-3.98-3.683 5.417-.02 10.832-.022 16.248.002-.024 2.721.013 5.444-.02 8.165-.064 2.292-2.036 4.309-4.295 4.539L94.075 93.8c-1.561-.012-2.942-.997-3.823-2.228-.601-.87-.737-1.95-.822-2.975-.009-3.65.004-7.304-.005-10.955.02-1.323.254-2.721 1.147-3.752Zm31.685-1.753c.539-.146 1.101-.156 1.658-.15 4.433.013 8.868-.015 13.3.01 2.513.108 4.721 2.278 4.818 4.799.004 4.074.004 8.15 0 12.227-.046 2.497-2.258 4.825-4.794 4.783-4.875-.022-9.75.015-14.626-.018-2.431-.27-4.297-2.592-4.314-4.995-.035-3.716.004-7.436-.019-11.15-.02-1.096.178-2.221.758-3.166.68-1.188 1.9-2.02 3.219-2.34Zm.764 3.965c.009 4.583-.019 9.168.013 13.751 4.762.014 9.525-.002 14.287.007.014-4.588.002-9.175.006-13.765-4.768-.002-9.538-.01-14.306.007ZM.008 77.193c.1-2.485 2.182-4.82 4.714-4.916 4.73-.005 9.464-.005 14.196.002 2.555-.025 4.684 2.283 4.877 4.76-.341.028-.683.049-1.024.053-5.634-.006-11.267.002-16.898-.004-.003 4.003-.024 8.006.01 12.01 5.98-.01 11.957-.014 17.936.002-.17 2.566-2.33 4.843-4.935 4.944-4.287.06-8.574.002-12.86.028-1.068.036-2.168-.097-3.13-.585C1.236 92.64.064 90.91.006 89.034 0 85.086-.005 81.14.008 77.193Zm28.34-1.945c.788-1.721 2.592-2.999 4.513-2.975 4.724.004 9.451 0 14.179.002 2.467.015 4.64 2.175 4.815 4.613-6.233.088-12.47.013-18.704.037-.029 1.254-.015 2.508-.018 3.764 4.635.015 9.272.005 13.907.005 1.374.053 2.817.494 3.753 1.557 1.053.94 1.497 2.373 1.532 3.752.023 1.377.023 2.76-.2 4.123-.511 2.208-2.623 3.853-4.875 3.924-4.506.043-9.014.005-13.52.022-1.063.021-2.162-.131-3.105-.649-1.495-.78-2.569-2.348-2.717-4.031 6.344.03 12.69.02 19.035.004.015-1.336.006-2.672.006-4.007-4.694-.032-9.391-.005-14.088-.014-2.7.022-5.088-2.459-5.015-5.15.094-1.657-.288-3.438.502-4.977ZM143.5 72.72c.597-.015 1.201-.039 1.796.051-.277.071-.559.108-.842.112a27.274 27.274 0 0 0-.032 1.939c-.063 0-.185 0-.245.002.004-.663.01-1.327.002-1.989-.168.014-.501.044-.666.056l-.013-.171Zm2.131-.024.513.026c.183.581.398 1.153.664 1.705.249-.557.412-1.15.687-1.69l.481-.071c-.067.79.206 1.664-.221 2.384-.077-.7-.045-1.405-.09-2.107-.327.655-.481 1.391-.909 1.997-.326-.623-.466-1.332-.857-1.92-.025.628-.013 1.257-.021 1.886l-.23-.026c0-.728-.011-1.456-.017-2.184Z"/></g><defs><clipPath id="a"><path fill="#fff" d="M0 0h148v148H0z"/></clipPath></defs></svg>