<svg xmlns="http://www.w3.org/2000/svg" width="177" height="41" fill="none"><g clip-path="url(#a)"><path d="m7.472 24.299-2.75 7.466 4.634 3.962 7.18-2.692L7.472 24.3ZM24.02 8.502l7.639-2.108 2.902 2.032-1.298 7.187-9.242-7.111Z" stroke="#00F"/><path d="m16.981 40.468-.612-.528-1.056-.082c-.919-.071-1.132-.112-1.65-.32l-.595-.24-.51.212c-.432.18-.639.218-1.355.253l-.845.04-.11-.262c-.06-.144-.146-.261-.19-.261-.043 0-.482.128-.975.285l-.897.287-.353-.179c-.437-.22-.462-.22-1.217.01l-.615.186-.594-.124c-.634-.133-.836-.121-2.736.152l-.736.106-.38-.261c-.343-.237-.413-.258-.725-.222-.314.037-.352.025-.424-.133-.065-.14-.048-.245.086-.553.155-.355.174-.554.272-2.925.092-2.215.092-2.64.002-3.284-.116-.833-.116-.834.378-.743.175.032.332.045.347.03.016-.015.066-1.12.111-2.454.076-2.217.056-2.891-.088-2.894-.028 0-.171-.106-.318-.233l-.267-.233-.226-1.293c-.124-.711-.243-1.637-.265-2.058-.036-.704-.026-.787.12-1.024.089-.142.184-.258.213-.258.03 0 .148.1.265.222.116.122.305.29.42.372l.21.15-.048-1.275c-.04-1.07-.073-1.333-.2-1.629-.086-.2-.134-.422-.11-.512.028-.107-.052-.327-.245-.675l-.286-.517.097-.846c.079-.69.08-.951.007-1.409-.107-.665-.335-1.38-.581-1.819l-.178-.316.148-1.152.148-1.152-.153-.63-.153-.629.181-.677.181-.677-.138-.4C.046 7.06.04 6.943.266 6.44c.392-.876.447-1.942.177-3.473-.092-.524-.148-.675-.294-.794-.257-.21-.175-.549.194-.792.216-.143.264-.214.238-.352C.55.875.57.86.789.87c.133.006.787-.051 1.454-.128L3.454.604l1.417.202 1.417.203L8.11.927 9.935.845l.408.244.41.244 1.428.047c1.876.061 2.65-.066 3.749-.619a7.84 7.84 0 0 1 1.506-.563l.78-.198.89.277.89.277.755-.252.755-.252.852.264c.58.18 1.167.434 1.839.796l.987.533 1.167-.02 1.168-.02.055-.18c.03-.098.124-.413.207-.7l.152-.52h.85c.629 0 1.162.055 2.032.211.649.117 1.516.265 1.926.33l.746.117.41-.183c.26-.117.654-.211 1.079-.26.6-.067.71-.06 1.076.067.224.078.732.192 1.128.254.634.1.835.101 1.692.014l.972-.099.54.387c.297.213.59.426.652.475.065.051.145.306.192.617l.081.53-.398.718c-.314.566-.378.731-.3.78a.435.435 0 0 0 .186.063c.049 0 .179.136.288.3l.2.3.022 2.125c.023 2.067-.086 6.45-.162 6.526-.02.02-.295.007-.61-.03l-.573-.066-.086.455c-.047.25-.065.579-.04.732.037.238.002.35-.244.776-.158.274-.288.523-.288.553 0 .091.433.626.882 1.088l.426.44-.158.528-.157.528.199 1.295c.229 1.492.218 1.644-.226 3.14-.2.67-.238.882-.168.925.05.031.308.078.574.105l.482.048.047 1.771c.25 9.452.27 10.694.184 12.403-.048.948-.096 1.735-.107 1.748-.012.012-.587-.225-1.28-.527l-1.258-.55-.566.242-.566.243-.064.394-.063.395-1.089.233-1.089.233-.756-.277c-.744-.273-.765-.276-1.313-.206-.47.06-.624.05-.98-.057l-.424-.128-.6.271-.602.27-1.19.032c-.656.017-1.483.001-1.84-.035-.77-.08-2.52.09-3.854.373-.755.16-.907.17-1.68.112a39.534 39.534 0 0 1-1.763-.182l-.912-.119-.82.186c-.45.103-.855.185-.9.183-.044-.002-.355-.241-.692-.532Zm-3.708-5.814c2.138-.802 3.872-1.487 3.852-1.523-.05-.091-9.71-9.4-9.776-9.42-.03-.009-.73 1.825-1.555 4.075l-1.502 4.091.206.175 2.474 2.119c1.247 1.069 2.3 1.943 2.34 1.943.04-.001 1.822-.658 3.96-1.46Zm23.294-3.797a401.48 401.48 0 0 0 1.853-4.514c.022-.084-4.019-2.84-15.258-10.41C14.754 10.271 7.84 5.639 7.8 5.639c-.09 0-4.437 1.958-4.526 2.039-.035.03.01.1.098.152.089.052 6.072 6.245 13.297 13.762l13.136 13.666h4.94l1.823-4.4Zm-2.339-18.515c.38-2.114.705-3.893.723-3.954.023-.078-.439-.44-1.58-1.239-.886-.62-1.64-1.128-1.677-1.128-.078 0-8.396 2.294-8.426 2.324-.011.011 2.288 1.798 5.11 3.97 2.82 2.173 5.136 3.932 5.145 3.91.008-.022.326-1.77.705-3.883Z" fill="#9B3425"/><path d="M55.298 9.086h1.705l.23.127.305.229.204.152.178.254.102.229v19.606l-.051.406-.102.432-.178.457-.331.381-.357.229-.364.097-.781.182h5.754l1.629.127 2.699.254 1.883.025 4.023-.66 2.699-1.219 1.731-1.27 1.222-1.117.942-1.296.738-1.218.586-1.346.433-2.286.305-1.727-.382-2.515-.713-2.488-.967-1.651-1.426-1.676-2.367-1.448-2.546-.914-3.157-.584-7.154-.026.127 1.27 3.412-.127 1.934.152 2.954.864 2.342 1.498 2.113 2.286 1.324 2.971.33 2.997-.126 2.769-.459 1.777-.865 2.134-1.553 1.752-2.292 1.346-3.538.533H64.59l-.916-.304-1.299-.965-.432-.66.025-18.794-.153-1.499-6.466.178-.051.076ZM101.896 9.64l-1.98.18-1.62.539-2.557 1.975-1.584 4.562-.144 4.13.612 2.658 1.512 3.16 2.7 2.91 3.061 1.257 3.276.072 2.665-1.185 1.404-1.76 1.296-2.874.432-5.172-1.044-4.992-2.052-3.089-3.313-2.083s-1.548-.144-2.16-.215c-.612-.072-.324-1.401-.324-1.401l2.736.036 2.737.503 2.376 1.041 1.944 1.473 2.053 2.586.756 2.514.504 3.735-.432 3.628-1.116 2.406-3.097 3.915-2.664 1.437-3.673.97h-3.348l-3.169-.575-3.06-1.76-2.34-2.155-1.08-1.688-1.26-3.448-.072-3.269.36-2.334 1.152-3.053 2.376-3.125 3.564-2.011 3.637-.754 1.188-.036.072 1.365-.324-.072ZM124.075 8.451l-.56 1.88-.255 1.219-.152.863.305.66.509-1.016.713-1.066 1.12-.508 6.365-.152-.051 19.606-.153.406-.458.813-.458.203-1.528.152v.508l4.736-.203 5.041.203.101-.457-2.444-.203-.814-.711-.255-.863.102-19.607 4.888.051 1.833.508.713.711.204 1.371.254.508.458-.71-.254-4.166-1.579.356-8.197.101-8.911-.152-.968-.457-.305.152ZM153.059 30.975l-.829.395-1.872.108-.036.682 4.321-.251 3.456.215.108-.718-1.728-.072-.324-.467-.036-.467 1.224-3.627 4.753-.108 4.752.144 1.764 4.418-.864.43.216.431 4.105-.071 3.708.071-.036-.61-1.98-.108-1.404-1.257-1.476-2.765.324-.503 2.7-.647 2.664-.323-.036-.575h-6.624l-7.021-17.347-7.381 17.347 2.556-.143 4.033-10.775s4.104 10.2 4.032 10.56c-.072.358-.252.25-.252.25l-7.813.036-2.592.144-2.412 5.603Z" fill="#fff"/><path d="m155.533 25.235-.073.175 2.577-.15-.012-.018.063-.15-1.196-.11-1.359.253ZM16.965 40.441l-.598-.507-.807-.067c-1.007-.082-1.477-.175-2.045-.4l-.447-.178-.476.19c-.408.162-1.405.312-2.161.324-.041 0-.111-.096-.156-.214-.045-.119-.132-.235-.193-.258-.062-.024-.519.079-1.016.228l-.904.272-.325-.157c-.41-.2-.586-.197-1.272.014-.522.16-.584.165-1.008.074-.623-.133-1.148-.123-2.323.043-1.284.182-1.31.18-1.687-.074-.253-.172-.394-.214-.7-.214-.35 0-.389-.016-.43-.18-.026-.103.006-.306.075-.478.19-.476.267-1.638.29-4.407l.022-2.586.36.024.36.024.054-1.496c.03-.823.058-2.008.063-2.634l.007-1.137-.193-.14c-.527-.383-.501-.327-.72-1.579-.114-.648-.226-1.6-.25-2.115-.044-.915-.042-.94.127-1.132l.172-.196.43.368c.235.202.44.333.454.291.065-.193-.127-2.513-.231-2.803a1.97 1.97 0 0 1-.113-.529c0-.117-.118-.437-.262-.71l-.261-.497.087-.883c.115-1.17-.03-2.029-.52-3.065l-.22-.467.14-1.158.14-1.158-.152-.602-.152-.602.177-.672.177-.672-.202-.656-.201-.655.246-.684c.242-.67.247-.705.243-1.797C.559 3.306.427 2.507.175 2.188c-.22-.279-.184-.47.14-.77.16-.146.289-.33.289-.407 0-.12.052-.141.378-.146.208-.003.848-.06 1.422-.126L3.448.62l1.368.199c1.367.198 1.37.199 3.242.119l1.874-.08.445.265.445.264 1.822-.027 1.822-.026.612-.221c.336-.122.87-.338 1.188-.48.317-.142.885-.34 1.262-.44l.686-.182.885.28.886.28.765-.256.764-.256.823.27c.452.149 1.296.513 1.875.81l1.053.541 1.106-.034c.835-.025 1.12-.057 1.167-.132.034-.055.136-.371.227-.702l.166-.603 1.044.035c.78.026 1.48.111 2.759.335l1.714.3.446-.178A5.298 5.298 0 0 1 34.92.443c.543-.073.635-.065 1.369.12.689.175.92.2 1.867.199C38.75.76 39.37.737 39.533.709c.28-.05.326-.03.898.381.33.239.625.472.654.518.029.047.089.3.133.561l.08.476-.364.681c-.201.375-.365.714-.365.754 0 .04.08.108.177.152.097.045.264.213.371.373l.194.293-.047 3.93c-.026 2.162-.068 4.089-.094 4.282l-.046.351-.594-.042-.594-.041-.049.324a5.985 5.985 0 0 0-.048.729c0 .33-.052.505-.279.942l-.279.537.154.22c.085.121.38.455.656.74l.5.52-.151.558-.152.558.18 1.185c.217 1.42.2 1.78-.15 3.013-.14.492-.253.95-.253 1.018 0 .128.097.16.738.248.286.04.342.072.343.2 0 .085.047 1.9.104 4.033.186 7.01.204 8.54.114 10.127-.046.83-.097 1.52-.111 1.534-.016.015-.589-.213-1.274-.506l-1.246-.534-.539.234c-.553.24-.608.302-.684.762-.05.305-.013.29-1.38.569l-.803.164-.781-.262c-.725-.242-.826-.259-1.394-.222-.428.027-.72.007-.97-.066-.36-.105-.36-.105-.963.172l-.604.277-2.242-.002c-2.361-.003-2.847.034-4.474.334-1.123.206-1.518.202-3.486-.037l-1.037-.127-.727.165c-.4.091-.808.165-.907.164-.118 0-.386-.175-.777-.508Zm-4.369-6.346c1.732-.65 3.16-1.194 3.173-1.206.022-.023-6.756-6.581-7.655-7.407-.252-.232-.474-.407-.492-.39-.018.019-.569 1.486-1.224 3.26-.722 1.955-1.17 3.263-1.135 3.32.044.07 4.124 3.595 4.172 3.604.006.002 1.428-.53 3.161-1.18Zm23.295-3.593c.901-2.173 1.617-3.972 1.592-3.998-.035-.035-16.947-11.429-28.79-19.396l-.95-.638-1.554.698c-.856.384-1.544.732-1.53.774.014.041 5.742 6.03 12.729 13.307l12.704 13.232 2.08-.014 2.082-.015 1.637-3.95Zm-2.346-18.673c.299-1.653.543-3.061.543-3.129 0-.076-.437-.429-1.166-.94a96.852 96.852 0 0 0-1.258-.876c-.092-.056-6.725 1.733-6.717 1.812.006.052 8.007 6.188 8.034 6.16.012-.01.265-1.373.564-3.027Z" fill="#fff"/></g><defs><clipPath id="a"><path fill="#fff" d="M0 0h177v41H0z"/></clipPath></defs></svg>