<svg xmlns="http://www.w3.org/2000/svg" width="164" height="63" fill="none"><g clip-path="url(#a)" fill="#fff"><path d="M154.925 45.26c-2.788-.713-5.193-1.318-5.193-3.624 0-1.813 1.367-2.966 3.553-2.966 2.023-.11 3.882 1.263 4.264 3.295l5.467-2.636c-1.476-3.625-5.029-5.822-9.567-5.822-5.904 0-10.004 3.625-10.004 8.788 0 6.316 4.538 7.524 8.583 8.567 2.843.714 5.248 1.373 5.248 3.735 0 1.977-1.585 3.24-3.991 3.24-2.405 0-4.428-1.318-4.974-3.295l-5.467 2.636c1.531 3.625 5.412 5.822 10.223 5.822 6.396 0 10.496-3.57 10.496-9.172 0-6.37-4.811-7.579-8.638-8.568ZM164 7.969v2.91h-4.647v2.747h4.046l-.766 2.8h-3.28v4.34h-3.17V7.968H164ZM148.201 10.934a3.555 3.555 0 0 1 3.554 3.57 3.555 3.555 0 0 1-3.554 3.57 3.554 3.554 0 0 1-3.553-3.57 3.554 3.554 0 0 1 3.553-3.57Zm0 10.216c3.663 0 6.615-3.02 6.615-6.7s-3.007-6.646-6.669-6.646c-3.663 0-6.615 3.02-6.615 6.646 0 3.734 3.007 6.755 6.669 6.7ZM89.927 62.176h5.904V43.448l13.393 18.728h6.177V33.672h-5.958v19.003l-13.23-19.003H88.56l1.367 2.801v25.703ZM135.409 51.302c-.82 2.032-2.46 3.625-4.428 4.503a8.33 8.33 0 0 1-3.28.66h-3.389V39.438h3.389a8.33 8.33 0 0 1 3.28.659c2.023.824 3.608 2.471 4.428 4.503.875 2.197.875 4.559 0 6.7Zm-1.968-16.477c-1.804-.714-3.717-1.098-5.63-1.208h-9.676v28.504h9.676c3.826 0 7.489-1.428 10.277-4.064 1.312-1.263 2.405-2.8 3.116-4.503a14.03 14.03 0 0 0-3.116-15.708c-1.367-1.263-2.897-2.307-4.647-3.02ZM37.83 62.176H20.936V33.672H37.83v5.547H27.115v5.767H36.9l-1.476 5.382h-8.31v6.261l10.715.055v5.492ZM76.424 39.22h10.715v-5.548H70.3v28.504H87.14v-5.492l-10.715-.055v-6.26h8.31l1.475-5.383h-9.785v-5.767ZM97.853 22.523c-.546-1.593-.82-3.24-.765-4.888L97.198.06h6.122l-.055 17.3c0 1.922.438 3.46 1.312 4.559 2.078 2.197 5.576 2.252 7.708.11l.11-.11c.929-1.099 1.366-2.637 1.366-4.559l.055-17.355h6.232l-.109 17.74c0 1.647-.219 3.295-.766 4.888-.492 1.373-1.312 2.636-2.296 3.734-1.038 1.044-2.241 1.868-3.608 2.362a14.126 14.126 0 0 1-9.621-.055c-1.367-.55-2.569-1.318-3.553-2.417a10.316 10.316 0 0 1-2.242-3.734ZM67.13 20.326a14.8 14.8 0 0 1-1.147-5.712c0-1.977.437-3.9 1.202-5.712a14.555 14.555 0 0 1 3.226-4.668c1.366-1.373 3.006-2.416 4.756-3.13A13.797 13.797 0 0 1 80.96.005c2.679-.055 5.358.66 7.708 1.977a12.953 12.953 0 0 1 5.139 5.438l-5.576 2.636A7.873 7.873 0 0 0 85.28 6.87c-1.312-.769-2.843-1.098-4.373-1.098-1.148 0-2.351.22-3.39.659a7.98 7.98 0 0 0-2.733 1.922c-.82.824-1.421 1.813-1.859 2.856-.929 2.252-.929 4.723-.054 6.975.82 2.142 2.514 3.9 4.592 4.833 1.093.495 2.241.77 3.444.714 1.749.055 3.498-.494 4.92-1.483 1.312-.933 2.241-2.361 2.624-3.954H78.337l2.515-5.163h14.104c.055 1.099 0 3.46-.055 3.955a16.327 16.327 0 0 1-.984 3.9c-1.366 3.404-4.045 6.04-7.434 7.413-5.576 2.252-11.918.934-16.182-3.35-1.366-1.373-2.405-2.965-3.17-4.723ZM1.421 25.708V3.026L0 .06h7.544v23.012H18.86l-1.585 5.602H0l1.421-2.966ZM1.421 59.21V36.528L0 33.562h7.544v23.012H18.86l-1.585 5.602H0l1.421-2.966ZM37.83 28.674H20.936V.17H37.83v5.547H27.115v5.767H36.9l-1.476 5.382h-8.31v6.206l10.715.055v5.547ZM139.619 28.674h-16.838V.17h16.892v5.547h-10.714v5.767h9.785l-1.476 5.382h-8.309v6.206l10.714.055v5.547h-.054ZM54.01 8.079l3.554 9.61h-7.27l3.717-9.61Zm-7.926 20.595 2.132-5.547h11.37l2.187 5.547h6.396L56.744.06h-8.747l1.859 3.735-10.059 24.879h6.287ZM50.621 62.615c1.039.22 2.078.33 3.171.33 1.913.055 3.827-.33 5.63-1.043 3.39-1.373 6.069-4.01 7.435-7.415.492-1.263.82-2.581.984-3.9.11-1.317.11-2.635.055-4.008H53.792v.054l-2.515 5.163h10.059c-.383 1.593-1.312 3.02-2.624 3.954-1.421 1.044-3.116 1.538-4.865 1.483a7.775 7.775 0 0 1-1.586-.164l-1.257-.33c-.219-.055-.383-.165-.601-.22-2.078-.933-3.772-2.636-4.592-4.833a9.47 9.47 0 0 1 .054-7.03 9.88 9.88 0 0 1 1.859-2.856c.765-.823 1.75-1.427 2.788-1.867a9.078 9.078 0 0 1 3.39-.659 8.112 8.112 0 0 1 4.373 1.099 7.873 7.873 0 0 1 2.952 3.185l5.576-2.636c-1.148-2.307-2.898-4.174-5.139-5.438-2.35-1.318-4.975-1.977-7.708-1.977-3.936-.055-7.708 1.483-10.55 4.284a14.555 14.555 0 0 0-3.226 4.669c-1.585 3.624-1.585 7.798-.055 11.423a16.102 16.102 0 0 0 3.116 4.723c1.203 1.209 2.624 2.197 4.155 2.966 1.075.487 2.15.881 3.225 1.043Z"/></g><defs><clipPath id="a"><path fill="#fff" d="M0 0h164v63H0z"/></clipPath></defs></svg>