<svg xmlns="http://www.w3.org/2000/svg" height="793.701" width="1122.52" xml:space="preserve"><defs><linearGradient id="a" spreadMethod="pad" gradientTransform="scale(234.40479 -234.40479) rotate(-38.934 -1.045 -1.017)" gradientUnits="userSpaceOnUse" y2="0" x2="1" y1="0" x1="0"><stop offset="0" style="stop-opacity:1;stop-color:#fff"/><stop offset=".987" style="stop-opacity:1;stop-color:#fff"/><stop offset="1" style="stop-opacity:1;stop-color:#fff"/></linearGradient><linearGradient id="b" spreadMethod="pad" gradientTransform="scale(234.40479 -234.40479) rotate(-38.934 -1.09 -1.001)" gradientUnits="userSpaceOnUse" y2="0" x2="1" y1="0" x1="0"><stop offset="0" style="stop-opacity:1;stop-color:#fff"/><stop offset=".987" style="stop-opacity:1;stop-color:#fff"/><stop offset="1" style="stop-opacity:1;stop-color:#fff"/></linearGradient><linearGradient id="c" spreadMethod="pad" gradientTransform="scale(234.40479 -234.40479) rotate(-38.934 -.823 -1.096)" gradientUnits="userSpaceOnUse" y2="0" x2="1" y1="0" x1="0"><stop offset="0" style="stop-opacity:1;stop-color:#fff"/><stop offset=".987" style="stop-opacity:1;stop-color:#fff"/><stop offset="1" style="stop-opacity:1;stop-color:#fff"/></linearGradient><linearGradient id="d" spreadMethod="pad" gradientTransform="scale(234.40479 -234.40479) rotate(-38.934 -.272 -1.29)" gradientUnits="userSpaceOnUse" y2="0" x2="1" y1="0" x1="0"><stop offset="0" style="stop-opacity:1;stop-color:#fff"/><stop offset=".987" style="stop-opacity:1;stop-color:#fff"/><stop offset="1" style="stop-opacity:1;stop-color:#fff"/></linearGradient><linearGradient id="e" spreadMethod="pad" gradientTransform="scale(234.40479 -234.40479) rotate(-38.934 .302 -1.493)" gradientUnits="userSpaceOnUse" y2="0" x2="1" y1="0" x1="0"><stop offset="0" style="stop-opacity:1;stop-color:#fff"/><stop offset=".987" style="stop-opacity:1;stop-color:#fff"/><stop offset="1" style="stop-opacity:1;stop-color:#fff"/></linearGradient><linearGradient id="f" spreadMethod="pad" gradientTransform="scale(234.40479 -234.40479) rotate(-38.934 -.505 -1.208)" gradientUnits="userSpaceOnUse" y2="0" x2="1" y1="0" x1="0"><stop offset="0" style="stop-opacity:1;stop-color:#fff"/><stop offset=".987" style="stop-opacity:1;stop-color:#fff"/><stop offset="1" style="stop-opacity:1;stop-color:#fff"/></linearGradient><linearGradient id="g" spreadMethod="pad" gradientTransform="scale(234.40479 -234.40479) rotate(-38.934 .263 -1.48)" gradientUnits="userSpaceOnUse" y2="0" x2="1" y1="0" x1="0"><stop offset="0" style="stop-opacity:1;stop-color:#fff"/><stop offset=".987" style="stop-opacity:1;stop-color:#fff"/><stop offset="1" style="stop-opacity:1;stop-color:#fff"/></linearGradient><linearGradient id="h" spreadMethod="pad" gradientTransform="scale(234.40479 -234.40479) rotate(-38.934 -.225 -1.307)" gradientUnits="userSpaceOnUse" y2="0" x2="1" y1="0" x1="0"><stop offset="0" style="stop-opacity:1;stop-color:#fff"/><stop offset=".987" style="stop-opacity:1;stop-color:#fff"/><stop offset="1" style="stop-opacity:1;stop-color:#fff"/></linearGradient><linearGradient id="i" spreadMethod="pad" gradientTransform="scale(234.40479 -234.40479) rotate(-38.934 .708 -1.637)" gradientUnits="userSpaceOnUse" y2="0" x2="1" y1="0" x1="0"><stop offset="0" style="stop-opacity:1;stop-color:#fff"/><stop offset=".987" style="stop-opacity:1;stop-color:#fff"/><stop offset="1" style="stop-opacity:1;stop-color:#fff"/></linearGradient><linearGradient id="j" spreadMethod="pad" gradientTransform="scale(234.40479 -234.40479) rotate(-38.934 .502 -1.564)" gradientUnits="userSpaceOnUse" y2="0" x2="1" y1="0" x1="0"><stop offset="0" style="stop-opacity:1;stop-color:#fff"/><stop offset=".987" style="stop-opacity:1;stop-color:#fff"/><stop offset="1" style="stop-opacity:1;stop-color:#fff"/></linearGradient><linearGradient id="k" spreadMethod="pad" gradientTransform="scale(234.40479 -234.40479) rotate(-38.934 .062 -1.408)" gradientUnits="userSpaceOnUse" y2="0" x2="1" y1="0" x1="0"><stop offset="0" style="stop-opacity:1;stop-color:#fff"/><stop offset=".987" style="stop-opacity:1;stop-color:#fff"/><stop offset="1" style="stop-opacity:1;stop-color:#fff"/></linearGradient><linearGradient id="l" spreadMethod="pad" gradientTransform="scale(234.40479 -234.40479) rotate(-38.934 .988 -1.736)" gradientUnits="userSpaceOnUse" y2="0" x2="1" y1="0" x1="0"><stop offset="0" style="stop-opacity:1;stop-color:#fff"/><stop offset=".987" style="stop-opacity:1;stop-color:#fff"/><stop offset="1" style="stop-opacity:1;stop-color:#fff"/></linearGradient><linearGradient id="m" spreadMethod="pad" gradientTransform="scale(234.40479 -234.40479) rotate(-38.934 .075 -1.413)" gradientUnits="userSpaceOnUse" y2="0" x2="1" y1="0" x1="0"><stop offset="0" style="stop-opacity:1;stop-color:#fff"/><stop offset=".987" style="stop-opacity:1;stop-color:#fff"/><stop offset="1" style="stop-opacity:1;stop-color:#fff"/></linearGradient><linearGradient id="n" spreadMethod="pad" gradientTransform="scale(234.40479 -234.40479) rotate(-38.934 -.445 -1.23)" gradientUnits="userSpaceOnUse" y2="0" x2="1" y1="0" x1="0"><stop offset="0" style="stop-opacity:1;stop-color:#fff"/><stop offset=".987" style="stop-opacity:1;stop-color:#fff"/><stop offset="1" style="stop-opacity:1;stop-color:#fff"/></linearGradient><linearGradient id="o" spreadMethod="pad" gradientTransform="scale(234.40479 -234.40479) rotate(-38.934 -.08 -1.358)" gradientUnits="userSpaceOnUse" y2="0" x2="1" y1="0" x1="0"><stop offset="0" style="stop-opacity:1;stop-color:#fff"/><stop offset=".987" style="stop-opacity:1;stop-color:#fff"/><stop offset="1" style="stop-opacity:1;stop-color:#fff"/></linearGradient><linearGradient id="p" spreadMethod="pad" gradientTransform="scale(234.40479 -234.40479) rotate(-38.934 -.985 -1.038)" gradientUnits="userSpaceOnUse" y2="0" x2="1" y1="0" x1="0"><stop offset="0" style="stop-opacity:1;stop-color:#fff"/><stop offset=".987" style="stop-opacity:1;stop-color:#fff"/><stop offset="1" style="stop-opacity:1;stop-color:#fff"/></linearGradient><linearGradient id="q" spreadMethod="pad" gradientTransform="scale(234.40479 -234.40479) rotate(-38.934 -1.143 -.982)" gradientUnits="userSpaceOnUse" y2="0" x2="1" y1="0" x1="0"><stop offset="0" style="stop-opacity:1;stop-color:#fff"/><stop offset=".987" style="stop-opacity:1;stop-color:#fff"/><stop offset="1" style="stop-opacity:1;stop-color:#fff"/></linearGradient><linearGradient id="r" spreadMethod="pad" gradientTransform="scale(234.40479 -234.40479) rotate(-38.934 -.23 -1.305)" gradientUnits="userSpaceOnUse" y2="0" x2="1" y1="0" x1="0"><stop offset="0" style="stop-opacity:1;stop-color:#fff"/><stop offset=".987" style="stop-opacity:1;stop-color:#fff"/><stop offset="1" style="stop-opacity:1;stop-color:#fff"/></linearGradient><linearGradient id="s" spreadMethod="pad" gradientTransform="scale(234.40479 -234.40479) rotate(-38.934 .09 -1.418)" gradientUnits="userSpaceOnUse" y2="0" x2="1" y1="0" x1="0"><stop offset="0" style="stop-opacity:1;stop-color:#fff"/><stop offset=".987" style="stop-opacity:1;stop-color:#fff"/><stop offset="1" style="stop-opacity:1;stop-color:#fff"/></linearGradient><linearGradient id="t" spreadMethod="pad" gradientTransform="scale(234.40479 -234.40479) rotate(-38.934 .245 -1.473)" gradientUnits="userSpaceOnUse" y2="0" x2="1" y1="0" x1="0"><stop offset="0" style="stop-opacity:1;stop-color:#fff"/><stop offset=".987" style="stop-opacity:1;stop-color:#fff"/><stop offset="1" style="stop-opacity:1;stop-color:#fff"/></linearGradient><linearGradient id="u" spreadMethod="pad" gradientTransform="scale(234.40479 -234.40479) rotate(-38.934 -.05 -1.369)" gradientUnits="userSpaceOnUse" y2="0" x2="1" y1="0" x1="0"><stop offset="0" style="stop-opacity:1;stop-color:#fff"/><stop offset=".987" style="stop-opacity:1;stop-color:#fff"/><stop offset="1" style="stop-opacity:1;stop-color:#fff"/></linearGradient><linearGradient id="v" spreadMethod="pad" gradientTransform="scale(234.40479 -234.40479) rotate(-38.934 -.505 -1.208)" gradientUnits="userSpaceOnUse" y2="0" x2="1" y1="0" x1="0"><stop offset="0" style="stop-opacity:1;stop-color:#fff"/><stop offset=".987" style="stop-opacity:1;stop-color:#fff"/><stop offset="1" style="stop-opacity:1;stop-color:#fff"/></linearGradient><linearGradient id="w" spreadMethod="pad" gradientTransform="scale(234.40479 -234.40479) rotate(-38.934 .543 -1.578)" gradientUnits="userSpaceOnUse" y2="0" x2="1" y1="0" x1="0"><stop offset="0" style="stop-opacity:1;stop-color:#fff"/><stop offset=".987" style="stop-opacity:1;stop-color:#fff"/><stop offset="1" style="stop-opacity:1;stop-color:#fff"/></linearGradient><linearGradient id="x" spreadMethod="pad" gradientTransform="scale(234.40479 -234.40479) rotate(-38.934 .863 -1.691)" gradientUnits="userSpaceOnUse" y2="0" x2="1" y1="0" x1="0"><stop offset="0" style="stop-opacity:1;stop-color:#fff"/><stop offset=".987" style="stop-opacity:1;stop-color:#fff"/><stop offset="1" style="stop-opacity:1;stop-color:#fff"/></linearGradient><linearGradient id="y" spreadMethod="pad" gradientTransform="scale(234.40479 -234.40479) rotate(-38.934 1.018 -1.746)" gradientUnits="userSpaceOnUse" y2="0" x2="1" y1="0" x1="0"><stop offset="0" style="stop-opacity:1;stop-color:#fff"/><stop offset=".987" style="stop-opacity:1;stop-color:#fff"/><stop offset="1" style="stop-opacity:1;stop-color:#fff"/></linearGradient><linearGradient id="z" spreadMethod="pad" gradientTransform="scale(234.40479 -234.40479) rotate(-38.934 .723 -1.642)" gradientUnits="userSpaceOnUse" y2="0" x2="1" y1="0" x1="0"><stop offset="0" style="stop-opacity:1;stop-color:#fff"/><stop offset=".987" style="stop-opacity:1;stop-color:#fff"/><stop offset="1" style="stop-opacity:1;stop-color:#fff"/></linearGradient></defs><path style="fill:url(#a);stroke:none" d="M102.936 368.132c0-1.29-.02-2.581.002-3.87.477-27.25.873-54.5 1.514-81.746.125-5.325 1.267-10.538 4.035-15.364 2.89-5.041 7.051-8.894 11.072-12.855 11.149-10.987 22.395-21.88 33.788-32.613 5.966-5.622 12.277-10.882 18.518-16.205 3.414-2.912 7.595-4.64 11.856-5.536 4.062-.853 8.354-.76 12.548-.815 16.736-.219 33.471-.367 50.208-.476 10.158-.065 20.317-.012 30.979-.012-1.207 1.175-2.293 2.193-3.337 3.255-5.901 5.997-11.809 11.987-17.682 18.012-6.568 6.737-13.091 13.519-19.659 20.255-1.219 1.251-1.753 2.593-1.766 4.406-.158 20.976-.406 41.952-.639 62.929-.008.691-.11 1.381-.213 2.602-.917-.813-1.452-1.266-1.964-1.744-10.72-10.037-21.444-20.073-32.15-30.127-.866-.812-1.655-1.012-2.579-.155-.606.562-1.264 1.069-1.853 1.646-9.138 8.961-18.262 17.935-27.405 26.89-1.908 1.869-3.879 3.674-5.821 5.508l-.746-.335c.005-25.274 1.069-50.544 1.102-75.865-.791.276-1.268.579-1.666.964-2.787 2.7-5.579 5.395-8.329 8.133-5.854 5.829-11.704 11.661-17.488 17.556-.62.634-1.091 1.692-1.123 2.572-.173 4.698-.187 9.399-.252 14.1-.269 19.65-.558 39.3-.767 58.952-.017 1.633-.493 2.79-1.658 3.891-8.335 7.885-16.627 15.817-24.938 23.729-.972.925-1.979 1.814-2.97 2.718a214.79 214.79 0 0 1-.617-.4" transform="matrix(1.33333 0 0 -1.33333 0 793.701)"/><path style="fill:url(#b);stroke:none" d="M207.26 390.282c-26.968-.167-53.936-.097-80.905-.133-.605-.001-1.21-.143-2.326-.283 24.147-25.125 48.99-48.831 73.602-72.63l37.063 36.584c.601-.268.88-.312 1.041-.474 8.565-8.593 17.134-17.183 25.647-25.827.576-.585.952-1.571 1.028-2.406.217-2.379.292-4.776.315-7.167.203-21.059.394-42.119.548-63.178.012-1.627.31-2.917 1.948-3.633.516-.224.971-.636 1.384-1.036 6.799-6.57 13.573-13.165 20.385-19.721 1.67-1.605 3.454-3.091 5.46-4.877 0 1.154.007 2.189-.001 3.224-.126 16.024-.219 32.048-.394 48.071-.13 11.884-.283 23.77-.592 35.651-.162 6.223-2.986 11.414-7.271 15.781-3.87 3.945-7.934 7.699-11.869 11.581-13.632 13.447-27.241 26.919-40.868 40.373-6.644 6.559-14.45 10.101-23.957 10.101l-.238-.001" transform="matrix(1.33333 0 0 -1.33333 0 793.701)"/><path style="fill:url(#c);stroke:none" d="M305.194 396.855c-.11-25.645.068-51.287.378-77.431 4.789 2.247 8.746 4.285 12.855 5.951 1.939.786 2.312 1.849 2.283 3.735-.122 7.845-.098 15.693-.096 23.539 0 1.338.15 2.675.23 4.014l.719.285 20.36-23.463c7.291 7.837 13.368 16.299 20.665 23.736.324-.645.399-1.114.401-1.582.04-9.165.047-18.33.151-27.494.009-.777.448-1.969 1.035-2.253 4.351-2.107 8.79-4.032 13.421-6.115v77.146l-.736.175c-11.951-13.524-22.896-27.921-35.098-41.51l-35.759 41.576z" transform="matrix(1.33333 0 0 -1.33333 0 793.701)"/><path style="fill:url(#d);stroke:none" d="M468.095 391.156c-2.266-.002-4.533-.216-7.131-.35.517-1.275.764-2.228 1.257-3.029 1.676-2.719 2.074-5.665 1.943-8.787a256.808 256.808 0 0 1-.201-10.891c.01-12.379-.061-24.76.178-37.135.069-3.649-.889-6.78-2.601-9.839-.268-.477-.49-.979-.932-1.868 1.087-.211 1.895-.498 2.704-.504 10.005-.071 20.012-.034 30.017-.171 4.75-.066 9.191.958 13.297 3.242 5.719 3.18 9.856 7.742 11.342 14.275 1.195 5.253.474 10.343-2.017 15.113-1.398 2.676-3.027 5.23-4.609 7.938 2.226 3.325 3.959 8.513 3.972 11.679.044 11.915-10.152 19.599-20.433 20.161-3.898.213-7.805.274-11.715.274-5.023 0-10.049-.101-15.071-.108m11.48-26.665v13.627c5.232 0 10.259.211 15.257-.077 3.188-.184 5.238-2.977 5.266-6.18.032-3.668-2.276-7.044-5.702-7.284-1.937-.136-3.881-.176-5.846-.176-2.933 0-5.91.09-8.975.09m.939-32.584c-.307.002-.613.161-.975.262v18.754c5.631 0 11.004.388 16.286-.134 3.683-.363 6.466-2.904 7.36-6.745.866-3.721.522-7.387-2.734-9.87-1.547-1.179-3.672-2.079-5.591-2.2a91.459 91.459 0 0 0-5.834-.162c-2.835 0-5.675.081-8.512.095" transform="matrix(1.33333 0 0 -1.33333 0 793.701)"/><path style="fill:url(#e);stroke:none" d="M660.763 391.467c-17.699-.028-35.397-.015-53.095-.042-.73-.002-1.457-.305-2.424-.521.573-1.344 1.082-2.284 1.378-3.287.525-1.778 1.321-3.596 1.313-5.395-.071-18.001-.263-36.002-.499-54.001-.018-1.424-.488-2.887-.985-4.245-.605-1.652-1.462-3.212-2.371-5.156h58.072c-.069 6.14.873 12.078.013 18.344-1.25-.556-1.971-.963-2.744-1.204-2.031-.633-4.077-1.668-6.132-1.704-9.254-.162-18.515-.037-27.773.004-.881.004-1.761.149-2.47.213v13.211h28.674v15.287h-28.293v13.261c.634.102.955.197 1.277.198 9.755.077 19.511.186 29.267.159 1.248-.004 2.53-.637 3.733-1.132 1.625-.669 3.188-1.486 5.24-2.458.132 5.84.288 11.182.358 16.526.021 1.629-1.098 1.942-2.527 1.942h-.012" transform="matrix(1.33333 0 0 -1.33333 0 793.701)"/><path style="fill:url(#f);stroke:none" d="M384.723 355.247c-.513-19.489 16.226-36.249 35.357-36.498 22.068-.286 37.017 16.535 37.496 35.23.553 21.591-16.482 36.887-35.697 37.246a33.49 33.49 0 0 1-.708.007c-20.572.001-36.741-16.824-36.448-35.985m15.125-.651c-.059 12.719 10.225 22.061 22.294 21.607 11.288-.427 20.238-9.762 20.196-21.647-.04-11.307-10.334-21.37-21.406-20.769a15.712 15.712 0 0 0-.376-.004c-11.53-.001-20.658 10.092-20.708 20.813" transform="matrix(1.33333 0 0 -1.33333 0 793.701)"/><path style="fill:url(#g);stroke:none" d="M489.692 304.828c.388-.905.574-1.523.897-2.056 1.771-2.926 2.149-6.084 2.127-9.469a3749.93 3749.93 0 0 1-.003-46.596c.022-3.769-.001-7.417-2.401-10.602-.324-.429-.42-1.031-.614-1.536 1.807-1.028 51.412-1.212 56.561-.221.524 5.491.892 11.034.32 17.034-1.615-.702-2.621-1.31-3.712-1.58-2.292-.565-4.62-1.308-6.945-1.352-8.518-.157-17.043-.059-25.564-.057h-2.992v13.421h28.443v15.212h-28.215v13.603h2.834c8.852.003 17.705.081 26.556-.051 1.819-.026 3.667-.706 5.424-1.309 1.419-.487 2.722-1.31 4.55-2.22v17.779z" transform="matrix(1.33333 0 0 -1.33333 0 793.701)"/><path style="fill:url(#h);stroke:none" d="M360.388 304.665c.321-.851.531-1.368.712-1.894.764-2.23 2.141-4.454 2.179-6.699.295-17.422.332-34.848.448-52.273.017-2.583-.313-5.058-1.848-7.27-.47-.679-.641-1.567-1.053-2.627h56.648v17.231c-1.969-.811-3.597-1.553-5.278-2.148-1.063-.376-2.203-.747-3.311-.753-9.346-.049-18.694-.016-28.041.003-.794.001-1.588.074-2.469.118v13.439h28.223v15.092h-28.211v13.527c.473.08.786.179 1.099.18 9.926.012 19.852.029 29.778-.012.777-.002 1.591-.324 2.317-.651 1.898-.857 3.757-1.799 5.902-2.84v17.577z" transform="matrix(1.33333 0 0 -1.33333 0 793.701)"/><path style="fill:url(#i);stroke:none" d="M624.772 305.102h-5.181c-1.428 0-2.856-.147-4.601-.242.482-1.1.7-1.805 1.074-2.413 1.737-2.824 2.318-5.828 2.254-9.174-.323-16.929-.434-33.862-.72-50.79-.023-1.392-.711-2.804-1.242-4.147-.543-1.378-1.27-2.682-1.953-4.093 9.629 0 18.778-.05 27.928.03 2.708.023 5.466.145 8.11.68 8.406 1.701 15.185 6.305 19.723 13.385 4.706 7.343 5.722 15.861 5.457 24.503-.211 6.901-1.715 13.384-5.913 19.039-6.175 8.318-14.324 12.986-24.804 13.134-5.587.078-11.174.089-16.761.089l-3.371-.001m8.102-14.632c5.465 0 10.512.679 15.293-.16 7.038-1.234 10.544-6.736 12.009-13.255 1.255-5.585 1.021-11.302-.738-16.851-2.249-7.096-8.191-12.22-16.025-11.795-3.518.19-7.056.032-10.539.032z" transform="matrix(1.33333 0 0 -1.33333 0 793.701)"/><path style="fill:url(#j);stroke:none" d="M590.039 304.792c.445-.945.682-1.53.985-2.081 1.559-2.85 2.584-5.753 2.457-9.142-.234-6.186-.092-12.387-.143-18.581-.014-1.689-.158-3.376-.275-5.703-13.414 11.459-25.415 23.67-38.611 34.672a9.477 9.477 0 0 1-.489-3.061c-.094-17.591-.13-35.184-.293-52.775-.04-4.313.197-8.765-2.659-12.528-.22-.29-.24-.731-.435-1.378h20.677c-.522 1.148-.77 1.943-1.207 2.615-1.696 2.6-2.117 5.424-1.997 8.486.251 6.268.276 12.545.439 18.816.038 1.519.253 3.034.386 4.549l.57.278 37.048-34.436.696.352c.128.841.363 1.681.372 2.525.212 19.075.362 38.151.642 57.227.029 1.894.73 3.808 1.295 5.658.44 1.443 1.156 2.802 1.88 4.507z" transform="matrix(1.33333 0 0 -1.33333 0 793.701)"/><path style="fill:url(#k);stroke:none" d="M448.581 304.013c-16.157-3.362-29.84-20.932-27.574-37.444 1.659-12.097 7.02-21.648 17.891-27.642 2.859-1.577 5.943-2.915 9.086-3.766 3.064-.831 6.345-1.285 9.514-1.211 5.736.135 11.133 2.032 16.472 4.052 1.012.385 2.431.319 3.457-.073 2.662-1.017 5.211-2.33 8.191-3.704v34.699h-17.046c0-.473-.064-.677.01-.787 2.748-4.082 3.031-8.654 2.474-13.315-.127-1.065-.814-2.444-1.678-2.982-7.586-4.724-15.344-5.545-23.311-.744-10.047 6.053-12.45 16.128-9.268 25.685 4.128 12.403 18.98 17.342 29.454 11.728 2.865-1.535 5.442-3.607 8.341-5.561l10.448 8.108c-.14.501-.137.694-.233.807-7.529 8.879-16.72 13.122-27.204 13.122-2.912.001-5.921-.326-9.024-.972" transform="matrix(1.33333 0 0 -1.33333 0 793.701)"/><path style="fill:url(#l);stroke:none" d="M696.509 303.474c-6.25-1.872-11.231-5.405-12.91-12.1-.688-2.741-.963-5.674-.875-8.503.152-4.954 2.226-9.241 6.375-12.03a58.968 58.968 0 0 1 10.459-5.573c5.552-2.278 11.352-3.954 16.917-6.206 1.699-.686 3.484-2.151 4.333-3.737 1.835-3.429-.968-6.983-5.565-7.483-9.176-.996-17.847.913-26.201 4.584-2.136.937-4.243 1.94-6.386 2.923-.917-2.699-.834-19.917.065-21.285l6.94 3.779c6.542-2.05 13.158-3.62 20.079-3.728 5.768-.09 11.335.359 16.552 3.2 8.286 4.511 12.252 13.546 8.904 22.945-1.986 5.574-6.068 9.258-11.193 11.652-4.539 2.12-9.395 3.553-14.074 5.381-3.066 1.197-6.115 2.466-9.088 3.874-2.435 1.155-3.401 3.401-3.194 5.942.197 2.418 2.216 3.349 4.253 3.953 1.33.395 2.728.675 4.11.762 6.05.381 11.84-.83 17.369-3.222 3.222-1.393 6.355-2.989 9.527-4.494 1.053 1.888 1.258 18.665.203 20.649-.435-.148-.963-.2-1.328-.471-3.734-2.783-7.565-2.576-11.883-1.2-4.105 1.308-8.277 1.996-12.462 1.996-3.643 0-7.296-.521-10.927-1.608" transform="matrix(1.33333 0 0 -1.33333 0 793.701)"/><path style="fill:url(#m);stroke:none" d="M547.354 390.914c.666-1.362 1.05-2.324 1.579-3.199 1.36-2.25 1.901-4.61 1.87-7.283-.229-19.552-.339-39.104-.469-58.657-.006-.951.158-1.902.245-2.882.724-.127 1.199-.285 1.676-.285 15.542-.013 31.084 0 46.627-.026 1.7-.004 2.386.74 2.385 2.383-.004 4.787.05 9.573.035 14.361-.002.51-.312 1.018-.53 1.683-.708-.372-1.185-.683-1.705-.886-2.049-.805-4.093-2.187-6.173-2.251-8.093-.248-16.2-.078-24.3-.052-.887.003-1.774.076-2.973.13 0 1.011-.003 1.814 0 2.616.047 14.447.032 28.894.208 43.339.028 2.31.86 4.624 1.443 6.905.335 1.312.913 2.562 1.48 4.104z" transform="matrix(1.33333 0 0 -1.33333 0 793.701)"/><path style="fill:url(#n);stroke:none" d="M319.565 311.274c-4.046-1.853-8.074-3.744-12.125-5.585-1.319-.6-1.682-1.548-1.67-2.957.202-22.288.352-44.577.533-66.865.006-.627.224-1.252.352-1.922.733-.075 1.299-.18 1.864-.181 9.923-.022 19.846-.039 29.769-.042 5.043-.001 10.088.028 15.131.049 2.907.013 3.02.142 3.017 3.124-.004 3.138.004 6.275.007 9.413.001 1.458 0 2.915 0 4.823-1.228-.404-2.097-.551-2.823-.953-2.94-1.627-5.959-2.534-9.422-2.429-6.692.205-13.394.058-20.092.057h-3.254v63.48c-.519 0-.819.031-1.019.031a.622.622 0 0 1-.268-.043" transform="matrix(1.33333 0 0 -1.33333 0 793.701)"/><path style="fill:url(#o);stroke:none" d="M522.078 390.847c.726-1.413 1.263-2.251 1.601-3.163.649-1.744 1.683-3.529 1.689-5.3.063-17.844-.012-35.689-.175-53.533-.016-1.815-.738-3.667-1.357-5.423-.502-1.419-1.343-2.718-2.033-4.071l.284-.709a690.004 690.004 0 0 1 21.4-.009c-.521 1.224-.688 1.954-1.091 2.517-1.917 2.676-2.361 5.634-2.334 8.878.133 15.696.192 31.395.095 47.091-.028 4.339.551 8.363 3.03 12.002.264.387.363.883.694 1.72z" transform="matrix(1.33333 0 0 -1.33333 0 793.701)"/><path style="fill:url(#p);stroke:none" d="m105.185 241.486 1.198-42.32c.999-.173 2.006-.497 3.015-.5 11.234-.038 22.469-.028 33.704-.018.654 0 1.308.157 1.962.146 1.092-.019 2.183-.11 3.274-.18.418-.027.833-.084 1.249-.128l.247.451-44.052 42.908c-.2-.119-.398-.24-.597-.359" transform="matrix(1.33333 0 0 -1.33333 0 793.701)"/><path style="fill:url(#q);stroke:none" d="m248.953 390.168-.467-.8 42.461-41.878c.867 2.713.606 41.124-.179 42.678z" transform="matrix(1.33333 0 0 -1.33333 0 793.701)"/><path style="fill:url(#r);stroke:none" d="M306.686 222.976v-24.283c5.36 0 10.312-.176 15.24.079 2.248.117 4.279 1.128 5.473 3.517 1.53 3.06.651 6.388-2.185 8.947.275.508.536 1.086.879 1.611 2.432 3.729 1.407 7.417-2.713 9.025-1.636.639-3.468.983-5.227 1.056-1.578.065-3.158.084-4.75.084-2.208 0-4.438-.036-6.717-.036m6.789-9.315v4.155c1.524 0 3.076.213 4.515-.094.671-.143 1.575-1.307 1.556-1.986-.019-.705-.919-1.811-1.621-1.982-.538-.133-1.1-.172-1.693-.172-.845 0-1.755.079-2.757.079m.098-5.556c1.779 0 3.42.177 4.988-.086.632-.106 1.413-1.116 1.546-1.823.099-.537-.622-1.68-1.148-1.797-1.684-.376-3.447-.401-5.386-.581z" transform="matrix(1.33333 0 0 -1.33333 0 793.701)"/><path style="fill:url(#s);stroke:none" d="M388.967 223.044v-24.213h6.653v10.472l.834.354c.598-.706 1.261-1.367 1.782-2.126 1.68-2.452 3.258-4.973 4.987-7.389.467-.652 1.286-1.354 2.023-1.454 1.607-.22 3.266-.067 5.11-.067v24.271h-6.711v-9.5l-.818-.19c-.667.782-1.392 1.521-1.991 2.353-1.496 2.072-2.896 4.216-4.422 6.266-.396.532-1.094 1.119-1.696 1.167-.822.068-1.649.086-2.487.086-1.063 0-2.145-.03-3.264-.03" transform="matrix(1.33333 0 0 -1.33333 0 793.701)"/><path style="fill:url(#t);stroke:none" d="M439.299 223.007c-4.531-.29-8.385-1.99-10.121-6.335-1.836-4.587-1.43-9.246 1.651-13.35 2.299-3.059 5.777-4.047 9.309-4.573 7.133-1.063 14.037 4.636 12.872 12-3.453 1.178-10.571 1.023-12.588-.393l.364-3.024c1.452-.174 2.69-.319 4.099-.487-2.256-3.1-5.717-2.974-7.079.083-1.17 2.625-1.338 5.398-.294 8.187.666 1.776 1.962 2.865 3.726 2.644 1.215-.154 2.354-1.136 3.456-1.856.586-.382.987-1.387 1.527-1.43 2.092-.172 4.208-.071 6.27-.071.326 3.408-1.559 6.233-4.452 7.515-2.07.915-4.185 1.177-6.339 1.177-.795 0-1.596-.036-2.401-.087" transform="matrix(1.33333 0 0 -1.33333 0 793.701)"/><path style="fill:url(#u);stroke:none" d="M353.917 222.798c-1.423-4.111-2.868-8.036-4.137-12.016-1.243-3.906-2.869-7.727-3.505-11.949h6.039l1.755 4.335h7.204c.352-1.046.504-1.986.969-2.73.437-.698 1.164-1.624 1.839-1.691 2.178-.215 4.392-.08 7.206-.08l-8.365 24.131zm3.172-9.26.638.124 1.646-4.314h-3.474l1.19 4.19" transform="matrix(1.33333 0 0 -1.33333 0 793.701)"/><path style="fill:url(#v);stroke:none" d="M412.576 355.881c-.34-.415-.398-1.549-.08-1.935 2.659-3.23 5.436-6.362 8.302-9.667.536.237.922.29 1.108.51 2.547 3.015 5.124 6.009 7.532 9.133.363.472.2 1.797-.218 2.346-2.145 2.807-4.436 5.504-6.721 8.201-.384.452-.992.714-1.626 1.153-2.886-3.359-5.647-6.504-8.297-9.741" transform="matrix(1.33333 0 0 -1.33333 0 793.701)"/><path style="fill:url(#w);stroke:none" d="M510.34 222.976v-24.283c5.361 0 10.314-.176 15.242.079 2.247.117 4.278 1.128 5.473 3.517 1.53 3.06.65 6.388-2.186 8.947.274.508.537 1.086.88 1.611 2.431 3.729 1.407 7.417-2.714 9.025-1.636.639-3.467.983-5.228 1.056-1.577.065-3.157.084-4.748.084-2.208 0-4.439-.036-6.719-.036m6.791-9.315v4.155c1.524 0 3.074.213 4.513-.094.673-.143 1.575-1.307 1.557-1.986-.018-.705-.918-1.811-1.621-1.982-.538-.133-1.1-.172-1.694-.172-.845 0-1.754.079-2.755.079m.097-5.556c1.779 0 3.42.177 4.988-.086.633-.106 1.414-1.116 1.545-1.823.101-.537-.622-1.68-1.147-1.797-1.684-.376-3.447-.401-5.386-.581z" transform="matrix(1.33333 0 0 -1.33333 0 793.701)"/><path style="fill:url(#x);stroke:none" d="M592.623 223.044v-24.213h6.653v10.472l.834.354c.597-.706 1.26-1.367 1.78-2.126 1.681-2.452 3.259-4.973 4.989-7.389.467-.652 1.286-1.354 2.022-1.454 1.608-.22 3.266-.067 5.11-.067v24.271H607.3v-9.5l-.817-.19c-.668.782-1.393 1.521-1.992 2.353-1.496 2.072-2.895 4.216-4.421 6.266-.397.532-1.096 1.119-1.696 1.167a30.15 30.15 0 0 1-2.488.086c-1.063 0-2.145-.03-3.263-.03" transform="matrix(1.33333 0 0 -1.33333 0 793.701)"/><path style="fill:url(#y);stroke:none" d="M642.954 223.007c-4.53-.29-8.385-1.99-10.121-6.335-1.835-4.587-1.431-9.246 1.652-13.35 2.298-3.059 5.777-4.047 9.307-4.573 7.135-1.063 14.038 4.636 12.873 12-3.452 1.178-10.57 1.023-12.588-.393l.364-3.024c1.452-.174 2.69-.319 4.099-.487-2.255-3.1-5.717-2.974-7.079.083-1.17 2.625-1.338 5.398-.293 8.187.665 1.776 1.962 2.865 3.725 2.644 1.214-.154 2.354-1.136 3.456-1.856.585-.382.987-1.387 1.527-1.43 2.093-.172 4.209-.071 6.271-.071.326 3.408-1.559 6.233-4.453 7.515-2.069.915-4.185 1.177-6.339 1.177-.795 0-1.596-.036-2.401-.087" transform="matrix(1.33333 0 0 -1.33333 0 793.701)"/><path style="fill:url(#z);stroke:none" d="M557.573 222.798c-1.424-4.111-2.87-8.036-4.138-12.016-1.244-3.906-2.869-7.727-3.504-11.949h6.039l1.755 4.335h7.202c.353-1.046.504-1.986.97-2.73.438-.698 1.164-1.624 1.839-1.691 2.179-.215 4.392-.08 7.206-.08l-8.365 24.131zm3.171-9.26.638.124 1.646-4.314h-3.475l1.191 4.19" transform="matrix(1.33333 0 0 -1.33333 0 793.701)"/></svg>