<svg width="250" height="250" xmlns="http://www.w3.org/2000/svg" viewBox="0 0 500 500" xml:space="preserve"><linearGradient id="a" gradientUnits="userSpaceOnUse" x1="209.999" y1="297.493" x2="209.999" y2="151.858"><stop offset="0" style="stop-color:#fff"/><stop offset=".036" style="stop-color:#fff"/><stop offset=".275" style="stop-color:#fff"/><stop offset=".499" style="stop-color:#fff"/><stop offset=".701" style="stop-color:#fff"/><stop offset=".875" style="stop-color:#fff"/><stop offset="1" style="stop-color:#fff"/></linearGradient><path style="fill:url(#a)" d="M203.751 216.492h1.952c.473 0 .943.069 1.396.204 2.947.881 6.328 2.634 8.904 5.264l-.076-28.307s-2.15-9.46-8.744-10.464c-6.594-1.003-21.262-2.054-21.262-2.054l21.214-.478s9.461 1.912 11.085 8.123l15.003-6.594-14.143 9.269.063 23.77c.106-.129.209-.26.33-.38l10.033-9.939a4.84 4.84 0 0 1 3.429-1.411h2.763c-.008-10.024-.262-21.117-.47-22.266-.17-.941-5.439-2.446-10.26-4.449-4.419-1.837-8.341-4.221-10.189-4.246-1.774-.026-7.56 1.815-13.755 3.607-7.302 2.111-13.406 3.448-15.009 4.229-1.603.782-1.72 1.052-1.72 1.052 2.198 2.293 9.269 4.778 9.269 4.778 12.247 10.262 10.581 19.508 10.187 30.292z"/><linearGradient id="b" gradientUnits="userSpaceOnUse" x1="213.552" y1="297.492" x2="213.552" y2="151.859"><stop offset="0" style="stop-color:#fff"/><stop offset=".036" style="stop-color:#fff"/><stop offset=".275" style="stop-color:#fff"/><stop offset=".499" style="stop-color:#fff"/><stop offset=".701" style="stop-color:#fff"/><stop offset=".875" style="stop-color:#fff"/><stop offset="1" style="stop-color:#fff"/></linearGradient><path style="fill:url(#b)" d="m211.015 250.025 5.073 3.611-.017-6.38a39.63 39.63 0 0 1-.529-3.306c-1.469 2.283-3.09 4.371-4.527 6.075z"/><linearGradient id="c" gradientUnits="userSpaceOnUse" x1="256.243" y1="297.492" x2="256.243" y2="151.858"><stop offset="0" style="stop-color:#fff"/><stop offset=".036" style="stop-color:#fff"/><stop offset=".275" style="stop-color:#fff"/><stop offset=".499" style="stop-color:#fff"/><stop offset=".701" style="stop-color:#fff"/><stop offset=".875" style="stop-color:#fff"/><stop offset="1" style="stop-color:#fff"/></linearGradient><path style="fill:url(#c)" d="m264.192 261.155.069-25.837h-3.706a4.894 4.894 0 0 1-4.689-3.543 4.893 4.893 0 0 1 2.128-5.477l.378-.233c.139-.086.288-.166.449-.242.11-.087.228-.175.366-.26l2.403-1.483-.712-.896h-12.652c.136 6.495.224 17.089.28 28.063a20.368 20.368 0 0 0 2.186 3.338c3.165 3.884 7.594 6.04 13.5 6.57z"/><linearGradient id="d" gradientUnits="userSpaceOnUse" x1="210.318" y1="297.492" x2="210.318" y2="151.858"><stop offset="0" style="stop-color:#fff"/><stop offset=".036" style="stop-color:#fff"/><stop offset=".275" style="stop-color:#fff"/><stop offset=".499" style="stop-color:#fff"/><stop offset=".701" style="stop-color:#fff"/><stop offset=".875" style="stop-color:#fff"/><stop offset="1" style="stop-color:#fff"/></linearGradient><path style="fill:url(#d)" d="M216.124 267.234h-11.696c.389 18.747.786 35.662.796 36.1 1.392-1.656 4.479-4.033 10.983-4.693l-.083-31.407z"/><linearGradient id="e" gradientUnits="userSpaceOnUse" x1="273.459" y1="297.493" x2="273.459" y2="151.858"><stop offset="0" style="stop-color:#fff"/><stop offset=".036" style="stop-color:#fff"/><stop offset=".275" style="stop-color:#fff"/><stop offset=".499" style="stop-color:#fff"/><stop offset=".701" style="stop-color:#fff"/><stop offset=".875" style="stop-color:#fff"/><stop offset="1" style="stop-color:#fff"/></linearGradient><path style="fill:url(#e)" d="m264.344 203.496.032-12.041-14.142-9.269 15.002 6.594c1.625-6.211 11.086-8.123 11.086-8.123l21.214.478s-14.669 1.051-21.263 2.054c-6.594 1.003-8.744 10.464-8.744 10.464l-.013 9.843h12.154c.711-5.755 3.133-11.355 10.22-17.296 0 0 7.072-2.484 9.27-4.778l-1.72-1.052s-7.707-2.118-15.009-4.229c-6.194-1.792-11.981-3.633-13.755-3.607-1.849.026-5.77 2.41-10.189 4.246-4.821 2.003-10.09 3.508-10.26 4.449-.208 1.149-.462 12.242-.469 22.266h16.586z"/><linearGradient id="f" gradientUnits="userSpaceOnUse" x1="227.078" y1="297.492" x2="227.078" y2="151.858"><stop offset="0" style="stop-color:#fff"/><stop offset=".036" style="stop-color:#fff"/><stop offset=".275" style="stop-color:#fff"/><stop offset=".499" style="stop-color:#fff"/><stop offset=".701" style="stop-color:#fff"/><stop offset=".875" style="stop-color:#fff"/><stop offset="1" style="stop-color:#fff"/></linearGradient><path style="fill:url(#f)" d="M234.874 272.916c-3.496-1.958-7.03-4.787-10.377-8.823a4.855 4.855 0 0 1-4.555 3.141h-.659l.086 32.49 14.312 27.706c.508-.1.787-.376.787-.376-.765-2.484.382-34.592.382-34.592s-.001-8.373.024-19.546z"/><linearGradient id="g" gradientUnits="userSpaceOnUse" x1="219.813" y1="297.492" x2="219.813" y2="151.859"><stop offset="0" style="stop-color:#fff"/><stop offset=".036" style="stop-color:#fff"/><stop offset=".275" style="stop-color:#fff"/><stop offset=".499" style="stop-color:#fff"/><stop offset=".701" style="stop-color:#fff"/><stop offset=".875" style="stop-color:#fff"/><stop offset="1" style="stop-color:#fff"/></linearGradient><path style="fill:url(#g)" d="M206 304.757c5.679 9.311 23.589 20.461 25.409 21.915.94.751 1.693.856 2.218.768l-15.374-27.087c-5.59-.306-9.907 2.437-12.253 4.404z"/><linearGradient id="h" gradientUnits="userSpaceOnUse" x1="264.033" y1="297.492" x2="264.033" y2="151.859"><stop offset="0" style="stop-color:#fff"/><stop offset=".036" style="stop-color:#fff"/><stop offset=".275" style="stop-color:#fff"/><stop offset=".499" style="stop-color:#fff"/><stop offset=".701" style="stop-color:#fff"/><stop offset=".875" style="stop-color:#fff"/><stop offset="1" style="stop-color:#fff"/></linearGradient><path style="fill:url(#h)" d="m267.722 299.916-2.486.382-15.405 27.142c.525.088 1.278-.016 2.218-.768 1.912-1.529 21.597-13.76 26.184-23.316l.001-.018c-2.735-3.277-10.512-3.422-10.512-3.422z"/><linearGradient id="i" gradientUnits="userSpaceOnUse" x1="273.198" y1="297.492" x2="273.198" y2="151.858"><stop offset="0" style="stop-color:#fff"/><stop offset=".036" style="stop-color:#fff"/><stop offset=".275" style="stop-color:#fff"/><stop offset=".499" style="stop-color:#fff"/><stop offset=".701" style="stop-color:#fff"/><stop offset=".875" style="stop-color:#fff"/><stop offset="1" style="stop-color:#fff"/></linearGradient><path style="fill:url(#i)" d="M274.216 268.19a4.83 4.83 0 0 1-1.629 1.912c-.175.12-2.079 1.412-5.164 2.84l-.036 26.352c7.08-.202 9.84 2.306 10.852 3.801.05-2.145.411-17.636.77-34.905h-4.793z"/><linearGradient id="j" gradientUnits="userSpaceOnUse" x1="256.374" y1="297.492" x2="256.374" y2="151.858"><stop offset="0" style="stop-color:#fff"/><stop offset=".036" style="stop-color:#fff"/><stop offset=".275" style="stop-color:#fff"/><stop offset=".499" style="stop-color:#fff"/><stop offset=".701" style="stop-color:#fff"/><stop offset=".875" style="stop-color:#fff"/><stop offset="1" style="stop-color:#fff"/></linearGradient><path style="fill:url(#j)" d="M264.157 274.305c-3.773 1.409-8.554 2.629-13.807 2.629a33.22 33.22 0 0 1-1.759-.049c.017 9.129.017 15.576.017 15.576s1.148 32.108.383 34.592c0 0 .278.276.787.376l14.311-27.706.068-25.418z"/><linearGradient id="k" gradientUnits="userSpaceOnUse" x1="250" y1="271.691" x2="250" y2="190.572"><stop offset="0" style="stop-color:#fff"/><stop offset=".282" style="stop-color:#fff"/><stop offset=".6" style="stop-color:#fff"/><stop offset=".851" style="stop-color:#fff"/><stop offset="1" style="stop-color:#fff"/></linearGradient><path style="fill:url(#k)" d="M66.282 219.359H30.543v-.241c1.702-2.652 4.634-3.916 4.634-3.916h31.391l4.157 1.863 12.211-6.43-11.494 13.501-5.16-4.777zm-31.248-5.877h32.323l2.867 1.147 12.704-4.634h-49.04s-3.344 1.242-3.344 4.109v3.935c.702-1.671 2.029-3.698 4.49-4.557zm84.389 16.487-4.931-3.921h-26.9l-2.628 2.484h-4.109l-1.959 1.433h-1.481l2.915-2.628h3.822l2.771-2.198h27.091l5.356 4.707-3.657-8.486H80.441l-7.201 7.74 4.262 5.34h8.731l3.075-4.213h30.226l-.111-.258zm-34.794 35.068s2.389 7.835-4.396 7.835H24.999l12.399-13.665s3.368 3.631 8.051 3.631H65.23l-33.924-41.282h17.201l36.122 43.481zm-46.106 3.093-.556-6.559-1.223 5.114-8.116 4.892 9.895-3.447zm34.735-7.585c-.612-.891-27.999-33.541-27.999-33.541l-10.989-4.109.287.287 8.6 4.778 26.183 32.204s1.147 5.065-1.529 6.88c0 0 5.246.38 6.505-2.382.75-1.645-.177-2.835-1.058-4.117zm26.518-22.504.048 17.057-2.389 3.918V238.28l-4.635-5.686 5.829 4.348 8.643-5.638H91.605v27.617s.86 7.262 6.498 10.894l9.652-13.856v-24.654h-.147l-7.832 6.736zm161.97-8.906 14.098-4.52h25.037c12.231 1.72 8.422 12.375 7.357 13.474-2.163 2.232-7.548 8.505-8.887 9.842-1.337 1.338-.573 2.963-.573 2.963l6.403 5.447 15.004 5.108-15.768-11.224s10.702-10.511 11.467-18.443c.765-7.932-9.46-10.99-9.46-10.99H275.27l-13.524 8.343zm119.978 8.451-4.697-5.101v29.11l4.697-5.733v-18.276zm-181.563-12.971c12.231 1.72 8.423 12.375 7.358 13.474-2.164 2.232-7.549 8.505-8.887 9.842-1.338 1.338-.573 2.963-.573 2.963l6.402 5.447 15.005 5.108-15.769-11.224s10.703-10.511 11.467-18.443c.765-7.932-9.46-10.99-9.46-10.99h-31.153l-13.525 8.343 14.098-4.52h25.037zm206.695-.712 8.205-3.282.037-.044H381.27l-8.794 8.118 10.348-4.792h24.032zm7.658-2.639-7.372 4.757h-24.319l-10.477 3.157h35.441l6.727-7.914zm-282.641 21.029 2.843-10.589-6.798 4.64-2.716 9.723 9.954-.334 1.72 2.437h-10.32l-1.517-1.517-2.926 10.476-3.01 1.218 6.379-21.931-3.243-5.017h-.15l-8.792 30.961h13.187l3.066-11.42h14.278s-1.481-6.068-3.106-8.648h-8.849zm101.829-30.388v-2.676l.955 2.102h30.866l1.53 1.242 13.425-4.778h-47.54l-10.034 9.939h.069l10.729-5.829zm31.534 1.816h-32.872l-9.071 4.013h39.936l2.963 3.727 15.863-13.665h-.314l-14.211 7.932-2.294-2.007zm-132.158 7.573-11.539 7.167c6.124.312 10.342 1.487 13.253 2.909l.244.117c5.555 2.809 6.141 6.506 6.141 6.506l9.179 24.405 3.292-5.198s-7.239-21.501-10.75-26.518c-3.512-5.017-16.484-3.297-16.484-3.297 14.334-4.372 18.634 3.153 18.634 3.153l11.682 26.016-6.081 6.02h15.255c-5.949-15.409-17.559-41.138-17.559-41.138l-15.267-.142zm208.415 0-11.539 7.167c5.616.287 9.625 1.298 12.497 2.561l-.008.006 1.01.457-.002.002c5.554 2.809 6.141 6.506 6.141 6.506l9.179 24.405 3.292-5.198s-7.239-21.501-10.751-26.518c-3.512-5.017-16.484-3.297-16.484-3.297 14.334-4.372 18.635 3.153 18.635 3.153l11.682 26.016-6.081 6.02h15.254c-5.948-15.409-17.559-41.138-17.559-41.138l-15.266-.142zm-19.781 41.067h1.101l-1.017-.293-.084.293zm18.576-20.068 2.843-10.589-6.799 4.64-2.716 9.723 9.954-.334 1.72 2.437h-10.32l-1.517-1.517-2.926 10.476-3.01 1.218 6.379-21.931-3.242-5.017h-.149l-8.69 30.604 1.051.358H334.9l3.067-11.42h14.277s-1.48-6.068-3.105-8.648h-8.851zm-4.672-6.737 7.538-4.157h-12.38l3.266 4.157h1.576zm119.211-14.573h-35.273l-5.375 7.343 5.034-4.423h27.091l2.772 2.198h3.822l2.915 2.628h-1.481l-1.959-1.433h-4.11l-2.627-2.484h-26.901l-4.743 3.771-.3.41h30.227l3.075 4.213h8.731l4.262-5.341-5.16-6.882zm-57.694 21.983h-3.192l13.989-4.88h-17.606v-6.687h-13.297v.26l5.075 4.136h1.819v19.02l4.484 5.698-4.484-2.912v.172h-1.558l-5.336 4.501v.469h13.297v-16.117h8.497l9.947-8.539h-.413l-11.222 4.879zm37.93-4.925.048 17.057-2.39 3.918V238.28l-4.634-5.686 5.829 4.348 8.642-5.638h-15.665v27.617s.86 7.262 6.498 10.894l9.651-13.856v-24.654h-.147l-7.832 6.736zm-260.99-.455-5.447-5.917v30.841l5.447-6.65v-18.274zm-46.872-2.03 7.538-4.157h-12.38l3.266 4.157h1.576zM304.894 257.2h-2.103s-4.491-3.823-5.734-5.447c-1.241-1.624-.287-3.536-.287-3.536l9.46-11.371c4.013-9.078-5.542-10.894-5.542-10.894l-24.177.096-15.581 3.589-.377.233h36.982c6.212 1.53 3.821 6.594 3.821 6.594l-10.607 12.805c-1.147.955-.19 2.675-.19 2.675l10.416 9.843h19.685l-.109-.078-15.657-4.509zm-100.72 0h-2.102s-4.491-3.823-5.734-5.447c-1.242-1.624-.287-3.536-.287-3.536l9.46-11.371c4.014-9.078-5.542-10.894-5.542-10.894l-24.177.096-15.581 3.589-.377.233h7.136l-.007-.007h.21l.009.007h29.634c6.211 1.53 3.822 6.594 3.822 6.594l-10.607 12.805c-1.147.955-.191 2.675-.191 2.675l10.416 9.843h19.685l-.109-.078-15.658-4.509zm-29.723-21.405h1.82v21.979h-1.558l-5.892 4.969h13.852v-31.344h-13.615l5.393 4.396zm54.521 14.095c-4.874-12.04-.573-24.654-.573-24.654l2.58-.067s-4.587 16.197 3.297 28.668c6.885 10.891 21.987 15.677 33.938 11.742-36.806.877-27.058-45.79-27.058-45.79l-17.344-.43s-8.744 20.498.717 35.835c17.965 29.126 45.295 10.32 45.295 10.32-.361.021-.709.03-1.062.043-8.717 3.403-27.731 7.375-39.79-15.667zm45.821-12.304-5.447-5.917v30.841l5.447-6.65v-18.274zm.379-1.791h1.819v21.979h-1.558l-5.892 4.969h13.853v-31.344h-13.615l5.393 4.396zm194.444-19.015c.904 0 1.788.232 2.649.695a4.95 4.95 0 0 1 2.013 1.992c.48.863.721 1.765.721 2.702a5.46 5.46 0 0 1-.711 2.678 5 5 0 0 1-1.991 1.994 5.45 5.45 0 0 1-2.681.711 5.451 5.451 0 0 1-2.68-.711 5.038 5.038 0 0 1-1.996-1.994 5.44 5.44 0 0 1-.714-2.678c0-.937.241-1.839.725-2.702a4.978 4.978 0 0 1 2.017-1.992c.862-.463 1.744-.695 2.648-.695zm0 .893c-.756 0-1.493.194-2.209.581a4.174 4.174 0 0 0-1.681 1.664 4.532 4.532 0 0 0-.607 2.252c0 .776.199 1.52.596 2.231a4.232 4.232 0 0 0 1.667 1.663 4.527 4.527 0 0 0 2.234.597c.776 0 1.521-.199 2.235-.597a4.2 4.2 0 0 0 1.664-1.663 4.542 4.542 0 0 0 .592-2.231 4.56 4.56 0 0 0-.604-2.252 4.15 4.15 0 0 0-1.681-1.664c-.718-.387-1.454-.581-2.206-.581zm-2.363 7.474v-5.796h1.992c.681 0 1.174.054 1.478.16.305.108.548.294.728.561.181.266.272.55.272.849 0 .424-.151.793-.454 1.106-.302.315-.703.491-1.202.529a1.6 1.6 0 0 1 .492.307c.234.228.52.611.857 1.15l.708 1.134h-1.143l-.514-.914c-.405-.718-.731-1.168-.978-1.349-.171-.133-.421-.199-.749-.199h-.55v2.463h-.937zm.936-3.262h1.135c.542 0 .912-.081 1.11-.243a.79.79 0 0 0 .296-.643.78.78 0 0 0-.142-.46.855.855 0 0 0-.396-.303c-.17-.066-.482-.1-.939-.1h-1.064v1.749z"/></svg>