<svg xmlns="http://www.w3.org/2000/svg" width="156" height="106" fill="none"><g clip-path="url(#a)" fill="#fff"><path d="M36.994 1.422c.478-.284.782.29 1.04.59 16.584 20.648 33.188 41.281 49.77 61.93.341.293.084.922-.376.854-7.94.01-15.882.003-23.822.003-.636.008-1.245-.307-1.636-.8-8.238-10.245-16.472-20.493-24.71-30.738-.35-.414-.531-.95-.509-1.488 0-9.897.003-19.796-.003-29.693.005-.234-.004-.537.246-.658ZM113.695 1.374c.339-.128.712.184.663.538.012 9.902-.002 19.803.006 29.705.022.561-.101 1.142-.467 1.583-2.504 3.117-5.011 6.232-7.514 9.348-.418.54-1.1.838-1.783.804-7.888-.008-15.776.004-23.664-.006-.466.072-.73-.554-.387-.855 10.938-13.619 21.885-27.233 32.829-40.849a.812.812 0 0 1 .317-.268ZM59.16 81.828c2.394-.367 4.907.055 7.035 1.213a11.214 11.214 0 0 1 4.768 4.997 11.128 11.128 0 0 1 .747 7.51 11.14 11.14 0 0 1-4.032 6.108c-3.386 2.655-8.35 3.047-12.12.972a11.193 11.193 0 0 1-4.925-5.298c-1.251-2.787-1.268-6.091-.048-8.893 1.47-3.474 4.824-6.071 8.576-6.61Zm.605 3.75c-2.402.361-4.515 2.06-5.457 4.278-.974 2.208-.783 4.885.515 6.924 1.064 1.717 2.879 2.968 4.887 3.289 2.04.357 4.214-.271 5.77-1.627 1.773-1.51 2.733-3.893 2.533-6.206-.15-2.064-1.215-4.044-2.874-5.296a7.054 7.054 0 0 0-5.374-1.362ZM0 82.339c.931-.252 1.916-.048 2.868-.12.34.047.855-.127 1.046.254.067.496.024.999.03 1.5v13.1c3.847-4.783 7.689-9.57 11.53-14.356.201-.249.474-.47.81-.475 1.104-.049 2.208.005 3.313-.022.413.008.871-.07 1.224.203-1.286 1.686-2.648 3.314-3.966 4.976-3.948 4.92-7.899 9.838-11.85 14.757-.293.357-.551.75-.902 1.059-.345.283-.826.195-1.24.217-.953-.033-1.913.051-2.863-.066V82.339ZM26.708 83.101a2.174 2.174 0 0 1 1.774-.874c.854.001 1.708-.016 2.561.007.294-.031.458.272.42.53v20.116c.04.258-.118.573-.42.54-1.056.012-2.113.012-3.17-.001-.387.01-.693-.261-.91-.551-1.827-2.283-3.663-4.558-5.49-6.841-1.86 2.305-3.709 4.618-5.564 6.928-.199.254-.487.467-.825.462-1.21.027-2.422-.006-3.633.014-.297-.02-.67.075-.854-.233 5.34-6.723 10.75-13.392 16.111-20.097Zm-3.01 9.726c1.254 1.553 2.49 3.119 3.753 4.662.01-3.112.006-6.223.003-9.336a1569.48 1569.48 0 0 0-3.756 4.674ZM36.25 82.759c-.03-.237.1-.528.376-.522a94.45 94.45 0 0 1 3.194-.004c.304-.034.494.266.446.544.006 5.62.003 11.238.002 16.859 2.954.01 5.908-.008 8.86.007.254-.054.412.266.212.435-.769.986-1.563 1.953-2.346 2.931-.236.318-.637.447-1.023.419-3.114-.011-6.23.012-9.343-.011-.287.012-.406-.297-.379-.535V82.759ZM75.614 82.766a.438.438 0 0 1 .496-.538c5.384-.006 10.766-.003 16.149-.001.248-.035.542.12.518.401.017 1.453.003 2.906.006 4.358.032.347-.152.651-.366.906-1.554 1.913-3.082 3.845-4.641 5.754-.077.135-.333.314-.139.47 2.355 2.946 4.729 5.878 7.08 8.826.17.141.173.477-.106.469-1.395.03-2.793.015-4.188.008-.547.007-.856-.498-1.16-.87a3360.446 3360.446 0 0 0-6.493-8.087c-.16-.198-.408-.484-.183-.729 2.042-2.58 4.122-5.133 6.175-7.707-3.04-.013-6.082.026-9.12-.02-.055 5.67.002 11.344-.03 17.014.035.264-.239.439-.477.403-1.055 0-2.11.017-3.165-.007-.28.003-.394-.311-.358-.543.002-6.702 0-13.404.002-20.107ZM98.146 82.777c-.048-.27.128-.579.432-.544 1.006-.019 2.014-.008 3.021-.005.377-.022.741.153.963.458l15.07 18.766c.432.578.951 1.097 1.326 1.716l-.145.234c-1.218.062-2.44 0-3.659.027-.481.008-1.063.048-1.381-.39-1.887-2.329-3.756-4.674-5.634-7.01-1.86 2.303-3.711 4.616-5.565 6.925-.199.256-.49.466-.827.465-1.052.015-2.105.01-3.155.003-.314.043-.496-.272-.446-.546V82.777Zm4.011 5.387c-.005 3.11-.005 6.22 0 9.331 1.254-1.554 2.502-3.112 3.751-4.67-1.252-1.552-2.491-3.116-3.751-4.661ZM115.859 82.783c-.032-.233.072-.535.348-.541 1.003-.041 2.006-.007 3.009-.017.389-.025.796.102 1.032.426 3.866 4.803 7.717 9.618 11.586 14.418V82.771c-.064-.3.171-.591.486-.543 1.061.002 2.122-.024 3.181.014.272.01.37.31.34.541v20.088c.031.228-.07.537-.344.542-1.054.03-2.11.009-3.164.01a1.058 1.058 0 0 1-.883-.427c-3.862-4.799-7.71-9.61-11.574-14.405-.005 2.813.007 5.627-.005 8.44.074.25-.285.464-.437.236-1.109-1.34-2.181-2.71-3.275-4.062-.244-.265-.323-.622-.304-.972.006-3.15-.002-6.3.004-9.45ZM138.612 82.627c-.031-.273.261-.43.501-.399 4.425-.007 8.85 0 13.276-.003.383-.024.783.1 1.017.422.784.972 1.575 1.94 2.345 2.925.204.165.052.492-.205.447-2.313.018-4.628 0-6.944.007-.01 5.616.014 11.232.013 16.848.054.269-.132.578-.433.546-1.057.009-2.115.014-3.17-.001a.373.373 0 0 1-.398-.399c-.037-5.664-.001-11.33-.031-16.994-1.826-.004-3.652.006-5.476-.003-.243.029-.532-.138-.495-.41a95.815 95.815 0 0 1 0-2.986Z"/></g><defs><clipPath id="a"><path fill="#fff" d="M0 0h156v106H0z"/></clipPath></defs></svg>