<svg xmlns="http://www.w3.org/2000/svg" width="135" height="138" fill="none"><g clip-path="url(#a)" stroke="#46247D" stroke-width="1.5" stroke-miterlimit="10" stroke-linecap="round" stroke-linejoin="round"><path d="m119.016 50.168-17.079-15.425 10.635-.605 17.254 15.513-10.81.517Z" fill="url(#b)"/><path d="M50.755 94.56c-5.78-5.112-11.562-10.224-17.079-15.424 1.838 2.027 4.91 2.91 8.778 2.65 16.435-.776 43.136-21.967 59.483-47.043l17.079 15.425c-16.171 25.164-42.873 46.355-59.308 47.131-4.042.172-6.85-.8-8.953-2.738Z" fill="url(#c)"/><path d="M48.267 53.618 31.188 38.194l10.635-.606 17.254 15.513-10.81.517Z" fill="url(#d)"/><path d="M37.08 109.954 19.735 94.617c-9.196-8.373-5.514-30.116 11.452-56.423l17.08 15.424c-16.879 26.132-20.473 48.139-11.189 56.336Z" fill="url(#e)"/><path d="M49.104 113.576c-22.498 1.034-22.84-25.82-.837-59.958l10.81-.517c-16.171 25.164-15.98 44.886.63 44.198 16.435-.776 43.137-21.967 59.309-47.13l10.81-.518c-22.004 34.138-58.223 62.891-80.722 63.925Z" fill="url(#f)"/></g><defs><linearGradient id="b" x1="130.686" y1="46.67" x2="100.997" y2="37.659" gradientUnits="userSpaceOnUse"><stop stop-color="#7D4EFB"/><stop offset="1" stop-color="#4E99FB"/></linearGradient><linearGradient id="c" x1="117.633" y1="45.935" x2="58.442" y2="81.638" gradientUnits="userSpaceOnUse"><stop stop-color="#7D4EFB"/><stop offset="1" stop-color="#4E99FB"/></linearGradient><linearGradient id="d" x1="59.973" y1="50.121" x2="30.28" y2="41.109" gradientUnits="userSpaceOnUse"><stop stop-color="#7D4EFB"/><stop offset="1" stop-color="#4E99FB"/></linearGradient><linearGradient id="e" x1="27.855" y1="117.897" x2="33.277" y2="41.628" gradientUnits="userSpaceOnUse"><stop stop-color="#7D4EFB"/><stop offset="1" stop-color="#4E99FB"/></linearGradient><linearGradient id="f" x1="71.115" y1="41.924" x2="88.028" y2="98.141" gradientUnits="userSpaceOnUse"><stop stop-color="#7D4EFB"/><stop offset=".364" stop-color="#AE6EEC"/><stop offset="1" stop-color="#FFA1D5"/></linearGradient><clipPath id="a"><path fill="#fff" transform="rotate(-63.302 76.379 46.43)" d="M0 0h105v97H0z"/></clipPath></defs></svg>