<svg xmlns="http://www.w3.org/2000/svg" width="90" height="33" fill="none"><mask id="a" style="mask-type:luminance" maskUnits="userSpaceOnUse" x="0" y="0" width="90" height="33"><path d="M89.281.084H.36v32.354h88.922V.084Z" fill="#fff"/></mask><g mask="url(#a)"><path d="M1.482.635h9.67c1.613 0 2.784.365 3.512 1.094.728.728 1.094 1.9 1.094 3.511v2.303c0 1.611-.366 2.782-1.094 3.51-.728.73-1.9 1.094-3.511 1.094H5.627v4.605H1.482V.635ZM11.613 5.24c0-.92-.46-1.381-1.381-1.381H5.627v5.065h4.605c.92 0 1.381-.46 1.381-1.381V5.24ZM16.91 13.414c3.745.23 6.277.345 7.597.345.354 0 .634-.103.84-.312.206-.208.311-.486.311-.84v-2.186h-6.125V7.197h6.125V5.24c0-.92-.46-1.381-1.38-1.381H17.14V.635h8.058c1.612 0 2.783.365 3.511 1.094.729.728 1.094 1.9 1.094 3.511v7.368c0 1.505-.354 2.61-1.06 3.315-.706.706-1.812 1.06-3.315 1.06-2.302 0-5.143-.153-8.519-.46v-3.11ZM35.974 16.983c-.768 0-1.558-.078-2.372-.23v-3.109h2.073c.444 0 .752-.177.92-.53.078-.153.116-.318.116-.494a.95.95 0 0 0-.115-.473L30.264.635h4.605l4.144 8.174L42.467.635h4.605L41.2 13.3c-.538 1.212-1.183 2.117-1.934 2.717-.83.645-1.927.967-3.293.967ZM47.3 13.298h4.145v3.454h-4.144v-3.454ZM53.518.635h9.67c1.611 0 2.782.365 3.511 1.094.729.728 1.094 1.9 1.094 3.511v2.303c0 1.611-.365 2.782-1.094 3.51-.728.73-1.9 1.094-3.511 1.094h-5.526v4.605h-4.144V.635Zm10.13 4.605c0-.92-.46-1.381-1.381-1.381h-4.605v5.065h4.605c.92 0 1.381-.46 1.381-1.381V5.24ZM88.054 10.995c0 1.612-.365 2.783-1.094 3.512-.728.728-1.9 1.093-3.51 1.093h-2.764v1.612h-4.144V15.6h-2.763c-1.612 0-2.783-.365-3.511-1.093-.729-.729-1.094-1.9-1.094-3.512V6.39c0-1.611.365-2.782 1.094-3.51.728-.73 1.9-1.094 3.51-1.094h2.764V.174h4.144v1.612h2.763c1.612 0 2.783.365 3.511 1.093.729.729 1.094 1.9 1.094 3.511v4.605Zm-14.736 0c0 .921.46 1.382 1.382 1.382h2.072V5.009H74.7c-.921 0-1.382.46-1.382 1.381v4.605ZM83.91 6.39c0-.92-.46-1.381-1.382-1.381h-2.072v7.368h2.072c.921 0 1.382-.46 1.382-1.382V6.39Z" fill="#fff"/><path d="M.36 20.086H89.28" stroke="#fff" stroke-width="1.738" stroke-miterlimit="10"/><path d="M1.524 23.46h1.501c.25 0 .43.058.544.17.113.113.17.295.17.545v.358c0 .25-.057.432-.17.545-.113.114-.294.171-.544.171h-.857v.715h-.644V23.46Zm1.573.715c0-.143-.072-.214-.215-.214h-.714v.786h.714c.143 0 .215-.071.215-.214v-.358ZM6.312 25.282c0 .25-.058.433-.17.546-.112.113-.293.17-.545.17h-.893c-.25 0-.43-.057-.544-.17-.113-.113-.169-.296-.169-.546V24.14c0-.25.056-.43.169-.546.113-.113.294-.169.544-.169h.893c.25 0 .433.058.546.169.113.113.169.296.169.546v1.143Zm-.643-1.143c0-.143-.072-.215-.215-.215h-.607c-.143 0-.215.072-.215.215v1.143c0 .143.072.214.215.214h.607c.143 0 .215-.07.215-.214V24.14ZM8.599 25.926c-.532.048-.973.072-1.323.072-.234 0-.405-.056-.514-.165-.109-.11-.164-.282-.164-.514v-1.144c0-.25.055-.43.168-.545.114-.113.294-.17.544-.17h1.287v.501H7.453c-.143 0-.214.072-.214.214v1.144c0 .055.016.099.048.13a.168.168 0 0 0 .123.048c.049 0 .105 0 .164-.002.06-.001.121-.001.187-.006.063-.002.129-.004.194-.008.066-.001.151-.007.254-.014l.388-.025v.484h.002ZM10.813 25.926a15.27 15.27 0 0 1-1.321.072c-.235 0-.405-.056-.515-.165-.109-.11-.165-.282-.165-.514v-1.144c0-.25.056-.43.17-.545.112-.113.293-.17.543-.17h1.286v.501H9.668c-.143 0-.214.072-.214.214v1.144c0 .055.016.099.047.13a.169.169 0 0 0 .123.048c.05 0 .105 0 .165-.002.06-.001.121-.001.187-.006.063-.002.129-.004.194-.008.066-.001.151-.007.254-.014l.387-.025v.484h.002ZM13.28 25.962h-.644v-1.537l-.857 1.537h-.68V23.46h.644v1.536l.857-1.536h.68v2.5ZM15.244 25.962v-1.537l-.857 1.537h-.679V23.46h.643v1.536l.857-1.536h.68v2.5h-.644Zm-.643-2.68c-.31 0-.464-.155-.464-.464v-.108h.464v.09a.122.122 0 0 0 .125.125h.107a.121.121 0 0 0 .125-.125v-.09h.465v.108c0 .31-.155.464-.465.464h-.357ZM18.245 25.926c-.532.048-.973.072-1.322.072-.234 0-.405-.056-.514-.165-.11-.11-.165-.282-.165-.514v-1.144c0-.25.056-.43.169-.545.113-.113.294-.17.544-.17h1.286v.501h-1.144c-.142 0-.214.072-.214.214v1.144c0 .055.016.099.048.13a.169.169 0 0 0 .123.048c.05 0 .105 0 .165-.002.06-.001.12-.001.186-.006.064-.002.13-.004.195-.008.065-.001.15-.007.254-.014l.387-.025v.484h.002ZM20.352 23.424c.06 0 .167.012.322.036v.482h-.143a.16.16 0 0 0-.097.034.239.239 0 0 0-.064.073l-.34.644.697 1.268h-.678l-.554-1.018h-.322v1.018h-.643V23.46h.643v.982h.322l.357-.678a.753.753 0 0 1 .195-.244.465.465 0 0 1 .305-.096ZM23.122 25.962h-.643v-1.537l-.858 1.537h-.679V23.46h.643v1.536l.858-1.536h.679v2.5ZM25.087 25.962v-1.537l-.857 1.537h-.68V23.46h.644v1.536l.858-1.536h.678v2.5h-.643Zm-.643-2.68c-.31 0-.464-.155-.464-.464v-.108h.464v.09a.12.12 0 0 0 .036.09.12.12 0 0 0 .089.035h.108a.12.12 0 0 0 .089-.036.12.12 0 0 0 .036-.09v-.089h.464v.108c0 .31-.155.464-.464.464h-.358ZM27.088 25.444c.582.036.974.053 1.18.053.055 0 .098-.016.13-.047a.177.177 0 0 0 .048-.131v-.34h-.951v-.5h.95v-.304c0-.143-.07-.214-.214-.214h-1.107v-.5h1.25c.25 0 .43.058.546.169.113.113.17.295.17.545v1.144c0 .234-.055.405-.164.514-.11.109-.282.165-.514.165-.357 0-.798-.024-1.322-.072v-.482h-.002ZM31.267 23.424c.06 0 .167.012.322.036v.482h-.143a.16.16 0 0 0-.097.034.239.239 0 0 0-.064.073l-.34.644.697 1.268h-.678l-.554-1.018h-.322v1.018h-.643V23.46h.643v.982h.322l.357-.678a.751.751 0 0 1 .195-.244.465.465 0 0 1 .305-.096ZM34.105 25.282c0 .25-.057.433-.168.546-.113.113-.296.17-.546.17h-.893c-.25 0-.433-.057-.546-.17-.113-.113-.17-.296-.17-.546V24.14c0-.25.057-.43.17-.546.113-.113.294-.169.546-.169h.893c.25 0 .43.058.546.169.113.113.169.296.169.546v1.143Zm-.643-1.143c0-.143-.071-.215-.214-.215h-.607c-.143 0-.215.072-.215.215v1.143c0 .143.072.214.215.214h.607c.143 0 .214-.07.214-.214V24.14ZM36.642 25.962H36v-1.018h-.893v1.018h-.643V23.46h.643v.983h.893v-.983h.643v2.5ZM39.322 25.282c0 .25-.057.433-.169.546-.113.113-.295.17-.545.17h-.893c-.25 0-.433-.057-.546-.17-.113-.113-.171-.296-.171-.546V24.14c0-.25.058-.43.17-.546.114-.113.295-.169.547-.169h.893c.25 0 .43.058.546.169.113.113.168.296.168.546v1.143Zm-.643-1.143c0-.143-.071-.215-.214-.215h-.608c-.142 0-.214.072-.214.215v1.143c0 .143.072.214.214.214h.608c.143 0 .214-.07.214-.214V24.14ZM41.823 24.569l-.5.893h-.5l-.5-.893v1.393h-.643V23.46h.678l.715 1.322.715-1.322h.678v2.5h-.643V24.57ZM45.075 25.962h-.643v-1.537l-.858 1.537h-.678V23.46h.643v1.536l.857-1.536h.679v2.5ZM46.95 25.14a9.827 9.827 0 0 1-.81.036c-.255 0-.435-.056-.547-.165-.109-.109-.164-.282-.164-.514v-1.036h.643v1.036c0 .056.015.1.047.131a.178.178 0 0 0 .131.048c.195 0 .427-.012.697-.036v-1.18h.643v2.502h-.643v-.822h.002ZM50.004 25.962h-1.982V23.46h1.982v.5h-1.34v.483h1.054v.5h-1.053v.518h1.34v.5ZM52.22 25.926c-.531.048-.972.072-1.322.072-.234 0-.405-.056-.514-.165-.109-.11-.164-.282-.164-.514v-1.144c0-.25.057-.43.17-.545.114-.113.294-.17.546-.17h1.286v.501H51.08c-.143 0-.214.072-.214.214v1.144c0 .055.016.099.047.13a.169.169 0 0 0 .123.048c.05 0 .106 0 .165-.002.06-.001.121-.001.187-.006.063-.002.129-.004.194-.008.066-.001.151-.007.254-.014l.387-.025v.484h-.002ZM54.328 23.424c.06 0 .167.012.322.036v.482h-.143a.16.16 0 0 0-.098.034.239.239 0 0 0-.063.073l-.34.644.697 1.268h-.679l-.553-1.018h-.322v1.018h-.643V23.46h.643v.982h.322l.357-.678a.758.758 0 0 1 .194-.244.47.47 0 0 1 .306-.096ZM57.097 25.962h-.643v-1.537l-.857 1.537h-.679V23.46h.643v1.536l.857-1.536h.68v2.5ZM59.061 25.962v-1.537l-.857 1.537h-.679V23.46h.643v1.536l.858-1.536h.679v2.5h-.644Zm-.643-2.68c-.31 0-.464-.155-.464-.464v-.108h.464v.09a.122.122 0 0 0 .125.125h.108a.121.121 0 0 0 .089-.036.12.12 0 0 0 .036-.09v-.089h.464v.108c0 .31-.154.464-.464.464h-.358ZM61.806 25.997c-.119 0-.242-.011-.367-.035v-.482h.322c.069 0 .116-.028.143-.082a.17.17 0 0 0 0-.15l-.983-1.787h.715l.643 1.268.535-1.268h.715l-.911 1.965c-.084.189-.183.33-.3.42-.13.102-.302.151-.512.151ZM65.85 25.962h-.643v-1.018h-.893v1.018h-.643V23.46h.643v.983h.893v-.983h.643v2.5ZM68.457 25.962h-.643v-1.537l-.857 1.537h-.679V23.46h.643v1.536l.858-1.536h.678v2.5ZM68.887 23.46h1.429c.234 0 .405.055.514.16.11.105.165.268.165.484a.597.597 0 0 1-.094.347.501.501 0 0 1-.228.187c.193.051.323.18.393.385a.828.828 0 0 1 .036.258c0 .234-.056.405-.165.514-.109.11-.282.165-.514.165h-1.536v-2.5Zm1.465.715c0-.143-.072-.214-.215-.214h-.607v.5h.607c.143 0 .215-.071.215-.214v-.072Zm.107 1c0-.142-.072-.213-.215-.213h-.714v.5h.714c.143 0 .215-.072.215-.215v-.071ZM73.406 25.962h-1.983V23.46h1.983v.5h-1.34v.483h1.054v.5h-1.054v.518h1.34v.5ZM73.692 23.46h1.5c.25 0 .432.058.547.17.113.113.17.295.17.545v.358c0 .25-.057.432-.17.545-.113.114-.294.171-.546.171h-.858v.715h-.643V23.46Zm1.572.715c0-.143-.071-.214-.214-.214h-.715v.786h.715c.143 0 .214-.071.214-.214v-.358ZM78.158 25.926c-.532.048-.972.072-1.322.072-.234 0-.405-.056-.514-.165-.11-.11-.165-.282-.165-.514v-1.144c0-.25.058-.43.171-.545.113-.113.294-.17.546-.17h1.286v.501h-1.143c-.143 0-.215.072-.215.214v1.144c0 .055.016.099.048.13a.168.168 0 0 0 .123.048c.05 0 .105 0 .165-.002.06-.001.12-.001.187-.006.063-.002.128-.004.194-.008.066-.001.15-.007.254-.014l.387-.025v.484h-.002ZM80.624 25.962h-.643v-1.537l-.858 1.537h-.679V23.46h.644v1.536l.857-1.536h.679v2.5ZM82.266 25.962h-.643V23.96h-.75v-.5h2.144v.5h-.75v2ZM85.25 25.962h-1.983V23.46h1.983v.5h-1.34v.483h1.054v.5H83.91v.518h1.34v.5ZM86.75 25.962h-.642V23.96h-.75v-.5H87.5v.5h-.75v2ZM5.695 32.294h-1.25v-2.988l-1.668 2.988h-1.32V27.43h1.25v2.987l1.668-2.987h1.32v4.863ZM10.696 29.584l-.972 1.737H8.75l-.972-1.737v2.71h-1.25V27.43h1.32L9.236 30l1.39-2.57h1.32v4.863h-1.25v-2.71ZM16.636 32.294H12.78V27.43h3.855v.972h-2.604v.94h2.05v.972h-2.05v1.008h2.604v.97ZM21.43 32.294h-1.252v-1.981h-1.736v1.98h-1.25v-4.862h1.25v1.91h1.736v-1.91h1.251v4.863ZM26.5 32.294h-1.25v-2.988l-1.668 2.988h-1.32V27.43h1.25v2.987l1.668-2.987h1.32v4.863ZM30.668 32.294h-1.251V27.43h3.787v.972h-2.536v3.89ZM33.482 31.251h1.251v1.042h-1.25v-1.042ZM35.356 27.43h2.779c.455 0 .788.104 1 .31.213.207.32.52.32.941 0 .278-.06.504-.18.677a.981.981 0 0 1-.445.365c.375.101.629.351.764.75.046.143.07.31.07.5 0 .455-.108.789-.32 1.001-.212.213-.546.32-1 .32h-2.988V27.43Zm2.85 1.39c0-.278-.138-.417-.416-.417h-1.181v.973h1.18c.279 0 .417-.14.417-.417v-.139Zm.209 1.945c0-.277-.139-.417-.417-.417h-1.39v.973h1.39c.278 0 .417-.139.417-.417v-.139ZM40.08 31.251h1.25v1.042h-1.25v-1.042ZM48.278 32.294h-1.25v-3.89H45.29v3.89h-1.25V27.43h4.238v4.863ZM50.251 32.074a.945.945 0 0 1-.703.288c-.277 0-.54-.024-.785-.07v-.938h.313c.088 0 .161-.03.219-.091a.336.336 0 0 0 .093-.223l.208-3.612h3.855v4.865H52.2v-3.89h-1.46l-.174 2.883c-.018.332-.125.596-.316.788ZM58.143 32.294h-3.855V27.43h3.857v.972h-2.606v.94h2.048v.972H55.54v1.008h2.604v.97ZM61.514 27.43h1.389l-1.564 2.432 1.598 2.432h-1.39l-.972-1.529-.973 1.529h-1.39l1.599-2.432-1.565-2.431h1.382l.945 1.528.94-1.528Z" fill="#fff"/><path d="M64.153 32.294H62.8l1.84-4.863h1.39l1.841 4.863h-1.356l-.313-.87h-1.737l-.312.87Zm.626-1.77h1.111l-.556-1.635-.555 1.634ZM72.454 32.294h-1.25v-1.981h-1.737v1.98h-1.251v-4.862h1.25v1.91h1.737v-1.91h1.25v4.863ZM77.664 30.974c0 .486-.11.84-.33 1.06-.22.22-.573.33-1.06.33h-1.736c-.486 0-.84-.11-1.06-.33-.22-.22-.33-.574-.33-1.06V28.75c0-.487.11-.84.33-1.06.22-.22.574-.33 1.06-.33h1.737c.486 0 .84.11 1.06.33.22.22.329.573.329 1.06v2.223Zm-1.25-2.223c0-.278-.14-.417-.417-.417h-1.181c-.278 0-.417.139-.417.417v2.223c0 .278.139.417.417.417h1.18c.279 0 .418-.14.418-.417V28.75ZM78.358 27.43h2.779c.454 0 .788.104 1 .31.213.207.32.52.32.941 0 .278-.06.504-.18.677a.979.979 0 0 1-.445.365c.375.101.629.351.764.75.045.143.07.31.07.5 0 .455-.108.789-.32 1.001-.212.213-.546.32-1 .32h-2.988V27.43Zm2.849 1.39c0-.278-.14-.417-.417-.417h-1.181v.973h1.18c.278 0 .418-.14.418-.417v-.139Zm.208 1.945c0-.277-.14-.417-.417-.417h-1.39v.973h1.39c.278 0 .417-.139.417-.417v-.139ZM84.16 32.294h-1.353l1.84-4.863h1.389l1.842 4.863h-1.356l-.313-.87h-1.737l-.312.87Zm.626-1.77h1.111l-.556-1.635-.555 1.634Z" fill="#fff"/></g></svg>