<svg width="884" height="277" viewBox="0 0 884 277" fill="none" xmlns="http://www.w3.org/2000/svg">
<path d="M234 71.9057L120.5 6.91404L6 72.4783V204.034L120.5 270.074L234 204.611V208H240.133L120.5 277L0 207.5V69L120.5 0L239.254 68H234V71.9057Z" fill="black"/>
<path d="M246 71C246 75.9706 241.971 80 237 80C232.029 80 228 75.9706 228 71C228 66.0294 232.029 62 237 62C241.971 62 246 66.0294 246 71Z" fill="black"/>
<path d="M246 206C246 210.971 241.971 215 237 215C232.029 215 228 210.971 228 206C228 201.029 232.029 197 237 197C241.971 197 246 201.029 246 206Z" fill="black"/>
<path d="M35.2804 93.8235L35.611 186.719L119.549 235.58L203.402 187.167L203.359 89.8695L122.785 43.3026L124.279 42.4402L119.77 34.6298L209.358 86.4063L209.404 190.63L119.537 242.515L29.6233 190.176L29.2583 87.6473L33.4382 94.887L35.2804 93.8235Z" fill="black"/>
<path d="M28.3753 81.1087C32.6799 78.6234 38.1842 80.0983 40.6695 84.4029C43.1548 88.7076 41.6799 94.2119 37.3753 96.6971C33.0706 99.1824 27.5663 97.7076 25.081 93.4029C22.5957 89.0983 24.0706 83.594 28.3753 81.1087Z" fill="black"/>
<path d="M115.972 30.535C120.276 28.0497 125.781 29.5246 128.266 33.8292C130.751 38.1338 129.276 43.6381 124.972 46.1234C120.667 48.6087 115.163 47.1338 112.677 42.8292C110.192 38.5246 111.667 33.0202 115.972 30.535Z" fill="black"/>
<path d="M119.51 76.9638L65.1197 108.625L64.8942 171.972L119.572 203.541L174.518 171.786L174.545 108.738L177.417 110.396L180.547 104.975L180.516 175.249L119.574 210.47L58.8819 175.429L59.132 105.168L118.634 70.5315L116.068 74.9762L119.51 76.9638Z" fill="black"/>
<path d="M123.293 64.6579C127.597 67.1432 129.072 72.6475 126.587 76.9522C124.102 81.2568 118.597 82.7317 114.293 80.2464C109.988 77.7611 108.513 72.2568 110.998 67.9522C113.484 63.6475 118.988 62.1727 123.293 64.6579Z" fill="black"/>
<path d="M182.451 98.813C186.756 101.298 188.231 106.803 185.745 111.107C183.26 115.412 177.756 116.887 173.451 114.401C169.146 111.916 167.672 106.412 170.157 102.107C172.642 97.8026 178.146 96.3277 182.451 98.813Z" fill="black"/>
<path d="M289.699 86.6364V81.3636H292.608C293.73 81.3636 294.669 81.1439 295.427 80.7045C296.199 80.2652 296.836 79.697 297.336 79C297.851 78.303 298.275 77.5758 298.608 76.8182L299.336 75.0909L283.245 39.4545H289.336L302.154 68.3636L313.881 39.4545H319.881L303.79 78.4545C303.154 79.9091 302.427 81.2576 301.608 82.5C300.805 83.7424 299.707 84.7424 298.313 85.5C296.934 86.2576 295.063 86.6364 292.699 86.6364H289.699ZM362 39.4545V86H356.364V44.4545H332.91V86H327.273V39.4545H362ZM373.37 86V39.4545H389.097C392.749 39.4545 395.733 40.1136 398.052 41.4318C400.385 42.7348 402.112 44.5 403.233 46.7273C404.355 48.9545 404.915 51.4394 404.915 54.1818C404.915 56.9242 404.355 59.4167 403.233 61.6591C402.127 63.9015 400.415 65.6894 398.097 67.0227C395.779 68.3409 392.809 69 389.188 69H377.915V64H389.006C391.506 64 393.514 63.5682 395.029 62.7045C396.544 61.8409 397.642 60.6742 398.324 59.2045C399.021 57.7197 399.37 56.0455 399.37 54.1818C399.37 52.3182 399.021 50.6515 398.324 49.1818C397.642 47.7121 396.536 46.5606 395.006 45.7273C393.476 44.8788 391.446 44.4545 388.915 44.4545H379.006V86H373.37ZM411.154 86H405.245L422.336 39.4545H428.154L445.245 86H439.336L425.427 46.8182H425.063L411.154 86ZM413.336 67.8182H437.154V72.8182H413.336V67.8182ZM452.495 86V39.4545H468.767C472.01 39.4545 474.684 40.0152 476.79 41.1364C478.896 42.2424 480.464 43.7348 481.495 45.6136C482.525 47.4773 483.04 49.5455 483.04 51.8182C483.04 53.8182 482.684 55.4697 481.972 56.7727C481.275 58.0758 480.351 59.1061 479.199 59.8636C478.063 60.6212 476.828 61.1818 475.495 61.5455V62C476.919 62.0909 478.351 62.5909 479.79 63.5C481.23 64.4091 482.434 65.7121 483.404 67.4091C484.374 69.1061 484.858 71.1818 484.858 73.6364C484.858 75.9697 484.328 78.0682 483.267 79.9318C482.207 81.7955 480.533 83.2727 478.245 84.3636C475.957 85.4545 472.98 86 469.313 86H452.495ZM458.131 81H469.313C472.995 81 475.608 80.2879 477.154 78.8636C478.714 77.4242 479.495 75.6818 479.495 73.6364C479.495 72.0606 479.093 70.6061 478.29 69.2727C477.487 67.9242 476.343 66.8485 474.858 66.0455C473.374 65.2273 471.616 64.8182 469.586 64.8182H458.131V81ZM458.131 59.9091H468.586C470.283 59.9091 471.813 59.5758 473.177 58.9091C474.555 58.2424 475.646 57.303 476.449 56.0909C477.267 54.8788 477.677 53.4545 477.677 51.8182C477.677 49.7727 476.964 48.0379 475.54 46.6136C474.116 45.1742 471.858 44.4545 468.767 44.4545H458.131V59.9091ZM490.12 86V80.8182H491.483C493.423 80.8182 494.93 80.197 496.006 78.9545C497.082 77.7121 497.855 75.7045 498.324 72.9318C498.809 70.1591 499.135 66.4848 499.302 61.9091L500.12 39.4545H528.483V86H522.847V44.4545H505.483L504.756 63C504.574 67.8788 504.127 72.0303 503.415 75.4545C502.703 78.8788 501.453 81.4924 499.665 83.2955C497.877 85.0985 495.271 86 491.847 86H490.12ZM539.745 86V39.4545H567.836V44.4545H545.381V60.1818H566.381V65.1818H545.381V81H568.199V86H539.745ZM577.995 86V39.4545H583.631V60.1818H608.449V39.4545H614.086V86H608.449V65.1818H583.631V86H577.995ZM625.37 39.4545H630.915V76.0909H631.37L656.824 39.4545H662.279V86H656.642V49.4545H656.188L630.824 86H625.37V39.4545ZM673.557 86V39.4545H701.648V44.4545H679.194V60.1818H700.194V65.1818H679.194V81H702.012V86H673.557ZM326.79 153.636L326.154 170H320.336V159H317.063V153.636H326.79ZM287.245 159V112.455H292.608V153.818H316.608V112.455H321.972V159H287.245ZM335.307 112.455H340.853V149.091H341.307L366.762 112.455H372.216V159H366.58V122.455H366.125L340.762 159H335.307V112.455ZM399.495 118H406.858C410.313 118 413.381 118.773 416.063 120.318C418.745 121.864 420.851 124.015 422.381 126.773C423.911 129.53 424.677 132.727 424.677 136.364C424.677 140 423.911 143.205 422.381 145.977C420.851 148.75 418.745 150.917 416.063 152.477C413.381 154.038 410.313 154.818 406.858 154.818H399.495C396.04 154.818 392.972 154.045 390.29 152.5C387.608 150.955 385.502 148.803 383.972 146.045C382.442 143.288 381.677 140.091 381.677 136.455C381.677 132.818 382.442 129.614 383.972 126.841C385.502 124.068 387.608 121.902 390.29 120.341C392.972 118.78 396.04 118 399.495 118ZM399.495 123C396.858 123 394.631 123.553 392.813 124.659C391.01 125.765 389.639 127.326 388.699 129.341C387.775 131.356 387.313 133.727 387.313 136.455C387.313 139.152 387.775 141.5 388.699 143.5C389.639 145.5 391.01 147.053 392.813 148.159C394.631 149.265 396.858 149.818 399.495 149.818H406.858C409.495 149.818 411.714 149.265 413.517 148.159C415.336 147.053 416.707 145.492 417.631 143.477C418.571 141.462 419.04 139.091 419.04 136.364C419.04 133.667 418.571 131.318 417.631 129.318C416.707 127.318 415.336 125.765 413.517 124.659C411.714 123.553 409.495 123 406.858 123H399.495ZM406.04 111.636V160.909H400.404V111.636H406.04ZM434.12 159V112.455H449.847C453.499 112.455 456.483 113.114 458.802 114.432C461.135 115.735 462.862 117.5 463.983 119.727C465.105 121.955 465.665 124.439 465.665 127.182C465.665 129.924 465.105 132.417 463.983 134.659C462.877 136.902 461.165 138.689 458.847 140.023C456.529 141.341 453.559 142 449.938 142H438.665V137H449.756C452.256 137 454.264 136.568 455.779 135.705C457.294 134.841 458.392 133.674 459.074 132.205C459.771 130.72 460.12 129.045 460.12 127.182C460.12 125.318 459.771 123.652 459.074 122.182C458.392 120.712 457.286 119.561 455.756 118.727C454.226 117.879 452.196 117.455 449.665 117.455H439.756V159H434.12ZM514.017 135.727C514.017 140.636 513.131 144.879 511.358 148.455C509.586 152.03 507.154 154.788 504.063 156.727C500.972 158.667 497.442 159.636 493.472 159.636C489.502 159.636 485.972 158.667 482.881 156.727C479.79 154.788 477.358 152.03 475.586 148.455C473.813 144.879 472.927 140.636 472.927 135.727C472.927 130.818 473.813 126.576 475.586 123C477.358 119.424 479.79 116.667 482.881 114.727C485.972 112.788 489.502 111.818 493.472 111.818C497.442 111.818 500.972 112.788 504.063 114.727C507.154 116.667 509.586 119.424 511.358 123C513.131 126.576 514.017 130.818 514.017 135.727ZM508.563 135.727C508.563 131.697 507.889 128.295 506.54 125.523C505.207 122.75 503.396 120.652 501.108 119.227C498.836 117.803 496.29 117.091 493.472 117.091C490.654 117.091 488.101 117.803 485.813 119.227C483.54 120.652 481.73 122.75 480.381 125.523C479.048 128.295 478.381 131.697 478.381 135.727C478.381 139.758 479.048 143.159 480.381 145.932C481.73 148.705 483.54 150.803 485.813 152.227C488.101 153.652 490.654 154.364 493.472 154.364C496.29 154.364 498.836 153.652 501.108 152.227C503.396 150.803 505.207 148.705 506.54 145.932C507.889 143.159 508.563 139.758 508.563 135.727ZM523.495 159V112.455H539.767C543.01 112.455 545.684 113.015 547.79 114.136C549.896 115.242 551.464 116.735 552.495 118.614C553.525 120.477 554.04 122.545 554.04 124.818C554.04 126.818 553.684 128.47 552.972 129.773C552.275 131.076 551.351 132.106 550.199 132.864C549.063 133.621 547.828 134.182 546.495 134.545V135C547.919 135.091 549.351 135.591 550.79 136.5C552.23 137.409 553.434 138.712 554.404 140.409C555.374 142.106 555.858 144.182 555.858 146.636C555.858 148.97 555.328 151.068 554.267 152.932C553.207 154.795 551.533 156.273 549.245 157.364C546.957 158.455 543.98 159 540.313 159H523.495ZM529.131 154H540.313C543.995 154 546.608 153.288 548.154 151.864C549.714 150.424 550.495 148.682 550.495 146.636C550.495 145.061 550.093 143.606 549.29 142.273C548.487 140.924 547.343 139.848 545.858 139.045C544.374 138.227 542.616 137.818 540.586 137.818H529.131V154ZM529.131 132.909H539.586C541.283 132.909 542.813 132.576 544.177 131.909C545.555 131.242 546.646 130.303 547.449 129.091C548.267 127.879 548.677 126.455 548.677 124.818C548.677 122.773 547.964 121.038 546.54 119.614C545.116 118.174 542.858 117.455 539.767 117.455H529.131V132.909ZM604.392 135.727C604.392 140.636 603.506 144.879 601.733 148.455C599.961 152.03 597.529 154.788 594.438 156.727C591.347 158.667 587.817 159.636 583.847 159.636C579.877 159.636 576.347 158.667 573.256 156.727C570.165 154.788 567.733 152.03 565.961 148.455C564.188 144.879 563.302 140.636 563.302 135.727C563.302 130.818 564.188 126.576 565.961 123C567.733 119.424 570.165 116.667 573.256 114.727C576.347 112.788 579.877 111.818 583.847 111.818C587.817 111.818 591.347 112.788 594.438 114.727C597.529 116.667 599.961 119.424 601.733 123C603.506 126.576 604.392 130.818 604.392 135.727ZM598.938 135.727C598.938 131.697 598.264 128.295 596.915 125.523C595.582 122.75 593.771 120.652 591.483 119.227C589.211 117.803 586.665 117.091 583.847 117.091C581.029 117.091 578.476 117.803 576.188 119.227C573.915 120.652 572.105 122.75 570.756 125.523C569.423 128.295 568.756 131.697 568.756 135.727C568.756 139.758 569.423 143.159 570.756 145.932C572.105 148.705 573.915 150.803 576.188 152.227C578.476 153.652 581.029 154.364 583.847 154.364C586.665 154.364 589.211 153.652 591.483 152.227C593.771 150.803 595.582 148.705 596.915 145.932C598.264 143.159 598.938 139.758 598.938 135.727ZM613.87 112.455H619.415V149.091H619.87L645.324 112.455H650.779V159H645.142V122.455H644.688L619.324 159H613.87V112.455ZM636.779 100.818H641.779C641.779 103.273 640.93 105.28 639.233 106.841C637.536 108.402 635.233 109.182 632.324 109.182C629.461 109.182 627.18 108.402 625.483 106.841C623.802 105.28 622.961 103.273 622.961 100.818H627.961C627.961 102 628.286 103.038 628.938 103.932C629.605 104.826 630.733 105.273 632.324 105.273C633.915 105.273 635.052 104.826 635.733 103.932C636.43 103.038 636.779 102 636.779 100.818ZM284.699 190.455V185.455H319.608V190.455H304.972V232H299.336V190.455H284.699ZM328.307 232V185.455H344.035C347.686 185.455 350.671 186.114 352.989 187.432C355.322 188.735 357.05 190.5 358.171 192.727C359.292 194.955 359.853 197.439 359.853 200.182C359.853 202.924 359.292 205.417 358.171 207.659C357.065 209.902 355.353 211.689 353.035 213.023C350.716 214.341 347.747 215 344.125 215H332.853V210H343.944C346.444 210 348.451 209.568 349.966 208.705C351.482 207.841 352.58 206.674 353.262 205.205C353.959 203.72 354.307 202.045 354.307 200.182C354.307 198.318 353.959 196.652 353.262 195.182C352.58 193.712 351.474 192.561 349.944 191.727C348.413 190.879 346.383 190.455 343.853 190.455H333.944V232H328.307ZM366.091 232H360.182L377.273 185.455H383.091L400.182 232H394.273L380.364 192.818H380L366.091 232ZM368.273 213.818H392.091V218.818H368.273V213.818ZM407.432 232V185.455H413.069V206.182H437.887V185.455H443.523V232H437.887V211.182H413.069V232H407.432ZM492.262 200H486.625C486.292 198.379 485.709 196.955 484.875 195.727C484.057 194.5 483.057 193.47 481.875 192.636C480.709 191.788 479.413 191.152 477.989 190.727C476.565 190.303 475.08 190.091 473.535 190.091C470.716 190.091 468.163 190.803 465.875 192.227C463.603 193.652 461.792 195.75 460.444 198.523C459.11 201.295 458.444 204.697 458.444 208.727C458.444 212.758 459.11 216.159 460.444 218.932C461.792 221.705 463.603 223.803 465.875 225.227C468.163 226.652 470.716 227.364 473.535 227.364C475.08 227.364 476.565 227.152 477.989 226.727C479.413 226.303 480.709 225.674 481.875 224.841C483.057 223.992 484.057 222.955 484.875 221.727C485.709 220.485 486.292 219.061 486.625 217.455H492.262C491.838 219.833 491.065 221.962 489.944 223.841C488.822 225.72 487.428 227.318 485.762 228.636C484.095 229.939 482.224 230.932 480.148 231.614C478.088 232.295 475.883 232.636 473.535 232.636C469.565 232.636 466.035 231.667 462.944 229.727C459.853 227.788 457.421 225.03 455.648 221.455C453.875 217.879 452.989 213.636 452.989 208.727C452.989 203.818 453.875 199.576 455.648 196C457.421 192.424 459.853 189.667 462.944 187.727C466.035 185.788 469.565 184.818 473.535 184.818C475.883 184.818 478.088 185.159 480.148 185.841C482.224 186.523 484.095 187.523 485.762 188.841C487.428 190.144 488.822 191.735 489.944 193.614C491.065 195.477 491.838 197.606 492.262 200ZM517.37 191H524.733C528.188 191 531.256 191.773 533.938 193.318C536.62 194.864 538.726 197.015 540.256 199.773C541.786 202.53 542.552 205.727 542.552 209.364C542.552 213 541.786 216.205 540.256 218.977C538.726 221.75 536.62 223.917 533.938 225.477C531.256 227.038 528.188 227.818 524.733 227.818H517.37C513.915 227.818 510.847 227.045 508.165 225.5C505.483 223.955 503.377 221.803 501.847 219.045C500.317 216.288 499.552 213.091 499.552 209.455C499.552 205.818 500.317 202.614 501.847 199.841C503.377 197.068 505.483 194.902 508.165 193.341C510.847 191.78 513.915 191 517.37 191ZM517.37 196C514.733 196 512.506 196.553 510.688 197.659C508.885 198.765 507.514 200.326 506.574 202.341C505.65 204.356 505.188 206.727 505.188 209.455C505.188 212.152 505.65 214.5 506.574 216.5C507.514 218.5 508.885 220.053 510.688 221.159C512.506 222.265 514.733 222.818 517.37 222.818H524.733C527.37 222.818 529.589 222.265 531.392 221.159C533.211 220.053 534.582 218.492 535.506 216.477C536.446 214.462 536.915 212.091 536.915 209.364C536.915 206.667 536.446 204.318 535.506 202.318C534.582 200.318 533.211 198.765 531.392 197.659C529.589 196.553 527.37 196 524.733 196H517.37ZM523.915 184.636V233.909H518.279V184.636H523.915ZM591.267 208.727C591.267 213.636 590.381 217.879 588.608 221.455C586.836 225.03 584.404 227.788 581.313 229.727C578.222 231.667 574.692 232.636 570.722 232.636C566.752 232.636 563.222 231.667 560.131 229.727C557.04 227.788 554.608 225.03 552.836 221.455C551.063 217.879 550.177 213.636 550.177 208.727C550.177 203.818 551.063 199.576 552.836 196C554.608 192.424 557.04 189.667 560.131 187.727C563.222 185.788 566.752 184.818 570.722 184.818C574.692 184.818 578.222 185.788 581.313 187.727C584.404 189.667 586.836 192.424 588.608 196C590.381 199.576 591.267 203.818 591.267 208.727ZM585.813 208.727C585.813 204.697 585.139 201.295 583.79 198.523C582.457 195.75 580.646 193.652 578.358 192.227C576.086 190.803 573.54 190.091 570.722 190.091C567.904 190.091 565.351 190.803 563.063 192.227C560.79 193.652 558.98 195.75 557.631 198.523C556.298 201.295 555.631 204.697 555.631 208.727C555.631 212.758 556.298 216.159 557.631 218.932C558.98 221.705 560.79 223.803 563.063 225.227C565.351 226.652 567.904 227.364 570.722 227.364C573.54 227.364 576.086 226.652 578.358 225.227C580.646 223.803 582.457 221.705 583.79 218.932C585.139 216.159 585.813 212.758 585.813 208.727ZM600.745 232V185.455H616.472C620.124 185.455 623.108 186.114 625.427 187.432C627.76 188.735 629.487 190.5 630.608 192.727C631.73 194.955 632.29 197.439 632.29 200.182C632.29 202.924 631.73 205.417 630.608 207.659C629.502 209.902 627.79 211.689 625.472 213.023C623.154 214.341 620.184 215 616.563 215H605.29V210H616.381C618.881 210 620.889 209.568 622.404 208.705C623.919 207.841 625.017 206.674 625.699 205.205C626.396 203.72 626.745 202.045 626.745 200.182C626.745 198.318 626.396 196.652 625.699 195.182C625.017 193.712 623.911 192.561 622.381 191.727C620.851 190.879 618.821 190.455 616.29 190.455H606.381V232H600.745ZM641.37 185.455H648.097L663.915 224.091H664.461L680.279 185.455H687.006V232H681.733V196.636H681.279L666.733 232H661.642L647.097 196.636H646.642V232H641.37V185.455ZM700.216 232H694.307L711.398 185.455H717.216L734.307 232H728.398L714.489 192.818H714.125L700.216 232ZM702.398 213.818H726.216V218.818H702.398V213.818ZM781.103 226.636L780.466 243H774.648V232H771.375V226.636H781.103ZM741.557 232V185.455H746.921V226.818H770.921V185.455H776.285V232H741.557ZM789.62 185.455H795.165V222.091H795.62L821.074 185.455H826.529V232H820.892V195.455H820.438L795.074 232H789.62V185.455ZM837.807 185.455H843.353V222.091H843.807L869.262 185.455H874.716V232H869.08V195.455H868.625L843.262 232H837.807V185.455Z" fill="black"/>
</svg>
