<svg xmlns="http://www.w3.org/2000/svg" width="130" height="49" fill="none"><g clip-path="url(#a)" fill="#fff"><path d="M5.388 10.108h20.964l-1.062 6.184H12.085l-.906 5.19h10.64l-1.063 6.177h-10.69L8.18 38.357H.42l4.968-28.248ZM29.07 10.108h7.765l-4.968 28.249h-7.765l4.967-28.248ZM39.552 10.108h20.965l-1.063 6.184H46.249l-.906 5.19h10.64L54.92 27.66H44.23l-1.886 10.698h-7.76l4.968-28.248ZM67.055 10.07h8.71l4.533 28.287H72.57l-.629-4.95h-9.734l-2.364 4.95h-7.49L67.055 10.07Zm4.138 17.431L69.89 17.322h-.157l-4.729 10.18h6.188ZM85.323 34.026l9.433-9.028c2.075-2.01 5.388-5.058 5.388-7.707 0-1.486-1.112-2.207-2.47-2.207-2.516 0-3.145 2.13-3.434 4.135h-7.08c.037-.12.238-1.448.276-1.568 1.075-5.778 5.987-8.301 11.652-8.301 4.471 0 8.584 1.802 8.584 6.86 0 5.614-5.71 9.951-9.502 13.359l-2.691 2.409-.038.202h9.854l-1.076 6.177H84.563l.76-4.331ZM107.314 32.382a11.64 11.64 0 0 1 .314-2.649h7.025c-.074.397-.128.799-.159 1.201 0 1.644 1.799 2.049 3.113 2.049a3.547 3.547 0 0 0 2.494-1.117 3.584 3.584 0 0 0 .977-2.563c0-1.896-1.885-2.687-3.552-2.687h-1.352l.874-5.096h1.598c2.111.12 4.149-1.087 4.149-3.793 0-1.524-.999-2.327-2.434-2.327-2.276 0-3.27 1.006-3.634 3.092h-6.86l.157-.923c.955-5.69 5.949-8.308 11.375-8.308 4.188 0 8.703 1.897 8.703 6.822 0 3.528-1.836 6.538-5.269 7.587l-.044.202a5.184 5.184 0 0 1 2.968 1.873 5.23 5.23 0 0 1 1.106 3.343c0 6.664-7.023 9.87-12.495 9.75-4.269-.051-9.054-1.316-9.054-6.456Z"/></g><defs><clipPath id="a"><path fill="#fff" d="M0 0h130v49H0z"/></clipPath></defs></svg>