<svg xmlns="http://www.w3.org/2000/svg" width="112" height="112" fill="none"><path d="M28.45 37.797a33.037 33.037 0 0 0 .172 36.663M74.203 28.45a33.035 33.035 0 0 0-36.9.335M83.55 74.203a33.035 33.035 0 0 0-.334-36.9M37.797 83.549a33.036 33.036 0 0 0 36.663-.172M56 5.833 43.58 25.4M56 5.833l11.008 19.03M56 5.833v17.15M24.864 24.864l12.437 3.918.973 9.492-9.83-.481-3.58-12.929ZM24.863 24.864l13.41 13.41M87.136 24.864l-3.918 12.437-9.492.973.48-9.83 12.93-3.58ZM87.137 24.864l-13.41 13.41M87.136 87.136l-12.437-3.918-.973-9.492 9.83.481 3.58 12.929ZM87.137 87.136l-13.41-13.41M24.864 87.136l3.918-12.437 9.492-.973-.48 9.83-12.93 3.58ZM24.863 87.136l13.41-13.41M106.167 56 86.6 43.58M106.167 56l-19.03 11.008M106.167 56h-17.15M56 106.167 68.42 86.6M56 106.167l-11.008-19.03M56 106.167v-17.15M5.833 56 25.4 68.42" stroke="#fff" stroke-width="4" stroke-linecap="round" stroke-linejoin="round"/><path d="m5.833 56 2.333-1.349 16.698-9.66M5.833 56h17.15M56 81.055c13.837 0 25.055-11.218 25.055-25.055S69.837 30.945 56 30.945 30.945 42.163 30.945 56 42.163 81.055 56 81.055Z" stroke="#fff" stroke-width="4" stroke-linecap="round" stroke-linejoin="round"/><path d="M54.482 54.743c1.146 1.488.849 5.208-3.417 4.91-4.267-.297-6.25-5.323-6.25-8.242a10.952 10.952 0 0 1 11.16-9.566c8.036-.297 11.211 9.077 11.211 14.287 0 5.209-6.3 15.08-20.586 13.938" stroke="#fff" stroke-width="5" stroke-linecap="round" stroke-linejoin="round"/><path d="M57.496 103.81a47.837 47.837 0 0 0 46.318-46.449M8.19 57.496a47.835 47.835 0 0 0 46.46 46.319M54.504 8.19A47.835 47.835 0 0 0 8.185 54.65M103.81 54.52A47.836 47.836 0 0 0 57.361 8.185" stroke="#fff" stroke-width="4" stroke-linecap="round" stroke-linejoin="round"/></svg>