<svg xmlns="http://www.w3.org/2000/svg" width="98" height="81" fill="none"><g clip-path="url(#a)"><path d="m75.069 30.164-1.585-3.222-3.224 1.582-1.585-3.222-3.303 1.554-1.585-3.222-3.224 1.582-1.585-3.222-3.224 1.582-1.585-3.222-3.223 1.582-1.585-3.222-3.224 1.582-1.585-3.222-3.224 1.582-1.585-3.222-3.223 1.582-1.585-3.222-3.304 1.554-1.585-3.222-3.224 1.582-1.585-3.222-3.223 1.582-1.585-3.222-3.224 1.582L45.762 68.61l3.251-1.662-1.585-3.221 3.223-1.582-1.585-3.222 3.224-1.582-1.585-3.222 6.447-3.164 3.25 6.471 3.224-1.581 3.17 6.444 3.223-1.582 3.17 6.444 3.224-1.582 1.585 3.222 6.447-3.164-1.585-3.222 3.224-1.582-3.17-6.444-3.224 1.582-3.17-6.444-3.224 1.582-3.17-6.444-3.223 1.582-3.17-6.444 16.145-7.989-1.585-3.222-3.224 1.582Z" fill="#46247D"/><path d="m67.01 22.052-1.585-3.221-3.223 1.581-1.585-3.222-3.224 1.582-1.585-3.222-3.223 1.582-1.586-3.222-3.223 1.582-1.585-3.222-3.224 1.582-1.585-3.222-3.223 1.582-1.585-3.222-3.224 1.582-1.665-3.25-3.224 1.582-1.585-3.222-3.223 1.582 22.244 45.215 3.223-1.582-1.585-3.222 3.224-1.582-1.585-3.222 3.223-1.582-1.585-3.222 3.224-1.581 3.17 6.444 3.223-1.582 3.25 6.47 3.224-1.58 3.17 6.443 3.224-1.582 3.17 6.444 6.447-3.164-3.17-6.444-3.224 1.582-3.17-6.444-3.223 1.582-3.17-6.444-3.224 1.582-4.808-9.773 12.974-6.3-1.585-3.222-3.303 1.554Z" fill="url(#b)"/><path d="M44.311 49.257 23.653 7.264l3.223-1.582-1.585-3.222-3.224 1.582L20.482.82 17.26 2.402l28.584 58.102 3.224-1.581-1.585-3.222 3.223-1.582-1.585-3.222-3.223 1.582-1.586-3.222Z" fill="#46247D"/><path d="m49.12 50.897 3.224-1.582-1.585-3.222-3.224 1.582 1.585 3.222ZM54.035 36.486l-3.223 1.581 1.585 3.222-3.224 1.582 1.585 3.222 6.447-3.164-3.17-6.443Z" fill="#46247D"/><path d="m60.429 41.348-3.224 1.581 3.25 6.472 3.224-1.582-3.25-6.471ZM66.903 46.237 63.68 47.82l3.17 6.444 3.224-1.582-3.17-6.444Z" fill="#46247D"/><path d="m73.297 51.1-3.224 1.581 3.17 6.444 3.224-1.582-3.17-6.444ZM75.122 22.138l-1.585-3.222-3.223 1.582 1.585 3.222-12.975 6.3 4.809 9.773 3.223-1.582-3.223-6.551 16.198-7.882-1.585-3.222-3.224 1.582Z" fill="#46247D"/><path d="m70.126 44.655 3.224-1.582-3.17-6.444-3.224 1.582 3.17 6.444ZM76.52 49.517l3.223-1.582-3.17-6.443-3.223 1.581 3.17 6.444ZM82.914 54.38l3.224-1.582-3.17-6.444-3.224 1.582 3.17 6.444ZM76.467 57.543l1.585 3.222 6.447-3.163-1.585-3.222-6.447 3.163ZM31.685 7.322 30.1 4.1l-3.224 1.582 1.585 3.222 3.224-1.582ZM36.573 8.99l-1.665-3.25-3.223 1.582 1.665 3.25 3.223-1.582ZM41.382 10.63l-1.585-3.222-3.223 1.582 1.585 3.222 3.223-1.582Z" fill="#46247D"/><path d="m46.19 12.27-1.584-3.222-3.224 1.582 1.585 3.222 3.224-1.582Z" fill="#46247D"/><path d="m51 13.91-1.586-3.222-3.224 1.582 1.586 3.222 3.223-1.582Z" fill="#46247D"/><path d="m55.808 15.55-1.585-3.222-3.224 1.582 1.585 3.222 3.224-1.582ZM60.616 17.19l-1.585-3.222-3.223 1.582 1.585 3.222 3.223-1.582ZM65.425 18.83 63.84 15.61l-3.224 1.581 1.585 3.222 3.224-1.581Z" fill="#46247D"/><path d="m70.314 20.498-1.665-3.25-3.224 1.582 1.585 3.222 3.304-1.554Z" fill="#46247D"/></g><defs><linearGradient id="b" x1="76.234" y1="55.871" x2="49.963" y2="27.767" gradientUnits="userSpaceOnUse"><stop stop-color="#DDF6FB"/><stop offset="1" stop-color="#FFECF6"/></linearGradient><clipPath id="a"><path fill="#fff" transform="rotate(18.833 9.039 54.502)" d="M0 0h84v56H0z"/></clipPath></defs></svg>