<svg xmlns="http://www.w3.org/2000/svg" width="66" height="75" fill="none"><path d="M51.802 55.938c-.23 0-.383.156-.383.39s.153.39.383.39.384-.156.384-.39c0-.156-.153-.39-.384-.39ZM53.107 59.766c0 .234.153.39.384.39.23 0 .383-.156.383-.39 0-.235-.153-.391-.383-.391s-.384.156-.384.39ZM51.802 59.375c-.23 0-.383.156-.383.39 0 .235.153.391.383.391s.384-.156.384-.39c0-.235-.153-.391-.384-.391ZM54.795 59.766c0 .234.154.39.384.39s.384-.156.384-.39c0-.235-.154-.391-.384-.391s-.384.156-.384.39ZM51.265 52.11l.077 1.015-.844-.078v1.094l.844-.157L51.265 55h1.074l-.076-1.016.844.157v-1.094l-.844.078.076-1.016h-1.074ZM52.493 55.625v3.516h3.3c-.23-1.797-1.612-3.203-3.3-3.516ZM51.802 57.656c-.23 0-.383.157-.383.39 0 .235.153.392.383.392s.384-.157.384-.391-.153-.39-.384-.39ZM53.184 62.11c-.077 0-.384.859-.077 1.484.153.312.46.468.767.39.307-.078.384-.39.384-.547-.077-.703-.614-1.328-1.074-1.328ZM50.421 62.11c-.46 0-.998.624-.998 1.328 0 .234.077.468.384.546.307.078.614-.078.767-.39.154-.625-.076-1.485-.153-1.485ZM51.802 61.64c-.307 0-1.227 1.797-.537 2.657a.691.691 0 0 0 .537.234c.23 0 .46-.078.538-.234.614-.86-.23-2.656-.538-2.656Z" fill="#fff"/><path d="M47.735 59.766c0-.391.077-.703.077-.703h3.3v-3.516a4.238 4.238 0 0 0-3.3 3.203c-.077.156-.384.234-.614.156-1.228-.156-3.684-.625-3.684-1.172 0-.78.537-1.093.998-1.093.69 0 1.458.39 2.072-.547-2.226.078-.538-3.203-2.38-3.828.077.859 0 2.343-.306 3.125 0 0-.691-.703-1.382-1.016.077.625-.076 1.875-.307 2.5 0 0-.767-.781-1.611-1.016.767 1.094.767 2.735.537 3.672-.077.313.153.625.69.625.921-.078 3.991.078 5.296.625.384.157.767.39.92.703.154.391.461 1.016.922 1.328.23-.703.997-1.484 1.535-1.406.153 0 .307.313.383.547.077-.234.46-.937.845-.937.383 0 .767.547.92 1.015.077-.312.23-.625.384-.625.537 0 1.228.469 1.458 1.328.23-.234 1.151-1.484 1.228-2.343h-7.981v-.625Z" fill="#fff"/><path d="M49.73 59.766c0 .234.154.39.384.39s.384-.156.384-.39c0-.235-.154-.391-.384-.391s-.384.156-.384.39ZM48.119 59.766c0 .234.153.39.383.39s.384-.156.384-.39c0-.235-.153-.391-.384-.391-.23 0-.383.156-.383.39ZM16.347 61.484c-.154.157-.46 1.016-.307 1.563.076.234.153.312.383.312s.307-.156.384-.39c.077-.547-.307-1.407-.46-1.485ZM19.186 63.906c-.153.235-.384.313-.46.39.076.079.307.235.537.235a.58.58 0 0 0 .383-.156c.23-.469 0-.86-.076-1.016-.077.157-.154.391-.384.547ZM18.111 62.813c.308-.313.384-.547.308-.704-.077-.234-.768-.937-1.535-1.797 0 .157-.077.313-.077.47.537.78.767 1.562.614 2.265.077.078.077.078.153.078.154.156.384-.078.537-.313ZM19.186 62.89c0-.156 0-.234-.077-.312h-.077c-.076 0-.153.156-.23.234-.076.079-.153.235-.307.391l-.383.39c-.154.079-.23.235-.23.313v.078c.076.078.076.078.153.078s.307-.078.69-.468c.384-.39.461-.547.461-.703ZM14.121 58.75s-.077.078-.154.234c.154 0 .384 0 .538.078v-.546c-.154 0-.307.156-.384.234Z" fill="#fff"/><path d="M16.193 58.984s1.611 1.407 2.149 1.953c.153.157.307.157.46.079.077-.078.23-.078.384-.157 1.612-.547 4.22-.625 5.142-.625.614 0 .767-.312.69-.625-.153-.937-.23-2.578.538-3.672-.845.313-1.612 1.016-1.612 1.016-.307-.547-.384-1.875-.307-2.5-.767.234-1.381 1.016-1.381 1.016-.307-.782-.384-2.266-.307-3.125-1.842.625-.154 3.984-2.38 3.828.615.937 1.382.547 2.073.547.46 0 1.074.312.997 1.093-.076.547-3.07 1.172-4.297 1.172-.844 0-1.458-.234-1.842-.859-.23-.313-.384-.39-.614-.39-.307.078-.614.312-.614 1.093 0 .469.23 1.563.767 1.563.307.078.307-.86.154-1.407ZM13.123 58.516h.23c-.23.312-.23.547-.153.625.153.156.23-.157.614-.547s.614-.547.537-.703c-.077-.078-.307-.078-.614.156 0-.078.077-.156 0-.234-.153-.391-.69-.86-1.074-.86h-.154c.154-.234.077-.39 0-.547-.077-.078-.153 0-.307.157 0-.079 0-.235-.076-.391-.461-.781-3.07-3.281-3.684-3.516-.384-.156-.46.078-.46.078s-.23.157-.077.47c.23.624 2.762 3.202 3.453 3.671.153.078.307.156.384.078-.154.156-.23.156-.077.313.077.078.23.156.46 0v.156c.154.312.614.937.998 1.094ZM14.965 60.39c0-.234-.46-.703-1.074-.703-.844 0-1.228.547-1.228.86 0 .547.537.625.69.625.538 0 1.535-.625 1.612-.781ZM14.198 61.719c-.23.312-.307.625-.23.86.076.312.383.468.69.468.307 0 .614-.156.768-.39.307-.548.307-1.72.23-1.798-.307 0-1.075.313-1.458.86ZM6.677 49.531c-.23-.234-.768.157-1.075-.078.154-.781.691 0 1.152-.469.23-.234.076-.547 0-.625-.23.235-.538.157-.614 0 .537-1.406-.538-2.89-1.612-2.734.23.313.307 1.328.154 1.563.383.312.153 1.015-.307.78-.307-.156-.845-.937-.23-1.406 0-.234-.384-.234-.691.235.23-.86-1.382-.625-1.689-.39-.153.39-.383 2.03.46 1.718-.46.39-.383.781-.23.781.538-.625 1.228-.156 1.382.157.23.468-.46.78-.768.39-.23.078-1.227.078-1.458-.156-.153 1.094 1.382 2.266 2.686 1.64.154 0 .23.391 0 .626.077.156.46.234.614 0 .537-.547-.23-1.094.46-1.25.154.312-.153.859.077 1.093.384.39.845-.39 1.382-.39 0-.625.69-1.094.307-1.485Zm-3.99-1.797s-.231-.156.076-.547c.307-.312.46-.078.46-.078s.307.625.384.938c-.307 0-.92-.313-.92-.313Zm2.455 1.953c-.154 0-.537.391-.69.157l-.845-.86.46-.468.461-.47.844.86c.077.235-.23.625-.23.782ZM6.907 51.094c-.077 0-.153 0-.23.078-.077.078-.077.234-.077.39 0 .157.154.313.307.47.077.234.307.312.46.312.077 0 .154 0 .23-.078.154-.157.078-.625-.153-.86-.153-.156-.383-.312-.537-.312Z" fill="#fff"/><path d="m4.451 48.516-.23.234-.23.234s.46.625.844.391c.23-.39-.384-.86-.384-.86ZM49.27 46.172c0 .156-.614.469-1.075-.39a4.573 4.573 0 0 1-1.227-.391c.537 1.093.997 2.03 1.765 2.5 1.15.703 2.916.547 3.453-.235-.998-.547-2.149-1.953-2.763-3.281-.153.313-.383.86-.537 1.25.077.156.23.39.384.547ZM59.937 29.063c1.228-.547 2.993-1.797 3.838-2.579.076.157.383.86-.538 1.641-.69.547-2.072 1.25-3.07 1.64-.46.704-1.38 1.485-2.609 2.344 2.456-.39 5.372-1.406 6.83-2.812 2.686-2.735 1.305-6.016.921-6.797-1.765 2.266-5.142 4.61-8.288 5.86 1.074.156 2.149.39 2.916.703ZM57.942 24.063c1.612-1.329 3.3-3.985 3.607-4.922.384.234.537 1.015.077 1.875-.844 1.484-2.38 2.812-3.684 3.906-.077.937-.46 2.11-.921 2.969 1.919-1.328 4.144-3.282 5.142-4.61 1.305-1.718 1.842-3.437 1.612-5.156.076-1.953-1.305-3.906-1.842-4.375-.384 2.11-2.456 5.703-4.298 7.734.153.703.307 1.72.307 2.578ZM56.714 36.406c.384.469.767 1.016 1.074 1.485 1.458.312 3.224.234 3.224.234s-.077.781-1.075.86c-.46 0-1.842-.235-2.379-.391-.23.078-1.305.39-2.379.547 1.535.547 3.76 1.093 5.142 1.093h.384c2.225-.234 3.376-2.343 3.453-3.515-.69.156-1.842.234-2.993.234-1.074 0-2.993-.078-4.451-.547ZM66 30.469c-1.995 1.093-5.526 2.187-8.365 2.187.69.469 1.381.938 1.842 1.407 1.15-.079 2.763-.47 3.684-.782 0 .157 0 .938-1.075 1.25-.767.235-1.842.235-2.686.235-.69.468-1.688.859-2.533 1.172.768.078 1.766.156 2.61.156 1.458 0 2.84-.157 3.684-.469.767-.234 3.3-1.328 2.839-5.156ZM55.256 41.25c.844.39 1.765.703 2.532.781 0 0-.153.782-1.304.625-.691-.078-1.459-.625-1.612-.703-.537.078-1.612.078-1.995 0 1.304.938 3.3 2.031 4.988 2.188h.23c1.765 0 3.147-1.797 3.53-2.657-1.765 0-4.834-.78-6.676-1.797.077.313.23.938.307 1.563ZM52.186 43.672c.46.547 1.228.86 1.228.86s-.23.39-.69.39c-.154 0-.308-.078-.461-.156-.307-.157-.768-.703-.768-.703-.614-.079-1.15-.157-1.688-.313.92 1.172 2.456 2.656 4.144 3.047.23.078.46.078.767.078 1.459 0 2.687-1.094 2.993-1.797-1.688-.234-4.144-1.562-5.372-2.812 0 .468-.076 1.015-.153 1.406ZM41.212 62.813c.844 0 1.381-.313 1.765-1.172-1.151.547-2.38.234-4.682-.47 0 0-.844.392-1.381.47 1.381.39 3.377 1.093 3.684 1.875.153.625-.23.78-.23.78-.768-.937-1.689-1.484-3.684-2.109 0 .391-.077.626-.077.626s-.384.078-1.305-.079c.768.625 2.61 2.266 2.84 3.985.153 1.172-.69 1.25-.69 1.25-.078-1.797-.845-2.89-2.533-4.688 0 0-.307.39-.614.625 0 0-.614-.078-1.075-.468.23 2.343.307 7.968.154 8.828-.077.625-.46.937-.46.937s-.384-.234-.461-.937c-.154-.938 0-6.563.153-8.829-.537.313-1.074.47-1.074.47-.384-.235-.614-.626-.614-.626-1.612 1.797-2.38 2.969-2.533 4.688 0 0-.767-.078-.69-1.25.23-1.719 2.072-3.36 2.84-3.985-.845.157-1.305.078-1.305.078s-.077-.234-.077-.624c-1.995.624-2.84 1.171-3.684 2.109 0 0-.384-.078-.23-.781.307-.782 2.302-1.407 3.684-1.875-.46-.078-1.382-.47-1.382-.47-2.225.704-3.53 1.017-4.681.47.307.859.92 1.172 1.765 1.172-1.075.39-2.072 1.484-2.38 2.578.768 2.89 3.224 3.75 3.224 3.75-.614-1.407-.384-4.141 3.3-6.016-2.226 2.266-3.146 4.375-2.532 6.328.537 1.797 2.379 2.5 3.683 2.578-.92-2.969-.537-5.703 1.458-7.812-.844 2.344-2.072 9.61 1.382 10.781 3.453-1.172 2.225-8.438 1.381-10.781 1.996 2.187 2.38 4.844 1.458 7.812 1.382 0 3.147-.781 3.684-2.578.614-1.953-.23-4.062-2.532-6.328 3.683 1.875 3.913 4.688 3.3 6.016 0 0 2.455-.86 3.223-3.75 0-1.094-1.075-2.11-2.072-2.579ZM17.421 47.89c.768-.468 1.228-1.406 1.765-2.5a4.57 4.57 0 0 1-1.228.391c-.46.86-1.074.547-1.074.39.153-.155.307-.39.383-.546-.153-.39-.383-.938-.537-1.25-.614 1.406-1.841 2.734-2.763 3.281.538.782 2.303.938 3.454.235ZM8.519 32.11c-1.305-.86-2.15-1.641-2.61-2.344-1.074-.391-2.455-1.094-3.07-1.641-.92-.781-.613-1.484-.537-1.64.768.859 2.533 2.03 3.838 2.578.767-.313 1.841-.547 2.916-.704-3.147-1.172-6.523-3.593-8.289-5.78-.383.702-1.841 4.062.921 6.796 1.382 1.328 4.375 2.344 6.83 2.734ZM9.056 27.813c-.46-.86-.844-1.954-.921-2.97C6.83 23.829 5.372 22.5 4.45 20.939c-.46-.86-.307-1.641.077-1.875.307.937 1.995 3.593 3.607 4.921 0-.859.153-1.875.383-2.578-1.841-2.031-3.99-5.625-4.297-7.734-.537.469-1.919 2.422-1.842 4.375-.23 1.719.307 3.437 1.612 5.156.92 1.328 3.146 3.36 5.065 4.61ZM8.288 37.89c.23-.468.691-1.015 1.075-1.484-1.458.39-3.377.469-4.375.469-1.228 0-2.379-.078-2.993-.234.077 1.25 1.228 3.359 3.454 3.515h.384c1.381 0 3.607-.547 5.141-1.093-1.074-.157-2.148-.391-2.379-.547-.614.312-1.995.547-2.455.468-.998-.078-1.075-.859-1.075-.859s1.765.078 3.223-.234ZM2.916 35.703c.844.313 2.15.469 3.684.469.921 0 1.842-.078 2.61-.156-.845-.313-1.843-.703-2.533-1.172-.844 0-1.996-.078-2.686-.235-1.075-.312-1.075-1.093-1.075-1.25.921.391 2.533.782 3.684.782.46-.391 1.074-.938 1.842-1.407-2.763 0-6.37-1.093-8.365-2.187-.46 3.75 2.072 4.844 2.84 5.156ZM8.058 44.063h.23c1.689-.157 3.684-1.25 4.989-2.188-.384.078-1.535.078-1.996 0-.153.156-.997.625-1.611.703-1.228.156-1.305-.625-1.305-.625.767-.078 1.688-.39 2.533-.781.076-.625.23-1.25.383-1.64-1.918 1.093-4.988 1.874-6.753 1.874.384.86 1.765 2.657 3.53 2.657ZM11.358 46.875c.23 0 .537 0 .768-.078 1.611-.39 3.223-1.875 4.144-3.047-.537.156-1.075.313-1.688.313 0 0-.384.468-.768.703-.153.078-.307.156-.46.156-.46 0-.691-.39-.691-.39s.767-.391 1.228-.86a7.878 7.878 0 0 1-.154-1.406c-1.304 1.328-3.683 2.578-5.372 2.812.307.703 1.458 1.797 2.993 1.797ZM32.386 4.14c0 .391.307.626.614.626s.614-.313.614-.625A.61.61 0 0 0 33 3.516c-.307-.079-.614.234-.614.625ZM32.616 2.734h.844l-.076-1.093.92.156v-.86l-.92.079L33.46 0h-.844l.077 1.016-.921-.079v.86l.92-.156-.076 1.093ZM29.623 13.047c.077 0 .23.078.307.078h6.14c.153 0 .23 0 .307-.078.23-.078.307-.235.383-.469h-7.52c.076.313.23.39.383.469ZM36.377 12.11c.076 0 .076-.079.076-.079v-.469c0-.078-.076-.078-.076-.078H29.7c-.077 0-.077.079-.077.079v.468c0 .078.077.078.077.078h6.677ZM37.067 10.938c.154-.235.998-1.876.998-3.594 0-1.563-1.919-2.422-2.993-2.422-.154 2.187-.998 5.625-2.072 5.625-.998 0-1.919-3.438-2.072-5.625-1.151 0-2.993.86-2.993 2.422 0 1.718.844 3.437.998 3.593h8.134Z" fill="#fff"/><path d="M33 9.453c.537 0 1.151-1.64 1.381-3.281 0-.313-.537-.781-1.381-.86-.844 0-1.381.47-1.381.86.23 1.484.92 3.281 1.381 3.281ZM42.747 35.078c0-.234-.154-.39-.384-.39H23.714c-.23 0-.384.156-.384.39v13.203s0 .703.307 1.485c.384.937 1.996 2.5 3.991 3.593 2.84 1.485 4.528 2.657 5.372 3.36.844-.703 2.533-1.875 5.372-3.36 2.072-1.093 3.607-2.656 3.99-3.593.385-.86.308-1.485.308-1.485l.077-13.203Zm-6.293 4.766v.078c.23.937.46 1.953.537 2.89.767.626 1.458 1.25 2.072 1.876 1.151-1.329 1.765-2.579 1.765-3.594-.537 0-.998-.469-.998-1.016 0-.234.077-.39.154-.547-.537-.234-1.151-.312-1.689-.312-.46 0-.92.078-1.458.156h-.076l-.154.078.077-.078c.077-.156.077-.234.153-.39 1.535-.313 2.763-.157 3.53.312.154-.078.308-.156.461-.156.537 0 .998.468.998 1.015 0 .39-.23.703-.538.86 0 1.093-.613 2.5-1.918 4.062l.23.234.154.157v.078l-.23.234h-.154c-.077-.078-.077-.078-.077-.156-.077-.078-.077-.156-.153-.234l-.46.468-.154.235c-.23.156-.46.234-.614.156h-.077l.077-.078c.383-.313.69-.703.997-.938-.46-.547-1.074-1.093-1.688-1.64.077.547.077 1.093.077 1.64 0 .47 0 1.016-.077 1.563-.077.078-.23.156-.307.234l-.077.078v-.078c.077-.625.077-1.25.077-1.797V44.531c0-.39-.077-1.484-.153-2.187-.077-.625-.23-1.25-.384-1.875v-.078l.23-.235-.153-.312Zm-6.293-1.407c.767-1.874 1.841-2.89 2.916-2.89 1.074 0 2.149 1.016 2.916 2.89v.079h-.077c-.076 0-.153.078-.307.156h-.076v-.078c-.691-1.64-1.612-2.578-2.533-2.578-.92 0-1.842.937-2.532 2.578v.078h-.077c-.077-.156-.23-.156-.23-.234Zm-.307.47c.23.156.92.546 1.688.312.69-.235 1.458-.235 1.458-.235s.844 0 1.458.235c.768.234 1.458-.157 1.689-.313.076 0 .076 0 .076.078-.076.313-.307 1.094-1.458 1.407-1.074.234-1.611 1.484-1.765 2.03 0 .079-.077.079-.153 0-.154-.546-.691-1.796-1.766-2.03-1.15-.235-1.38-1.094-1.458-1.407.154-.078.23-.078.23-.078Zm1.841 3.124c.154 0 .384-.078.538-.156.076.156.153.39.23.547a1.28 1.28 0 0 1-.768.234c-.844 0-1.458-.703-1.458-1.484 0-.234.077-.39.154-.547.153.078.307.156.537.234-.077.078-.077.235-.077.313-.076.469.384.86.844.86Zm-.383-.937v-.157c.23.079.46.313.614.47-.077.077-.154.077-.23.077-.23 0-.384-.156-.384-.39Zm.383 2.031c.307 0 .691-.078.998-.313.077.079.23.391.307.391.154 0 .23-.312.307-.39.307.156.69.312.998.312.537 0 .997-.234 1.381-.547v.078c.154.625.23 1.407.154 1.719 0 .313-.154.625-.23.938a6.15 6.15 0 0 0-.23.703s0 .078-.078.234c-.076.313-.307.86-.614 1.406-.614-.39-1.227-.547-1.995-.547-.69 0-1.304.157-1.842.47-.23-.548-.46-1.017-.537-1.25-.077-.157-.077-.235-.077-.235s-.153-.313-.307-.782a2.855 2.855 0 0 1-.153-.859c0-.234-.077-1.016.153-1.719 0-.078.077-.156.077-.234.537.313 1.151.625 1.688.625Zm2.687-1.094c.537 0 .92-.39.92-.937 0-.157 0-.235-.076-.313.153-.078.383-.156.537-.234.077.156.153.39.153.547 0 .86-.69 1.484-1.458 1.484a1.28 1.28 0 0 1-.767-.234c.076-.157.153-.313.23-.547.077.156.307.234.46.234Zm-.23-.625c.153-.234.383-.39.613-.468v.156c0 .234-.153.39-.383.39-.077 0-.154 0-.23-.078Zm-8.903-2.187c.23 0 .384.078.537.156.537-.313 1.151-.469 1.995-.469.461 0 .921.078 1.459.157h.076c0 .078.077.234.154.39l.077.078-.154-.078h-.153c-.46-.078-.921-.156-1.382-.156-.537 0-1.228.078-1.688.39.077.157.153.313.153.547 0 .547-.46 1.016-.997 1.016 0 .938.614 2.188 1.765 3.594.614-.625 1.304-1.328 2.072-1.875.077-.938.307-1.953.537-2.89V40l.077.078.23.234.077.079v.078c-.154.625-.307 1.172-.384 1.797v.078a10.953 10.953 0 0 0-.153 1.718c0 .47-.077.86-.077 1.172 0 .47 0 .938.077 1.563v.078h-.077c-.154-.078-.23-.078-.307-.078h-.077v-.078c0-.39-.077-.938-.077-1.485 0-.547 0-1.093.077-1.64-.614.547-1.228 1.093-1.688 1.64.384.47.92.938 1.535 1.485l.076.078h-.076a.645.645 0 0 1-.538 0c-.46-.469-.844-.781-1.227-1.172-.077.078-.154.156-.154.234l-.077.078c-.076 0-.153.079-.307.157l-.076-.078s-.077 0-.077-.078H26.4v-.079c.154-.234.307-.39.46-.547-1.304-1.484-1.918-2.89-1.918-3.984a.962.962 0 0 1-.537-.86c-.154-.78.307-1.25.844-1.25Zm10.898 12.11c-.538 1.562-1.305 2.655-2.15 3.124-.076.469-.46.86-.92.86s-.844-.391-.921-.86c-.844-.469-1.612-1.484-2.149-3.047v-.078l.46-.156v.078c.461 1.328 1.075 2.266 1.766 2.734.153-.39.46-.703.92-.703.461 0 .768.313.922.625.69-.468 1.304-1.406 1.765-2.656v-.078h.076c0 .078.077.078.23.156Zm-3.914-.079c0-.313.076-1.172.23-1.484.153-.078.384-.157.614-.157.23 0 .46.078.69.235.077.312.23 1.093.23 1.406 0 .313-.767.547-.843.625-.23-.078-.921-.234-.921-.625Zm9.823-3.125c-.077.078-.154.156-.23.156-.077 0-.154.078-.307.078h-.077c-.154 0-.307 0-.384-.078-.077 0-.077-.078-.153-.078-.23 0-.768.156-.921.234.077 0 .767.079 1.228.47.23.156.69.234.844.234 0 .078-.767.625-2.226.312l-.383-.078a8.696 8.696 0 0 0-1.996-.234c.077 0 .154.078.154.078.153.078.384.156.537.234 0 0 .077 0 .077.078h.076c.077 0 .154 0 .154.078.077 0 .153.078.23.078.077.079.23.157.23.235 0 .078.077.078.077.156 0 .156 0 .234-.077.39-.23.313-.537.313-.844 0l-.076-.077a1.076 1.076 0 0 1-.23-.313V50h-.078c-.153-.078-.23-.234-.383-.234-.23-.078-.537-.157-.768-.235h-.23c.23.157.46.313.537.469v.078c.154.234.154.469.23.703.23.469.307.547.538.703-.23.078-1.382.078-1.919-.78 0 0-.077-.079-.077-.157-.153-.313-.23-.625-.307-.86-.076-.234.077-.468-.076-.546-.154-.078-.23 0-.23 0l-.077.078v.078c0 .078-.077.078-.077.078v.078s0 .078-.077.078h-.307s-.076 0-.076.078c-.077 0-.154.078-.23.078-.078 0-.154-.078-.154-.156v-.156h-.154c-.077 0-.077 0-.153-.078V49.063c-.077.078-.077.078-.154.078h-.153c-.077 0-.077-.078-.077-.157v-.156h-.153c-.077 0-.23-.078-.307-.078h-.077c-.077 0-.23.078-.307.078h-.154v-.156l.077-.078v-.078h-.153v.078h-.077v.156c0 .078 0 .156-.077.156-.077.078-.077.078-.153 0 0 0-.077 0-.077-.078 0 0-.077 0-.077-.078 0 0 0 .078.077.078v.156c-.077.078-.077.078-.154.078h-.153c0 .079.077.079 0 .157 0 .078-.077.078-.154.078h-.307l-.076-.078h-.154s-.076 0-.076-.078l-.077-.078v-.079c-.154-.156-.384.391-.384.391-.69 1.484-2.379 1.797-2.379 1.719 0 0 .384-.157.537-.703.077-.313.077-.391.23-.703 0-.079.077-.079.077-.157.077-.156.307-.234.46-.39h-.23c-.23.078-.46.078-.767.234-.154.078-.23.156-.384.234h-.076v.078c0 .079-.077.157-.154.313l-.077.078c-.307.313-.537.313-.844 0L26.63 50a.241.241 0 0 1 0-.313c0-.078.077-.156.154-.234.077-.078.153-.078.23-.156.077-.078.154-.078.23-.078.077 0 .077 0 .154-.078h.153s0-.078.077-.078.154-.079.23-.079c.077 0 .154-.078.23-.078 0 0 .077 0 .154-.078-.614 0-1.228.078-1.919.234-.076 0-.23.079-.383.079-.768.156-2.226-.235-2.226-.313 0-.078.384-.078.768-.312.306-.157.46-.313.69-.391.384.313.844.313.921.313-.153-.079-.844-.157-1.074-.235 0 0-.077.078-.154.078-.153.078-.307.078-.46.078-.077 0-.23 0-.307-.078-.077 0-.154-.078-.23-.156-.077-.078-.077-.156-.077-.39.076-.313.383-.47.767-.391.23.078.384.156.46.234l.077.078c.23 0 .538.157.845.235.307.156.537.234.69.234-.076 0-.153-.078-.23-.078-.077 0-.153-.078-.153-.078-.077-.078-.154-.078-.23-.157-.461-.234-.922-.468-1.229-.78-.23-.313-.306-.47-.383-.782-.077-.703-.384-1.016-.384-1.094.077-.078 1.151.469 1.535.86.23.312.307.547.384.78v.079c.076.234.307.469.69.703.077 0 .077.078.154.078-.077-.156-.154-.234-.23-.39v-.078l-.077-.079s-.077-.078-.077-.156c-.077-.078-.077-.156-.153-.234-.077-.235-.077-.469 0-.547a1.06 1.06 0 0 1 .307-.234c.307-.079.537.078.614.546V47.11c.153.47.537.86.997 1.172-.537-.468-.844-1.562-.767-1.562.076-.078.537.234.997.468.23.079.46.235.691.391.154.078.307.234.384.313.153.078.23.234.307.312l.23.234.154.157c.153.078.383 0 .383 0 .077 0 .154 0 .23-.078l.077-.078c.077-.079.154-.079.23-.079v-.078c0-.156.077-.234.23-.312 0 0 .078 0 .078-.078H31.619c0-.078.076-.078.153-.157a.466.466 0 0 1 .537.078c.077.079.077.157.154.235v.391H32.923c.077 0 .154 0 .23.078.077 0 .154-.078.23-.078H33.615v-.235c0-.078 0-.156.077-.234 0 0 0-.078.076-.078l.077-.078a.482.482 0 0 1 .46 0c.078 0 .078.078.154.156h.307c.154.078.23.156.23.312h.154s.384 0 .46.078h.384l.154-.156.307-.312c.153-.078.23-.235.383-.313.23-.156.537-.234.768-.312.767-.313.844-.782.92-.782.077.078-.153 1.328-.69 1.797.384-.312.767-.703.998-1.172v-.625c.153-.39.307-.625.614-.547.153.079.23.157.307.235.076.156.076.312 0 .547 0 .078-.077.156-.154.234l-.153.156-.077.078v.079c-.077.156-.154.234-.307.39l.153-.156c.384-.313.614-.547.691-.781a2.43 2.43 0 0 1 .384-.782c.384-.39.46-.546.844-.78.077-.079.614-.157.69-.157.077.078-.383.234-.537 1.016-.076.234-.153.625-.383.937-.307.39-.614.469-.998.703l-.077.078c-.076.078-.153.078-.307.157-.153.078-.23.156-.307.156.23-.078.46-.156.768-.234.23-.157.537-.235.844-.235 0 0 0-.078.077-.078.076-.078.23-.156.46-.234.384-.157.69 0 .768.39.076.235 0 .39-.077.469Z" fill="#fff"/><path d="M55.486 32.422c1.151-.547 3.07-1.875 3.837-2.813-1.074-.39-3.223-.625-4.45-.625 2.532-1.797 2.608-5.547 1.918-8.28-.614 2.187-2.15 3.983-3.147 5.077.077 1.094-.23 2.969-.844 4.063.844.312 1.842.781 2.533 1.328-.46.625-1.459 1.484-2.072 2.031.537.547 1.38 1.563 1.841 2.188-.614.468-1.841.937-2.532 1.172.307.703.767 1.874.92 2.734-.767.156-1.764.234-2.839.234.077.782-.077 2.032-.23 2.813-.998-.078-2.149-.469-2.686-.782-.307 1.094-.998 2.188-.998 2.266-.92-1.094-1.842-1.484-2.686-1.484v-.703c.844 0 1.765.312 2.456 1.015.307-.547.614-1.562.767-2.187.614.312 1.612.703 2.456.86.077-.782.154-1.798.077-2.579a11.1 11.1 0 0 0 2.763-.078c-.154-.703-.768-1.875-1.151-2.5.844-.234 1.918-.703 2.455-1.016-.46-.625-1.227-1.484-1.765-2.031.614-.469 1.612-1.25 1.996-1.719-.691-.468-1.612-.937-2.38-1.25 1.075-1.484 1.305-4.531 1.075-5.937-.92 3.203-3.684 5.547-5.372 6.64-.077.078-.154.157-.23.157-.077.078-.384.468-.23.937 0 .156.076.235.076.39.154.626.154 1.563-.767 2.423-.768.703-1.689.78-2.226.703V33.75c0-.234-.153-.39-.384-.39h-1.15l-.538-.547h1.151c.614-.079 1.305-.391 1.305-.391s-.69 0-.998-.078c-.383.078-1.228-.313-1.918-1.094-.23-.313-.46-.625-.614-.938-.614-.546-1.305-1.25-1.766-2.265-.306-.703-.46-1.719-.537-2.344-.23.156-.46.469-.767.86-.537.703-.767 1.718-.767 1.718l-.23.782-.385-.704s-.537-.937-.614-2.109c0-.547 0-1.016.077-1.406a7.077 7.077 0 0 0-.614.39c-.92.703-1.458 1.407-1.458 1.407-.46.625-.767 1.172-.844 1.406-.077-.313-.384-.781-.844-1.406 0 0-.46-.782-1.458-1.407a7.062 7.062 0 0 0-.614-.39c.076.39.076.937.076 1.406-.076 1.172-.613 2.031-.613 2.11l-.384.624-.23-.78s-.307-1.017-.768-1.72c-.307-.39-.537-.703-.767-.859-.077.625-.23 1.719-.538 2.344-.46 1.015-1.074 1.797-1.765 2.265-.153.313-.383.625-.614.938-.69.781-1.535 1.172-1.918 1.25-.307.078-.998.078-.998.078s.69.313 1.305.39c.614.079 1.15 0 1.15 0l-.536.547h-1.151c-.23 0-.384.157-.384.391v1.719c-.537.078-1.535 0-2.226-.703-.844-.86-.92-1.797-.767-2.422.077-.078.077-.234.077-.39.153-.47-.154-.86-.23-.938-.077-.078-.154-.157-.23-.157-1.69-1.093-4.375-3.437-5.373-6.64-.23 1.406.077 4.375 1.074 5.937-.767.313-1.765.782-2.379 1.25.384.47 1.382 1.328 1.996 1.72-.537.468-1.382 1.405-1.765 2.03.537.313 1.611.782 2.455 1.016-.383.625-.997 1.797-1.15 2.5.92.156 1.918.156 2.762.078-.077.781 0 1.875.077 2.578.844-.156 1.842-.468 2.456-.86.153.548.46 1.642.767 2.188a3.452 3.452 0 0 1 2.456-1.015v.703c-.844 0-1.765.39-2.686 1.484 0-.078-.69-1.172-.998-2.265-.537.234-1.688.703-2.686.78-.153-.78-.23-2.03-.23-2.812-1.075 0-2.072-.078-2.84-.234.154-.86.614-2.031.921-2.734-.69-.235-1.918-.782-2.532-1.172.383-.625 1.304-1.64 1.841-2.188-.613-.468-1.611-1.406-2.072-2.031.691-.547 1.689-1.016 2.533-1.328-.614-1.172-.92-3.047-.844-4.063-1.075-1.093-2.61-2.89-3.147-5.078-.767 2.735-.614 6.563 1.919 8.282-1.228 0-3.377.312-4.451.625.767.937 2.686 2.187 3.837 2.812-.921.313-2.533 1.25-3.223 1.875.844.547 2.762 1.172 3.683 1.406-.537.469-1.611 1.719-1.995 2.344.768.234 2.302.469 3.3.469-.307.703-.69 1.875-.767 2.578.46.078 2.072 0 2.916-.234-.077.703-.077 1.874.077 2.421.767-.078 1.918-.468 2.455-.625.154.625.691 1.875.921 2.188.384-.078.768-.156 1.152-.313 1.074-.39 2.225.078 2.686 1.094.767 1.797.46 3.906-.998 3.516-1.688.312-.537 2.5-1.535 3.203 1.305.937 1.688-1.25 3.377-.86-.154.782-.154 2.266 0 2.891.537-.39 1.305-.703 1.765-.781-.154.469-.23 1.562-.077 2.266.307-.235 2.533-.86 2.533-.86s-.845 1.719-.307 3.438c.307.234 2.302-.782 2.302-1.328.077.703-.767 2.265-2.072 2.578 1.381 1.406 2.61 1.328 2.763 1.328.23 0 .384 0 .537-.157-.077.391-.154.938-.077 1.25h.23c.384 0 .691-.078.921-.156.077.39.23.782.46 1.094l.154.156c.307 0 1.075-.39 1.228-.625.154.235.921.625 1.228.625.077-.078.154-.078.154-.156.307-.313.46-.781.46-1.094.307.157.614.157.921.157h.23c.077-.313.077-.86-.076-1.25.153.078.383.156.537.156.153 0 1.381.078 2.762-1.328-1.304-.313-2.148-1.875-2.072-2.578 0 .624 1.996 1.562 2.303 1.328.537-1.72-.307-3.438-.307-3.438s2.149.547 2.532.86c.154-.704.077-1.797-.076-2.266.46 0 1.227.39 1.765.781.153-.625.153-2.031 0-2.89 1.611-.391 1.995 1.796 3.377.859-.922-.703.23-2.89-1.535-3.203-1.459.468-1.765-1.719-.998-3.516.46-1.016 1.688-1.484 2.686-1.094.384.157.767.235 1.151.313.154-.313.768-1.563.921-2.188.537.235 1.688.547 2.456.625.077-.547.153-1.718.077-2.422.767.157 2.455.235 2.916.235-.077-.781-.46-1.953-.767-2.578.997-.078 2.532-.235 3.3-.469-.384-.703-1.459-1.953-1.996-2.344.921-.234 2.84-.86 3.684-1.406-.537-.703-2.149-1.64-3.07-1.953ZM43.054 50c-.077.156-.154.234-.23.39 0 .079-.078.079-.078.157-.076.078-.153.156-.23.312l-.153.157c-.077.156-.23.234-.307.39l-.23.235-.23.234-.308.313-.153.156c-.23.234-.537.468-.844.625a6.61 6.61 0 0 1-1.228.781l-.46.234c-3.454 1.797-5.142 3.203-5.68 3.594h-.077c-.537-.469-2.225-1.797-5.678-3.594l-.461-.234a6.61 6.61 0 0 1-1.228-.781c-.307-.235-.537-.469-.844-.625-.077-.078-.154-.078-.154-.157-.076-.078-.23-.156-.307-.312l-.23-.234-.23-.235c-.153-.156-.23-.234-.307-.39l-.154-.157c-.076-.078-.153-.156-.23-.312 0-.078-.076-.078-.076-.156-.077-.157-.154-.235-.23-.391-.461-1.016-.384-1.875-.384-1.875V34.453c0-.234.153-.39.383-.39H42.976c.231 0 .385.156.385.39v13.672c.076 0 .153.86-.307 1.875ZM42.593 12.5c.307 0 .46-.234.46-.547 0-.312-.23-.547-.46-.547-.307 0-.46.235-.46.547 0 .313.23.547.46.547ZM42.593 15.39c.307 0 .614-1.328.614-1.953a.61.61 0 0 0-.614-.624.61.61 0 0 0-.614.624c0 .626.307 1.954.614 1.954ZM42.286 10.625h.69l-.153-.86.844.079V9.14l-.844.156.154-.86h-.691l.077.86-.844-.156v.703l.844-.078-.077.859Z" fill="#fff"/><path d="M39.6 16.953c.23.078.46.078.69.156h.998c.614 0 1.228-.156 1.842-.312.614-.156 1.228-.313 1.919-.313h.46c.154-.703.384-1.484.384-1.953 0-.937-.537-1.953-2.302-2.265 0 1.171-.537 3.906-1.151 3.906h-.077c-.614 0-1.151-2.735-1.151-3.906-1.765.312-2.303 1.328-2.303 2.265 0 .547.23 1.563.46 2.266.231.078.231.078.231.156ZM48.81 12.031s-.461-1.25.306-1.64c.845-.313-.307-.157.307-1.875.691-2.032 2.226-1.563 2.226-1.563-1.075-.86-1.919-.781-2.533-.312-.383.312-.92.937-1.304 2.187-.307 1.563.23 3.047.997 3.203Z" fill="#fff"/><path d="M52.8 8.984c.077 2.579 4.298 3.672 4.298 3.672s-2.456-1.797-1.996-3.125c0 0 1.612.703 3.454.39-3.914-.858-2.61-2.108-3.607-3.124-.998-1.094-2.533-1.172-2.916-1.25-.998-.078-1.075-.078-2.226.234 2.686.078 2.993 1.485 2.993 3.203ZM52.263 13.828c.537-2.031-.46-2.969-.46-2.969-.308-.39-1.92-.312-2.533.079 0 0 1.535 0 1.304 2.265-.23 2.266-3.3 2.735-4.144 2.813l-.077.312c1.459 0 5.296-.469 5.91-2.5ZM36.223 13.75h-1.535c.768 2.188 2.993 2.89 4.452 3.125l-.077-.234c-1.535-.625-2.302-1.25-2.84-2.891ZM23.484 12.5c.307 0 .46-.234.46-.547 0-.312-.23-.547-.46-.547-.307 0-.46.235-.46.547-.078.313.153.547.46.547ZM23.484 15.39c.307 0 .614-1.328.614-1.953a.61.61 0 0 0-.614-.624.61.61 0 0 0-.614.624c0 .626.23 1.954.614 1.954ZM23.1 10.625h.69l-.076-.86.844.079V9.14l-.844.156.077-.86H23.1l.153.86-.844-.156v.703l.844-.078-.153.859Z" fill="#fff"/><path d="M20.414 16.484h.46c.691.078 1.382.157 1.919.313.537.156 1.228.312 1.842.312H25.632c.23 0 .461-.078.691-.156 0-.078 0-.078.077-.078.23-.703.46-1.719.46-2.266 0-.937-.46-1.953-2.302-2.265 0 1.094-.537 3.906-1.151 3.906h-.077c-.614 0-1.151-2.734-1.151-3.906-1.765.312-2.302 1.328-2.302 2.265 0 .47.153 1.25.383 1.954.077-.079.077-.079.154-.079ZM14.351 6.953s1.535-.469 2.226 1.563c.614 1.718-.538 1.562.307 1.875.844.312.307 1.64.307 1.64.844-.156 1.381-1.64.92-3.281-.383-1.25-.92-1.875-1.304-2.188-.614-.39-1.381-.468-2.456.391Z" fill="#fff"/><path d="M10.898 9.531c.46 1.328-1.996 3.125-1.996 3.125S13.2 11.562 13.2 8.984c.077-1.718.307-3.125 2.916-3.203-1.15-.234-1.228-.234-2.225-.234-.384 0-1.919.156-2.917 1.25-.92 1.016.307 2.266-3.607 3.125 1.919.312 3.53-.39 3.53-.39ZM15.502 13.203c-.23-2.265 1.305-2.265 1.305-2.265-.537-.391-2.149-.391-2.533-.079 0 0-.997.86-.46 2.97.537 2.03 4.451 2.5 5.91 2.5l-.078-.313c-.844-.078-3.914-.547-4.144-2.813ZM31.388 13.75h-1.535c-.537 1.64-1.304 2.266-2.839 2.89l-.077.235c1.535-.234 3.684-.938 4.451-3.125ZM34.995 23.36c-.46.703-.844 1.484-1.15 2.265.23-.313.613-.625.997-.938.69-.468 1.305-.78 1.305-.78l.614-.235-.154.625s-.23 1.015-.154 1.875c0 .39.154.781.23 1.015.154-.39.385-.78.615-1.171.767-1.016 1.381-1.407 1.381-1.407l.46-.234v.547s.154 1.797.538 2.734c.69 1.563 1.995 2.422 2.763 2.813l-.384-.39c-.384-.392-.768-1.095-.998-2.579-.153-1.25.307-2.5.46-2.89.077.312.23.624.384.703 0 0 0-.313.077-.625.154-.86 1.075-2.188 2.302-2.97.23-.155.46-.312.614-.39.23-.078.384-.234.538-.39-.23 0-.538.078-.768.078H43.898c-.614 0-1.305-.078-1.842-.547-.537-.469-.768-.938-.844-1.25h-.921c-.46 0-.844-.157-1.075-.157-.614.391-1.228.547-1.995.625h-.307c.23.235.537.391.767.547h.077l-.153.078c.076-.078-.998.547-2.61 3.047ZM45.049 18.984h-.844v.47c.076.233.153.39.307.546.23-.156.46-.547.537-1.016Z" fill="#fff"/><path d="M45.663 17.188c-.077 0-.077 0 0 0h-.307c-.614 0-1.228.156-1.842.312-.614.156-1.305.313-1.919.313h-1.074a7.693 7.693 0 0 1-2.763-.86c.077.156.23.313.46.547l.23.234c.154.157.385.313.615.47.307.155 1.611.702 3.3.468 1.918-.313 2.302-.235 2.763-.235h.153c.69.079 1.688.47 2.072.704.154-.391.384-.782.46-1.172a1.912 1.912 0 0 0-.537-.39c-.076-.079-.153-.079-.307-.157a1.51 1.51 0 0 0-.69-.156c-.307-.078-.46-.078-.614-.078ZM51.035 23.594c-.077 0-.768.39-2.226-.547-1.458-.938-2.532-1.328-3.146-1.485-.154.079-.23.157-.384.235a7.048 7.048 0 0 0-.614.39c-.077.079-.153.079-.23.157h.153c1.382.156 2.456.937 2.533 1.25h.077c.153-.469-.077-.86-.077-.86s.614.391 1.842 1.094c1.304.86 1.842.078 2.072-.234ZM43.744 19.766c-.077-.078-.153-.235-.23-.313-.077-.156-.077-.234-.077-.312-.307 0-.69.078-1.151.156h-.307c.23.469.614.937 1.381 1.094h.307c.307.078.691.078.921.078.538 0 1.151-.078 1.765-.235.154-.156.23-.39.384-.547 0 0-.077-.078-.153-.078-.154-.078-.538-.312-.768-.39-.077.234-.23.468-.384.625-.23.156-.537.234-.844.234-.307 0-.614-.078-.767-.234-.077 0-.077-.078-.077-.078ZM47.812 18.594c-.46 1.25-1.228 2.187-1.765 2.656 3.453-.938 4.067.86 4.067.938 0 .078 0 .078.077 0 .077-.079 1.228-1.329.383-2.5-.69-.938-2.225-1.094-2.762-1.094Zm0 .937c.153-.156.23-.468.23-.468.23 0 .69.078.69.39-.306-.078-.69-.078-.92.078ZM21.872 19.453v-.469h-.844c.077.47.307.86.537 1.016.153-.156.23-.313.307-.547ZM25.786 17.734c-.077 0-.077 0 0 0H24.712c-.691 0-1.305-.156-1.919-.312-.69-.078-1.305-.235-1.919-.235h-.613a1.51 1.51 0 0 0-.691.157c-.077.078-.23.078-.307.156-.23.156-.384.234-.537.39.076.391.307.86.46 1.172.384-.234 1.381-.703 2.072-.703h.154c.46 0 .844-.078 2.762.235 1.689.234 2.917-.313 3.3-.469.23-.156.46-.313.614-.469l.23-.234c.154-.235.308-.39.461-.547-.69.234-1.612.703-2.993.86ZM15.042 23.594c.23.234.767 1.093 1.995.39 1.228-.703 1.842-1.093 1.842-1.093s-.23.39-.077.859h.077c.153-.313 1.228-1.172 2.532-1.25h.154c-.077-.078-.154-.078-.23-.156a7.077 7.077 0 0 0-.614-.39c-.154-.079-.23-.157-.384-.235-.614.078-1.688.547-3.146 1.484-1.382.781-2.072.39-2.15.39Z" fill="#fff"/><path d="m20.26 19.219-.767.39c-.077 0-.077.078-.153.078.153.235.23.391.383.547a7.317 7.317 0 0 0 1.765.235c.307 0 .614 0 .921-.078h.307c.768-.157 1.228-.703 1.382-1.094h-.307c-.46-.078-.844-.156-1.151-.156 0 .078-.077.234-.077.312a1.076 1.076 0 0 1-.23.313l-.077.078a1.28 1.28 0 0 1-.768.234c-.306 0-.613-.078-.844-.234-.23-.157-.307-.39-.383-.625ZM15.426 19.688c-.845 1.171.306 2.421.383 2.5.077.078.077 0 .077 0 0-.079.614-1.875 4.067-.938-.537-.469-1.304-1.406-1.765-2.656-.46 0-2.072.156-2.762 1.093Zm2.84-.157c-.231-.156-.615-.156-.922-.078 0-.312.46-.39.69-.39 0 0 .078.312.231.468Z" fill="#fff"/><path d="M29.086 19.688h-.307c-.767 0-1.381-.235-1.995-.625-.23.078-.691.156-1.075.156h-.92c-.077.312-.308.86-.845 1.25-.537.468-1.228.547-1.842.547H21.335c-.154 0-.46-.078-.768-.078.23.156.384.234.538.39.153.078.383.235.613.39 1.229.86 2.15 2.11 2.303 2.97.077.312.077.625.077.625.153-.079.307-.391.383-.704.154.391.691 1.641.46 2.891-.23 1.484-.613 2.188-.997 2.578l-.384.39c.768-.39 2.073-1.25 2.763-2.812.384-.86.537-2.656.537-2.656v-.547l.46.235s.692.39 1.382 1.406c.23.39.46.781.614 1.172.077-.313.154-.625.23-1.016.077-.938-.153-1.875-.153-1.875l-.154-.625.614.234s.614.235 1.305.782c.46.312.767.625.998.937-.307-.781-.614-1.562-1.151-2.265-1.612-2.5-2.61-3.047-2.61-3.047l-.153-.078h.076c.23-.235.538-.47.768-.625Z" fill="#fff"/></svg>