<svg xmlns="http://www.w3.org/2000/svg" height="1066.6667" width="1440" xml:space="preserve">
  <defs>
    <clipPath id="a" clipPathUnits="userSpaceOnUse">
      <path d="M116.473 33.506h847.061v732.988H116.473Z"/>
    </clipPath>
  </defs>
  <g clip-path="url(#a)" transform="matrix(1.33333 0 0 -1.33333 0 1066.6667)">
    <path style="fill:#fff;fill-opacity:1;fill-rule:nonzero;stroke:none" d="m0 0 1.301-2.372L2.823 0C5.027 3.445 5.817 3.049 5.59-1.468c-.113-2.372-.448-3.84-.846-4.01-.507-.113-.733.509-.733 2.203v2.428l-.96-1.355c-.512-.791-1.018-1.525-1.131-1.694-.17-.17-1.017.621-1.92 1.694L-1.58-.226l-.057-2.654c0-1.525-.226-2.711-.567-2.711-.336 0-.563 1.695-.563 3.953C-2.767 3.049-2.034 3.445 0 0m-5.027 1.468c0-.508-.507-.847-1.41-.847-1.358 0-1.415-.169-1.415-3.106 0-2.371-.165-3.106-.846-3.106-.676 0-.847.735-.847 3.106 0 2.937-.057 3.106-1.409 3.106-.903 0-1.414.339-1.414.847 0 .678.79.847 3.67.847 2.881 0 3.671-.169 3.671-.847M-210.409 2.88c3.278-1.638 6.323-4.857 7.965-8.414 1.125-2.541 1.181-3.219 1.181-28.857 0-23.83-.113-26.541-1.016-29.194-1.353-3.897-4.801-7.681-8.749-9.601l-3.222-1.581h-13.55c-13.049 0-13.668.057-16.549 1.355-3.726 1.694-8.13 6.381-9.374 9.995-1.352 3.954-1.352 52.914 0 56.81 1.017 3.049 3.954 6.664 6.778 8.414 4.29 2.598 5.363 2.767 19.992 2.598 13.436-.113 13.891-.17 16.544-1.525m-207.417-36.706c12.819-20.329 23.944-37.948 24.678-39.077l1.299-2.146h-19.087l-4.97 7.905-4.913 7.906-14.851.113-14.852.169 4.856 7.793 4.913 7.737h4.687c2.598 0 4.687.169 4.687.396 0 .395-10.673 17.675-10.955 17.675-.056 0-7.115-11.181-15.586-24.848l-15.473-24.846h-41.393c-22.757 0-41.392.169-41.392.339 0 .168 4.347 7.171 9.599 15.529 5.308 8.301 9.6 15.246 9.6 15.416 0 .17-3.162.395-7.059.452l-7.115.169 4.913 7.793 4.969 7.737h30.721c16.884 0 30.607-.226 30.493-.451-.056-.227-2.258-3.784-4.856-7.907l-4.743-7.454h-27.558l-3.727-5.76c-2.089-3.162-4.348-6.72-5.082-7.906l-1.356-2.146h44.442l20.217 31.906c16.151 25.525 20.386 31.793 20.951 31.228.338-.395 11.124-17.393 23.943-37.722m-38.4 37.835c0-.282-2.202-3.952-4.856-8.188l-4.857-7.623h-32.414c-17.845 0-32.414.169-32.414.395s2.203 3.896 4.913 8.188l4.856 7.793h32.415c20.385 0 32.357-.226 32.357-.565m432.285-.451c3.386-1.525 6.715-4.631 8.357-7.737.96-1.807 1.239-3.501 1.409-8.64l.228-6.381-6.102.169-6.039.17-1.301 4.235C-29.423-8.019-29.701-7.85-40.49-7.85c-9.766 0-10.669-.282-11.97-3.331-1.018-2.485-.563-13.271.619-14.457 1.471-1.524 4.801-1.976 14.686-1.976 7.056 0 9.993-.226 12.027-.904 3.613-1.242 8.3-5.647 9.993-9.374 1.244-2.823 1.358-3.671 1.358-13.44 0-9.543-.114-10.672-1.244-13.101-1.694-3.727-5.364-7.454-8.812-8.979-2.823-1.298-3.442-1.355-17.049-1.355-12.198 0-14.402.113-16.265.96-3.727 1.694-6.494 4.292-8.13 7.68-1.358 2.824-1.585 4.009-1.807 9.6l-.171 6.324h12.42l.908-3.726c1.126-4.518 2.256-6.777 3.671-7.568.619-.338 5.023-.565 10.163-.565 8.75 0 9.091.058 10.614 1.356 1.583 1.355 1.583 1.468 1.754 8.696.222 8.075-.454 10.561-2.88 11.125-.681.114-6.215.339-12.254.396-10.562.169-11.124.225-14.119 1.637-3.726 1.751-6.834 4.8-8.584 8.358-1.187 2.429-1.3 3.332-1.3 12.762 0 9.6.056 10.335 1.357 12.706 2.597 5.026 7.057 8.527 12.084 9.6 1.301.282 7.852.452 14.516.395 11.345-.113 12.305-.225 14.964-1.411m-51.784-5.026.17-6.382-10.334-.112-10.334-.17-.171-33.431-.113-33.486h-14.118V-7.85h-20.332v6.1c0 3.388.17 6.324.397 6.494.17.225 12.595.339 27.502.282l27.162-.17zm-72.679 5.138c3.783-1.75 7.005-4.912 8.811-8.583 1.466-3.049 1.579-3.727 1.749-12.311.28-10.503-.34-14.23-2.766-17.957-1.528-2.259-2.767-3.332-7.119-6.325-1.016-.678-1.016-.678 10.903-28.574l1.863-4.404h-14.964l-6.272 15.416-6.267 15.36-6.834.169-6.829.169v-31.679h-14.118V5.195l19.651-.169c18.635-.17 19.708-.226 22.192-1.356m-128.697.339c3.784-1.355 7.34-4.574 9.374-8.47l1.864-3.614-.17-12.762c-.171-14.627-.393-15.304-5.534-19.992-4.405-3.896-6.325-4.291-21.007-4.291h-12.311v-29.929h-14.117v39.698c0 21.854.169 39.925.395 40.151.226.226 9.205.283 19.934.169 14.344-.113 20.047-.395 21.572-.96m-63.868-.339c3.614-1.693 6.551-4.461 8.301-7.793 1.299-2.597 1.468-3.501 1.525-8.809v-5.929h-11.803l-.79 2.258c-3.162 9.092-2.597 8.753-14.4 8.753-8.019 0-8.753-.112-9.939-1.185-1.863-1.751-2.315-3.445-2.315-9.036 0-5.365.79-7.906 2.654-8.696.564-.282 6.494-.621 13.157-.791 11.915-.338 12.198-.338 14.796-1.863 3.614-2.203 7.059-6.268 8.075-9.657.621-2.033.847-5.59.847-12.592 0-11.521-.678-14.231-4.631-18.241-4.743-4.743-5.025-4.856-21.571-5.026l-14.626-.169-3.558 1.751c-6.494 3.162-8.753 7.341-9.148 16.828l-.282 6.324h6.268c5.478 0 6.268-.112 6.551-.96.169-.564.564-2.145.903-3.557 1.75-7.115 2.202-7.342 13.835-7.342h8.866l1.638 1.639 1.637 1.637v7.623c0 10.956 1.017 10.222-14.512 10.56-12.085.283-12.367.339-15.53 1.864-3.614 1.807-6.269 4.518-8.019 8.245-1.072 2.315-1.186 3.614-1.186 12.762 0 9.6.057 10.335 1.355 12.706 2.542 4.913 6.777 8.358 11.746 9.6 1.187.282 7.85.452 14.852.395 11.577-.113 12.932-.225 15.304-1.299m-367.68 25.525c0-.451 16.377-29.252 36.311-63.981l36.366-63.134h701.76l36.309 63.134c19.992 34.729 36.314 63.53 36.314 63.981 0 .678-58.789.791-423.531.791-365.082 0-423.529-.113-423.529-.791" transform="translate(825.1172 736.5088)"/>
    <path style="fill:#fff;fill-opacity:1;fill-rule:nonzero;stroke:none" d="M0 0v-12.424h10.165c6.042 0 10.673.226 11.463.622 2.711 1.242 3.22 3.106 3.22 12.084v8.301l-1.921 1.92-1.92 1.92H0Z" transform="translate(520.2295 716.2368)"/>
    <path style="fill:#fff;fill-opacity:1;fill-rule:nonzero;stroke:none" d="M0 0v-11.577h9.261c10.225 0 12.367.452 13.611 2.88 1.188 2.203 1.188 15.134.057 17.393-1.358 2.542-2.937 2.881-13.328 2.881H0z" transform="translate(648.9883 717.082)"/>
    <path style="fill:#fff;fill-opacity:1;fill-rule:nonzero;stroke:none" d="M0 0c-.676-.282-1.692-1.186-2.256-2.089C-3.159-3.501-3.272-5.478-3.442-24c-.228-23.831-.057-25.807 2.147-28.066l1.579-1.581h17.732l1.579 1.694c1.016 1.13 1.755 2.654 1.977 4.122.17 1.299.283 11.803.17 23.266-.17 22.871-.227 22.927-3.613 24.452C16.492.678 1.863.734 0 0" transform="translate(588.1602 728.0942)"/>
    <path style="fill:#fff;fill-opacity:1;fill-rule:nonzero;stroke:none" d="M0 0c0-.338 75.67-130.955 76.179-131.463.282-.339 76.856 130.39 76.856 131.294 0 .226-34.447.395-76.518.395C34.447.226 0 .113 0 0" transform="translate(214.166 595.728)"/>
    <path style="fill:#fff;fill-opacity:1;fill-rule:nonzero;stroke:none" d="M0 0c-9.431-1.13-20.386-5.421-29.083-11.408-4.969-3.387-14.23-12.028-17.562-16.432-2.259-2.936-74.654-126.494-74.654-127.454 0-.395 44.669-77.76 47.266-81.77.79-1.299 1.299-.564 14.287 21.741l13.496 23.04 62.796.283 62.738.282 24.565 42.071 24.507 42.07-62.455.17c-34.334.056-62.4.282-62.344.564 0 .226 2.993 5.478 6.664 11.69l6.607 11.294 62.852.282 62.851.283 24.224 41.506C180.083-18.974 190.986-.113 190.986.169 190.986.678 4.856.564 0 0" transform="translate(425.813 595.3892)"/>
    <path style="fill:#fff;fill-opacity:1;fill-rule:nonzero;stroke:none" d="M0 0c-9.322-1.186-18.072-4.687-26.94-10.786-5.59-3.839-13.948-11.746-17.788-16.828-1.244-1.694-41.45-70.193-89.223-152.189-47.83-81.995-88.15-151.002-89.562-153.373-3.388-5.761-5.252-10.617-7.059-18.24-1.355-5.704-1.468-7.397-1.468-18.129-.056-13.385.678-18.464 3.84-26.821 1.242-3.334 16.094-29.423 48.282-84.99 25.582-44.104 46.589-80.243 46.645-80.356.113-.17 187.199 322.164 187.199 322.559 0 .17-21.685.339-48.17.339h-48.11l-45.46-77.929c-24.957-42.803-45.459-77.817-45.515-77.76-.057.057-3.163 5.363-6.89 11.801l-6.776 11.635 83.689 143.491L20.327-84.141l13.721.057c7.511 0 13.669-.114 13.669-.227s-17.113-29.533-38.008-65.336l-38.001-65.167 48-.169c37.945-.114 48.166.056 48.677.564.732.791 123.725 212.838 124.236 214.193.335.734-9.601.847-94.138.791C46.473.508 2.199.226 0 0" transform="translate(673.5537 595.3311)"/>
  </g>
</svg>