<svg xmlns="http://www.w3.org/2000/svg" width="90" height="33" fill="none">
  <mask id="a" style="mask-type:luminance" maskUnits="userSpaceOnUse" x="0" y="0" width="90" height="33">
    <path d="M89.2814.0843506H.359375V32.4376H89.2814V.0843506Z" fill="#fff"/>
  </mask>
  <g mask="url(#a)">
    <path d="M1.48242.635376h9.67028c1.6119 0 2.783.365184 3.5112 1.093654.7285.72844 1.0938 1.89952 1.0938 3.51122V7.5427c0 1.61169-.3653 2.7828-1.0938 3.5112-.7282.7284-1.8993 1.0937-3.5112 1.0937H5.62696v4.6049H1.48242V.635376ZM11.6132 5.24025c0-.92098-.4605-1.38148-1.3812-1.38148H5.62696v5.06537H10.232c.9207 0 1.3812-.46047 1.3812-1.38144V5.24025Zm5.296 8.17355c3.7457.2302 6.2783.3454 7.5981.3454.3535 0 .6333-.1032.8397-.3117.2064-.2084.3114-.4863.3114-.8396v-2.1873h-6.1251V7.19721h6.1251V5.24012c0-.92097-.4605-1.38147-1.3812-1.38147h-7.1376V.635254h8.0583c1.6119 0 2.783.365186 3.5116 1.093656.7282.72844 1.0934 1.89952 1.0934 3.51121v7.36778c0 1.5046-.3534 2.6101-1.0599 3.3148-.7065.7066-1.8122 1.0599-3.3147 1.0599-2.3025 0-5.1428-.1529-8.5191-.4605v-3.1083Zm19.065 3.5689c-.7682 0-1.5584-.0774-2.372-.2302v-3.1083h2.0721c.4445 0 .7522-.1767.921-.53.0776-.1528.1152-.3176.1152-.4942 0-.1767-.0376-.3335-.1152-.4724L30.2634.635376h4.6051L39.013 8.80903 42.4666.635376h4.6047L41.2003 13.2988c-.5381 1.2128-1.1829 2.1178-1.9335 2.7173-.8295.645-1.9271.9666-3.2926.9666Zm11.3266-3.6851h4.1445v3.4537h-4.1445v-3.4537ZM53.5176.635376h9.6702c1.6116 0 2.7827.365184 3.5112 1.093654.7286.72844 1.0939 1.89952 1.0939 3.51122V7.5427c0 1.61169-.3653 2.7828-1.0939 3.5112-.7285.7284-1.8996 1.0937-3.5112 1.0937h-5.526v4.6049h-4.1442V.635376ZM63.6483 5.24025c0-.92098-.4605-1.38148-1.3815-1.38148h-4.605v5.06537h4.605c.921 0 1.3815-.46047 1.3815-1.38144V5.24025Zm24.4058 5.75505c0 1.6117-.3652 2.7828-1.0938 3.5112-.7285.7285-1.8996 1.0937-3.5112 1.0937h-2.763v1.6117h-4.1442v-1.6117h-2.763c-1.6116 0-2.7827-.3652-3.5112-1.0937-.7286-.7284-1.0939-1.8995-1.0939-3.5112V6.39043c0-1.6117.3653-2.78278 1.0939-3.51122.7285-.72843 1.8996-1.09365 3.5112-1.09365h2.763V.173828h4.1442V1.78556h2.763c1.6116 0 2.7827.36522 3.5112 1.09365.7286.72844 1.0938 1.89952 1.0938 3.51122v4.60487Zm-14.7357 0c0 .921.4605 1.3815 1.3815 1.3815h2.0721V5.00898h-2.0721c-.921 0-1.3815.46047-1.3815 1.38145v4.60487Zm10.5912-4.60487c0-.92098-.4605-1.38145-1.3815-1.38145H80.456v7.36782h2.0721c.921 0 1.3815-.4605 1.3815-1.3815V6.39043Z" fill="#171717"/>
    <path d="M.359375 20.0859H89.2814" stroke="#171717" stroke-width="1.73776" stroke-miterlimit="10"/>
    <path d="M1.52441 23.4612H3.0252c.25008 0 .43069.0575.54387.1687.11318.1131.17044.2957.17044.5458v.3571c0 .2505-.05726.4328-.17044.5459-.11318.1132-.29379.1708-.54387.1708h-.85764v.7147h-.64315v-2.503Zm1.57229.7145c0-.143-.0715-.2145-.21449-.2145h-.71465v.7861h.71465c.14299 0 .21449-.0715.21449-.2145v-.3571Zm3.21499 1.1066c0 .2501-.05761.4328-.16875.5459-.11318.1132-.29379.1705-.5459.1705h-.89322c-.25007 0-.43069-.0573-.54386-.1705-.11318-.1131-.16875-.2958-.16875-.5459v-1.1432c0-.2501.05557-.4308.16875-.5459.11317-.1132.29379-.1688.54386-.1688h.89322c.25008 0 .43272.0576.5459.1688.11317.1131.16875.2958.16875.5459v1.1432Zm-.64315-1.1432c0-.143-.0715-.2145-.2145-.2145h-.60722c-.143 0-.2145.0715-.2145.2145v1.1432c0 .143.0715.2142.2145.2142h.60722c.143 0 .2145-.0712.2145-.2142v-1.1432Zm2.92981 1.7871c-.532.0478-.97285.0715-1.32221.0715-.23415 0-.40493-.0556-.51404-.1647-.10911-.1091-.16469-.2819-.16469-.514v-1.1433c0-.2501.05557-.4307.16875-.5458.11318-.1131.29379-.1687.54387-.1687h1.28629v.5h-1.1433c-.14299 0-.21449.0715-.21449.2145v1.1433c0 .0556.01592.0993.04778.1311.03151.0315.07319.0475.123.0475.04948 0 .10504 0 .16468-.0021.05964-.0017.12097-.0017.18671-.0057.06337-.0021.12877-.0041.19451-.0082.06539-.0017.15079-.0078.2538-.0139.10335-.0077.23245-.0155.38731-.0257v.4842h.00203Zm2.21505 0c-.532.0478-.97281.0715-1.32184.0715-.23448 0-.40492-.0556-.51437-.1647-.10912-.1091-.16469-.2819-.16469-.514v-1.1433c0-.2501.05557-.4307.16875-.5458.11318-.1131.29379-.1687.54386-.1687h1.28629v.5H9.66811c-.14299 0-.2145.0715-.2145.2145v1.1433c0 .0556.01593.0993.04778.1311.03186.0315.07353.0475.12301.0475.04947 0 .10504 0 .16468-.0021.05964-.0017.12097-.0017.18671-.0057.06341-.0021.12881-.0041.19451-.0082.0654-.0017.1508-.0078.2541-.0139.103-.0077.2321-.0155.387-.0257v.4842h.002Zm2.4655.0359h-.6432v-1.5363l-.8573 1.5363h-.679v-2.5009h.6431v1.5362l.8577-1.5362h.6787v2.5009Zm1.9655-.0002v-1.5364l-.8577 1.5364h-.6787V23.461h.6432v1.5362l.8573-1.5362h.679v2.5009h-.6431Zm-.6432-2.6796c-.3097 0-.4645-.1548-.4645-.4644v-.1072h.4645V22.8c0 .0357.0119.0655.0356.0893.0241.0238.0539.0358.0895.0358h.107c.036 0 .0658-.012.0895-.0358.0237-.0238.0356-.0536.0356-.0893v-.0893h.4645v.1072c0 .3096-.1548.4644-.4645.4644h-.3572Zm3.6435 2.6439c-.532.0478-.9725.0715-1.3218.0715-.2342 0-.405-.0556-.5141-.1647-.1091-.1091-.1647-.2819-.1647-.514v-1.1433c0-.2501.0556-.4307.1688-.5458.1132-.1131.2938-.1687.5439-.1687h1.2859v.5h-1.1433c-.1426 0-.2141.0715-.2141.2145v1.1433c0 .0556.0159.0993.0474.1311.0318.0315.0735.0475.1233.0475.0495 0 .1051 0 .1647-.0021.0597-.0017.121-.0017.1864-.0057.0637-.0021.1291-.0041.1945-.0082.0657-.0017.1511-.0078.2541-.0139.1034-.0077.2325-.0155.387-.0257v.4842h.002Zm2.1076-2.5018c.0596 0 .1667.012.3216.0358v.4823h-.143c-.0356 0-.0675.0119-.0973.0339-.0278.0217-.0494.0474-.0633.0732l-.3396.6431.6967 1.2684h-.6787l-.5537-1.0183h-.3216v1.0183h-.6431v-2.5009h.6431v.9825h.3216l.3571-.6788c.0516-.0993.1173-.1826.1946-.2442.0775-.0635.1785-.0953.3056-.0953Zm2.7696 2.5377h-.6431v-1.5363l-.8577 1.5363h-.6787v-2.5009h.6431v1.5362l.8573-1.5362h.6791v2.5009Zm1.9652-.0002v-1.5364l-.8573 1.5364h-.679V23.461h.6431v1.5362l.8577-1.5362h.6787v2.5009h-.6432Zm-.6431-2.6796c-.3094 0-.4642-.1548-.4642-.4644v-.1072h.4642V22.8c0 .0357.0119.0655.0359.0893.0237.0238.0536.0358.0891.0358h.1075c.0355 0 .0654-.012.0891-.0358.024-.0238.0359-.0536.0359-.0893v-.0893h.4642v.1072c0 .3096-.1548.4644-.4642.4644h-.3575Zm2.6439 2.1617c.5818.0359.9745.0536 1.1792.0536.0556 0 .0993-.016.1308-.0475.0319-.0318.0478-.0755.0478-.1311v-.3395h-.9508v-.5002h.9508v-.3036c0-.143-.0715-.2145-.2145-.2145h-1.1074v-.5h1.2504c.2501 0 .4307.0575.5459.1687.1132.1131.1708.2957.1708.5458v1.1433c0 .2341-.0556.4049-.1651.514-.1091.1091-.2815.1647-.514.1647-.3572 0-.7977-.0237-1.3219-.0715v-.4822h-.002Zm4.1794-2.0196c.0597 0 .1668.012.3216.0358v.4823h-.143c-.0356 0-.0674.0119-.0972.0339-.0278.0217-.0495.0474-.0634.0732l-.3395.6431.6967 1.2684h-.6788l-.5537-1.0183h-.3215v1.0183h-.6432v-2.5009h.6432v.9825h.3215l.3572-.6788c.0515-.0993.1172-.1826.1945-.2442.0772-.0635.1786-.0953.3056-.0953Zm2.8382 1.8579c0 .2501-.0577.4328-.1688.5459-.1132.1132-.2958.1705-.5459.1705h-.8932c-.2501 0-.4324-.0573-.5456-.1705-.1131-.1131-.1708-.2958-.1708-.5459v-1.1432c0-.2501.0577-.4308.1708-.5459.1132-.1132.2938-.1688.5456-.1688h.8932c.2501 0 .4307.0576.5459.1688.1132.1131.1688.2958.1688.5459v1.1432Zm-.6432-1.1432c0-.143-.0715-.2145-.2141-.2145h-.6076c-.143 0-.2142.0715-.2142.2145v1.1432c0 .143.0712.2142.2142.2142h.6076c.1426 0 .2141-.0712.2141-.2142v-1.1432Zm3.1799 1.823h-.6432v-1.0182h-.8932v1.0182h-.6432v-2.5009h.6432v.9825h.8932v-.9825h.6432v2.5009Zm2.6801-.6798c0 .2501-.0577.4328-.1688.5459-.1132.1132-.2958.1705-.5459.1705h-.8929c-.2504 0-.4327-.0573-.5459-.1705-.1131-.1131-.1708-.2958-.1708-.5459v-1.1432c0-.2501.0577-.4308.1708-.5459.1132-.1132.2938-.1688.5459-.1688h.8929c.2501 0 .431.0576.5459.1688.1132.1131.1688.2958.1688.5459v1.1432Zm-.6432-1.1432c0-.143-.0715-.2145-.2142-.2145h-.6075c-.1427 0-.2142.0715-.2142.2145v1.1432c0 .143.0715.2142.2142.2142h.6075c.1427 0 .2142-.0712.2142-.2142v-1.1432Zm3.1442.4297-.5002.8932h-.5001l-.5002-.8932v1.3933h-.6431v-2.5009h.6787l.7147 1.3221.7146-1.3221h.6787v2.5009h-.6431v-1.3933Zm3.2514 1.3933h-.6428v-1.5363l-.8577 1.5363h-.6787v-2.5009h.6432v1.5362l.8573-1.5362h.6787v2.5009Zm1.8745-.8217c-.286.0237-.5558.0356-.8099.0356s-.4348-.0556-.5459-.1647c-.1091-.1091-.1647-.2819-.1647-.514v-1.0361h.6432v1.0361c0 .0555.0155.0993.0474.1311.0318.0315.0756.0474.1311.0474.1945 0 .4267-.0118.6967-.0355v-1.1791h.6432v2.5009h-.6432v-.8217h.0021Zm3.0549.8217h-1.9826v-2.5009h1.9826v.5h-1.3395v.4825h1.0539v.5002h-1.0539v.5181h1.3395v.5001Zm2.2162-.0359c-.5316.0478-.9725.0715-1.3219.0715-.2341 0-.4049-.0556-.514-.1647-.1091-.1091-.1647-.2819-.1647-.514v-1.1433c0-.2501.0576-.4307.1708-.5458.1132-.1131.2938-.1687.5459-.1687h1.286v.5h-1.1433c-.1427 0-.2142.0715-.2142.2145v1.1433c0 .0556.0159.0993.0474.1311.0319.0315.0736.0475.123.0475.0499 0 .1054 0 .1651-.0021.0593-.0017.1209-.0017.1863-.0057.0637-.0021.1291-.0041.1945-.0082.0658-.0017.1508-.0078.2542-.0139.1033-.0077.2321-.0155.387-.0257v.4842h-.0021Zm2.1073-2.5018c.0597 0 .1668.012.3216.0358v.4823h-.143c-.0356 0-.0674.0119-.0972.0339-.0278.0217-.0495.0474-.0634.0732l-.3395.6431.6967 1.2684h-.6788l-.5537-1.0183h-.3215v1.0183h-.6432v-2.5009h.6432v.9825h.3215l.3572-.6788c.0518-.0993.1172-.1826.1945-.2442.0776-.0635.1806-.0953.3056-.0953Zm2.7695 2.5377h-.6428v-1.5363l-.8576 1.5363h-.6787v-2.5009h.6431v1.5362l.8573-1.5362h.6787v2.5009Zm1.9646-.0002v-1.5364l-.8573 1.5364h-.6788V23.461h.6428v1.5362l.8577-1.5362h.6787v2.5009h-.6431Zm-.6432-2.6796c-.3094 0-.4642-.1548-.4642-.4644v-.1072h.4642V22.8c0 .0357.0122.0655.0359.0893.0238.0238.0536.0358.0892.0358h.1074c.0356 0 .0654-.012.0891-.0358.0241-.0238.0359-.0536.0359-.0893v-.0893h.4643v.1072c0 .3096-.1546.4644-.4643.4644h-.3575Zm3.3875 2.7154c-.119 0-.2419-.0118-.367-.0356v-.4822h.3216c.0694 0 .1169-.0277.143-.0816.0118-.0237.0176-.0495.0176-.0773 0-.0278-.0058-.0515-.0176-.0735l-.9827-1.7863h.7146l.6432 1.2682.5357-1.2682h.7147l-.9112 1.9649c-.0834.1887-.1827.3297-.2996.4208-.1311.1013-.3019.1508-.5123.1508Zm4.0444-.0356h-.6431v-1.0182h-.8933v1.0182h-.6431v-2.5009h.6431v.9825h.8933v-.9825h.6431v2.5009Zm2.6071 0h-.6432v-1.5363l-.8573 1.5363h-.6787v-2.5009h.6428v1.5362l.8577-1.5362h.6787v2.5009Zm.4292-2.5009h1.429c.2345 0 .4049.0536.514.1588.1095.1052.165.268.165.4842 0 .143-.0318.2582-.0935.3473-.0613.0895-.1389.1508-.228.1867.1924.0515.3232.1806.3927.385.0241.0735.0359.1589.0359.2582 0 .2341-.0556.4049-.1647.514-.1091.1091-.2819.1647-.514.1647h-1.5364v-2.4989Zm1.4649.7145c0-.143-.0715-.2145-.2145-.2145h-.6072v.5005h.6072c.143 0 .2145-.0715.2145-.2145v-.0715Zm.1071 1.0003c0-.1427-.0715-.2142-.2145-.2142h-.7143v.5002h.7143c.143 0 .2145-.0715.2145-.2145v-.0715Zm2.9471.7861h-1.9829v-2.5009h1.9829v.5H72.066v.4825h1.0538v.5002H72.066v.5181h1.3398v.5001Zm.2866-2.5009h1.5004c.2501 0 .4307.0575.5459.1687.1132.1131.1708.2957.1708.5458v.3571c0 .2505-.0576.4328-.1708.5459-.1131.1132-.2938.1708-.5459.1708h-.8573v.7147h-.6431v-2.503Zm1.5719.7145c0-.143-.0715-.2145-.2141-.2145h-.7147v.7861h.7147c.1426 0 .2141-.0715.2141-.2145v-.3571Zm2.8939 1.7505c-.532.0478-.9725.0715-1.3219.0715-.2345 0-.4049-.0556-.5141-.1647-.1094-.1091-.165-.2819-.165-.514v-1.1433c0-.2501.0576-.4307.1708-.5458.1132-.1131.2938-.1687.5459-.1687h1.2863v.5h-1.1433c-.143 0-.2145.0715-.2145.2145v1.1433c0 .0556.0159.0993.0478.1311.0315.0315.0732.0475.123.0475.0495 0 .105 0 .1647-.0021.0596-.0017.1209-.0017.1867-.0057.0634-.0021.1288-.0041.1945-.0082.0654-.0017.1508-.0078.2538-.0139.1033-.0077.2324-.0155.3873-.0257v.4842h-.002Zm2.4654.0359h-.6431v-1.5363l-.8573 1.5363h-.6791v-2.5009h.6431v1.5362l.8577-1.5362h.6787v2.5009Zm1.6431 0h-.6432v-2.0009h-.7502v-.5h2.1436v.5h-.7502v2.0009Zm2.9829 0h-1.983v-2.5009h1.983v.5h-1.3398v.4825h1.0538v.5002h-1.0538v.5181h1.3398v.5001Zm1.5012 0h-.6431v-2.0009h-.7503v-.5h2.1436v.5h-.7502v2.0009ZM5.69475 32.2935H4.44438v-2.9874l-1.66751 2.9874H1.45703v-4.863h1.25038v2.987l1.6675-2.987h1.31984v4.863Zm5.00145-2.7095-.97248 1.7369h-.97251L7.7787 29.584v2.7095H6.52832v-4.863h1.31984l1.3893 2.5703 1.38934-2.5703h1.3201v4.863h-1.2507V29.584Zm5.9395 2.7095h-3.8545v-4.863h3.8545v.9726h-2.6041v.9389h2.0504v.9725h-2.0504v1.0085h2.6041v.9705Zm4.7934 0h-1.2507v-1.981h-1.7366v1.981h-1.2504v-4.863h1.2504V29.34h1.7366v-1.9095h1.2507v4.863Zm5.0703 0h-1.2503v-2.9874l-1.6675 2.9874h-1.3199v-4.863h1.2504v2.987l1.6675-2.987h1.3198v4.863Zm4.1683 0H29.417v-4.863h3.7874v.9726h-2.5367v3.8904Zm2.815-1.0425h1.2507v1.042h-1.2507v-1.042Zm1.8737-3.8205h2.7786c.4548 0 .7882.1031 1.0007.3098.2121.2063.3195.5198.3195.9406 0 .2779-.0596.5042-.1806.6771-.1213.1724-.268.2954-.4449.3649.3755.1013.6293.3514.7645.7506.0454.1426.0694.3093.0694.5001 0 .4544-.1074.7878-.3195 1.0003-.2125.2125-.5459.3196-1.0006.3196h-2.9871v-4.863Zm2.8501 1.3893c0-.2778-.1389-.4167-.4167-.4167h-1.181v.9725h1.181c.2778 0 .4167-.139.4167-.4168v-.139Zm.2085 1.9454c0-.2778-.139-.4171-.4168-.4171h-1.3894v.9728h1.3894c.2778 0 .4168-.1389.4168-.4168v-.1389Zm1.6653.4858h1.2504v1.042h-1.2504v-1.042Zm8.1975 1.0425h-1.2504v-3.8904h-1.737v3.8904H44.04v-4.863h4.2378v4.863Zm1.9732-.2189c-.1904.1928-.4228.288-.7027.288-.2779 0-.5398-.024-.7858-.0694v-.939h.3134c.0874 0 .161-.0298.2186-.0912.0572-.0596.0891-.1352.0931-.2222l.2084-3.6126h3.8545v4.865h-1.2504v-3.8904h-1.4587l-.1749 2.884c-.0176.3314-.125.5953-.3155.7878Zm7.8919.2189h-3.8548v-4.863h3.8568v.9726h-2.6061v.9389h2.0484v.9725h-2.0484v1.0085h2.6041v.9705Zm3.3708-4.863h1.3893l-1.5638 2.4313 1.5977 2.4317h-1.3893l-.9729-1.5283-.9725 1.5283h-1.3893l1.5977-2.4317-1.5642-2.4313h1.3815l.9451 1.5283.9407-1.5283Z" fill="#171717"/>
    <path d="M64.1529 32.2935h-1.3533l1.8396-4.863h1.3896l1.8421 4.863h-1.3558l-.3138-.8696h-1.7366l-.3118.8696Zm.6256-1.7706h1.1114l-.5557-1.6336-.5557 1.6336Zm7.675 1.7706h-1.2503v-1.981h-1.7367v1.981h-1.2507v-4.863h1.2507V29.34h1.7367v-1.9095h1.2503v4.863Zm5.2105-1.3194c0 .4863-.1091.8393-.3293 1.0599-.2206.2203-.5737.3294-1.06.3294h-1.737c-.4862 0-.8393-.1091-1.0599-.3294-.2202-.2206-.3294-.5736-.3294-1.0599v-2.2232c0-.4863.1092-.8397.3294-1.06.2206-.2202.5737-.3293 1.0599-.3293h1.737c.4863 0 .8394.1091 1.06.3293.2202.2203.3293.5737.3293 1.06v2.2232Zm-1.2503-2.2232c0-.2779-.139-.4168-.4168-.4168h-1.1813c-.2779 0-.4168.1389-.4168.4168v2.2232c0 .2779.1389.4168.4168.4168h1.1813c.2778 0 .4168-.1389.4168-.4168v-2.2232Zm1.9447-1.3204h2.7786c.4544 0 .7882.1031 1.0003.3098.2125.2063.3196.5198.3196.9406 0 .2779-.0594.5042-.1807.6771-.1209.1724-.2677.2954-.4445.3649.3751.1013.6292.3514.7641.7506.0457.1426.0694.3093.0694.5001 0 .4544-.107.7878-.3195 1.0003-.2121.2125-.5456.3196-1.0003.3196h-2.987v-4.863Zm2.8481 1.3893c0-.2778-.139-.4167-.4168-.4167h-1.1809v.9725h1.1809c.2778 0 .4168-.139.4168-.4168v-.139Zm.2084 1.9454c0-.2778-.139-.4171-.4168-.4171h-1.3893v.9728h1.3893c.2778 0 .4168-.1389.4168-.4168v-.1389Zm2.7455 1.5283h-1.3538l1.84-4.863h1.3893l1.842 4.863h-1.3557l-.3135-.8696h-1.7369l-.3114.8696Zm.6252-1.7706h1.1114l-.5557-1.6336-.5557 1.6336Z" fill="#171717"/>
  </g>
</svg>