<svg version="1.0" fill="#FFF" xmlns="http://www.w3.org/2000/svg" width="17" height="17" viewBox="0 0 512 512"><path d="m36.8 18.2-.3 18.3-18.2.3L0 37v48l18.3.2 18.2.3.3 18.2.2 18.3h36v36l18.3.2 18.2.3.3 18.2.2 18.3h36l.2 18.2.3 18.3 18.3.3 18.2.2v48l-18.2.2-18.3.3-.3 18.2-.2 18.3h-36l-.2 18.2-.3 18.3-18.2.3-18.3.2v36H37l-.2 18.3-.3 18.2-18.3.3L0 427v48l18.3.2 18.2.3.3 18.3.2 18.2h48l.2-18.3.3-18.2 18.3-.3 18.2-.2v-36h36l.2-18.3.3-18.2 18.3-.3 18.2-.2v-36l18.3-.2 18.2-.3.3-18.3.2-18.2h48l.2 18.2.3 18.3 18.3.3 18.2.2v36l18.3.2 18.2.3.3 18.2.2 18.3h36v36l18.3.2 18.2.3.3 18.2.2 18.3h48l.2-18.3.3-18.2 18.3-.3 18.2-.2v-48l-18.2-.2-18.3-.3-.3-18.3-.2-18.2h-36v-36l-18.2-.2-18.3-.3-.3-18.3-.2-18.2h-36l-.2-18.3-.3-18.2-18.2-.3-18.3-.2v-48l18.3-.2 18.2-.3.3-18.3.2-18.2h36l.2-18.3.3-18.2 18.3-.3 18.2-.2v-36h36l.2-18.3.3-18.2 18.3-.3L512 85V37l-18.2-.2-18.3-.3-.3-18.3L475 0h-48l-.2 18.2-.3 18.3-18.2.3-18.3.2v36h-36l-.2 18.2-.3 18.3-18.2.3-18.3.2v36l-18.2.2-18.3.3-.3 18.2-.2 18.3h-48l-.2-18.3-.3-18.2-18.2-.3-18.3-.2v-36l-18.2-.2-18.3-.3-.3-18.3L158 73h-36V37l-18.2-.2-18.3-.3-.3-18.3L85 0H37l-.2 18.2z"/></svg>