<svg xmlns="http://www.w3.org/2000/svg" width="60" height="60" fill="none"><g clip-path="url(#a)"><path d="M56.999 9.003h-3.001v3h3.001v-3ZM53.998 6.002h-3v3h3v-3ZM35.998 9.003V21h-3v3.001h-3.001v3.001h-2.995v2.995H24v3.007H35.999v-3.007h3v-2.995H42v-3h2.995V3h-8.997v6.002ZM35.999 53.998h-3.001V57H42v-3H36ZM32.998 45.002v-9.003h-3.001V50.997h6.002v-2.995h-3.001v-3ZM14.998 27.002h-3v3h3v-3ZM11.997 24.001h-3v3h3v-3Z" fill="#D9A42F"/><path d="M56.999 18v-5.996h-3.001V24h3.001V18ZM53.998 9.003h-3v3h3v-3ZM50.997 24.001h-2.995v3.001h-3.007v2.995H50.997v-2.995h3.001v-3h-3ZM21 6.002h-3.001V21H21v3.001h3v5.996h3.002v-2.995h2.995v-3h3V21h3.001V3.001H24.001v3H21ZM27.002 57h5.995v-3.002h-8.996V57h3ZM30.003 45.002h-3v3h3v-3ZM29.997 39v-3.001h-2.995V42h2.995V39ZM11.997 27.002h-3v3h3v-3ZM11.997 6.002h-3v3h3v-3ZM8.997 24.001v-3H6.002v-3.002H3v6.002h3v3.001h2.996v-3ZM9.003 9.003H6.002v3h3v-3Z" fill="#E8CC30"/><path d="M51.004 6.002h-3.001v3h3v-3ZM30.003 42h-3v3.002h3V42ZM27.002 50.997h2.995v-2.995H24v2.995h3ZM21 57h3v-3.002H18V57H21ZM17.999 27.002h3v2.995h3.002v-5.995H21V21h-3.001V6.002h6.002V3h-9.003v21h3.001v3.001ZM9.003 6.002H6.002v3h3v-3ZM3.001 14.998V18h3V9.003h-3v5.995Z" fill="#ECDC89"/><path d="M56.999 14.998v9.003H60V9.003h-3.001v5.995ZM56.999 24.001h-3.001v3.001h3.001v-3ZM56.999 6.002h-3.001v3h3.001v-3ZM53.998 27.002h-3v3.001h3v-3Z" fill="#000"/><path d="M11.998 6.002v3H8.997v3.002h3V21.006h-3v3.002h3v3H15v3.001H8.997v2.995H21V36h3.001V48.003h3.001V35.998h6.002V48.003H36V35.998h3V32.998h12.004v-3.001H45.003v-3.001h3v-3.001h6.002V11.991h-3v9.003h-3.001V11.992h3V8.99h-3V6.002H54.004V3H48.003V0H11.992v3h-5.99v3.002h5.996Zm3 14.998V3.001h30.003V24.007h-3v3.001H39v3.001h-3.001v2.995H23.996v-3h-3.002v-3.002h-3v-3h-3.002V21h.006ZM39 57H17.998v-3.002h-3.001V60H44.995v-6.001H42v3h-3Z" fill="#000"/><path d="M32.998 50.997H24v-2.995H21v2.995h-3.001v3.001H42v-3h-3v-2.996h-3.002v2.995h-3ZM9.003 27.002H6.002v3.001h3v-3ZM8.997 21v-8.996H6.002V21h2.995ZM6.002 24.001H3v3.001h3v-3ZM6.002 6.002H3v3h3v-3ZM0 14.998v9.003h3V9.003H0V14.998Z" fill="#000"/></g><defs><clipPath id="a"><path fill="#fff" d="M0 0h60v60H0z"/></clipPath></defs></svg>