<svg xmlns="http://www.w3.org/2000/svg" width="44" height="52" fill="none"><g clip-path="url(#a)"><path d="M17.3 2.9 2.9 17.3v31h37.7V2.9H17.3Z" fill="#FFF5F7"/><path d="M40.6 48.3H2.9v2.9h37.7v-2.9ZM14.4 5.8h-2.9v2.9h2.9V5.8ZM11.5 8.7H8.6v2.9h2.9V8.7Z" fill="#46247D"/><path d="M20.2 20.2V2.9h20.4V0H17.3v2.9h-2.9v2.9h2.9v11.5H5.8v-2.8h2.8v-2.9H5.7v2.8H2.9v2.9H0v31h2.9V20.2h17.3ZM43.5 2.9h-2.9v45.4h2.9V2.9Z" fill="#46247D"/></g><defs><clipPath id="a"><path fill="#fff" d="M0 0h43.5v51.2H0z"/></clipPath></defs></svg>