<svg xmlns="http://www.w3.org/2000/svg" width="134" height="97" fill="none"><path d="M6.048 1.941h39.91c2.66 0 5.079 2.184 5.563 4.853l1.45 9.464h44.99c2.661 0 5.079 2.184 5.563 4.853l10.159 68.671c.484 2.67-1.451 4.853-4.112 4.853H19.835c-2.661 0-5.08-2.184-5.564-4.853l-2.177-14.316-7.981-54.598L1.936 6.552c-.484-2.67 1.45-4.61 4.112-4.61Z" fill="url(#a)" stroke="#46247D" stroke-width="1.811" stroke-miterlimit="10"/><path d="M15.965 89.782c-.726 2.67.725 4.853 3.386 4.853h89.736c2.661 0 5.564-2.184 6.289-4.853l16.69-54.597c.725-2.67-.726-4.853-3.386-4.853H38.701c-2.66 0-5.563 2.184-6.289 4.853L15.965 89.782Z" fill="url(#b)" stroke="#46247D" stroke-width="1.811" stroke-miterlimit="10"/><defs><linearGradient id="a" x1="68.964" y1="-39.976" x2="57.648" y2="48.735" gradientUnits="userSpaceOnUse"><stop stop-color="#FFE6DA"/><stop offset="1" stop-color="#F4B188"/></linearGradient><linearGradient id="b" x1="83.918" y1="40.918" x2="43.276" y2="128.015" gradientUnits="userSpaceOnUse"><stop stop-color="#FFE6DA"/><stop offset="1" stop-color="#FFC5A1"/></linearGradient></defs></svg>