<svg xmlns="http://www.w3.org/2000/svg" width="49" height="90" fill="none"><g clip-path="url(#a)"><path d="m2.683 79.41-25.908-18.411-1.991 2.802L.69 82.213l1.992-2.803ZM14.26 44.832l2.065-2.907 2.843 2.021 1.992-2.802 2.949 2.095 1.991-2.802 2.844 2.02 8.114-11.418L11.15 12.628 3.036 24.046l2.844 2.02-1.992 2.803 2.949 2.096-1.992 2.802 2.844 2.021-2.066 2.907 2.844 2.02-4.057 5.71-2.844-2.021-1.991 2.802-2.844-2.02-1.992 2.802-2.949-2.096-2.065 2.907-2.843-2.021-8.04 11.314L4.748 76.504l8.04-11.315-2.843-2.02 2.065-2.907-2.949-2.095 1.992-2.803-2.844-2.02 1.992-2.803L7.36 48.52l4.057-5.71 2.843 2.022ZM41.115 25.33 15.207 6.92l-1.992 2.803 25.908 18.41 1.992-2.802Z" fill="#FFF4F6"/><path d="m15.728 24.474-2.843-2.02-1.992 2.802 2.844 2.02 1.991-2.802ZM21.416 28.515l-2.844-2.02-1.991 2.802 2.843 2.021 1.992-2.803ZM27.208 32.632l-2.844-2.02-1.991 2.802 2.843 2.02 1.992-2.802ZM16.58 29.297l-2.843-2.02-1.991 2.802 2.843 2.021 1.992-2.803ZM17.358 34.224l-2.843-2.02-1.992 2.802 2.844 2.021 1.991-2.803ZM13.375 39.83l-2.844-2.021-1.991 2.803 2.843 2.02 1.992-2.802Z" fill="#46247D"/><path d="m22.373 33.414-2.844-2.021-1.991 2.803 2.843 2.02 1.992-2.802Z" fill="#46247D"/><path d="M11.406 0 9.415 2.803 7.423 5.605 5.43 8.408l2.844 2.02L.16 21.846l-1.992 2.803 2.843 2.02-1.991 2.803 2.843 2.021-1.991 2.803 3.054 2.17-4.057 5.71-2.95-2.096-1.99 2.802-2.844-2.02-1.992 2.802-2.949-2.096-1.992 2.803-8.114 11.418-2.843-2.02-1.992 2.802-1.992 2.802-1.991 2.803L4.713 88.82l1.992-2.802 1.991-2.803 1.845-2.595-2.844-2.02 8.114-11.419 1.992-2.802-2.844-2.021 1.992-2.803-2.844-2.02 1.992-2.803-2.843-2.02 4.057-5.71 2.843 2.02 1.992-2.802 2.843 2.021 1.992-2.803 2.844 2.021 1.991-2.802 8.115-11.418 2.843 2.02 2.066-2.906 2.065-2.906 1.992-2.803L11.406 0ZM.691 82.213-25.217 63.8l1.992-2.803L2.683 79.41.69 82.213Zm28.252-39.756-2.843-2.02-1.992 2.802-2.843-2.02-1.992 2.802L16.429 42l-1.991 2.802-2.844-2.021-4.057 5.709 2.844 2.02-1.992 2.803 2.844 2.021-1.992 2.803 2.843 2.02-1.991 2.803 2.843 2.02L4.822 76.4l-25.908-18.412 8.114-11.418 2.844 2.021 1.992-2.802 2.949 2.095 1.991-2.802 2.844 2.02L1.639 44.3l2.844 2.02 4.057-5.709-2.843-2.02 1.991-2.803-2.843-2.02 1.991-2.803-2.949-2.096 1.992-2.802-2.843-2.021 8.114-11.418 25.907 18.411-8.114 11.418Zm10.106-14.22L13.142 9.825l2.065-2.906L41.115 25.33l-2.066 2.907Z" fill="#46247D"/><path d="m5.261 51.248-2.843-2.021L.426 52.03l2.844 2.02 1.991-2.802Z" fill="#46247D"/></g><defs><clipPath id="a"><path fill="#fff" transform="rotate(35.4 5.703 17.87)" d="M0 0h45.995v76.659H0z"/></clipPath></defs></svg>