<svg xmlns="http://www.w3.org/2000/svg" width="27" height="48" viewBox="0 0 27 48" fill="none">
  <g clip-path="url(#clip0_523_111018)">
    <path d="M31.054 38.2489L14.4307 42.7031L14.9125 44.5013L31.5358 40.0471L31.054 38.2489Z" fill="#FFF4F6"/>
    <path d="M20.6231 21.4847L20.1235 19.6199L21.948 19.131L21.4661 17.3327L23.3582 16.8258L22.8764 15.0275L24.7009 14.5386L22.7378 7.21244L6.1145 11.6667L8.07755 18.9928L9.90206 18.504L10.3839 20.3022L12.276 19.7952L12.7578 21.5935L14.5823 21.1046L15.082 22.9695L16.9065 22.4806L17.8881 26.1437L16.0636 26.6326L16.5454 28.4308L14.7209 28.9197L15.2027 30.7179L13.3106 31.2249L13.8103 33.0898L11.9858 33.5786L13.931 40.8382L30.5543 36.384L28.6091 29.1244L26.7846 29.6133L26.2849 27.7484L24.3929 28.2554L23.911 26.4572L22.0865 26.9461L21.6047 25.1478L19.7802 25.6367L18.7986 21.9736L20.6231 21.4847Z" fill="#FFF4F6"/>
    <path d="M21.7564 3.54936L5.13306 8.00357L5.6149 9.80182L22.2382 5.34761L21.7564 3.54936Z" fill="#FFF4F6"/>
    <path d="M12.637 13.8451L10.8125 14.334L11.2943 16.1323L13.1189 15.6434L12.637 13.8451Z" fill="#46247D"/>
    <path d="M16.2864 12.8671L14.4619 13.356L14.9438 15.1542L16.7683 14.6653L16.2864 12.8671Z" fill="#46247D"/>
    <path d="M20.0032 11.8714L18.1787 12.3603L18.6605 14.1585L20.4851 13.6697L20.0032 11.8714Z" fill="#46247D"/>
    <path d="M14.9437 15.1543L13.1191 15.6431L13.601 17.4414L15.4255 16.9525L14.9437 15.1543Z" fill="#46247D"/>
    <path d="M17.2679 16.5305L15.4434 17.0194L15.9252 18.8177L17.7497 18.3288L17.2679 16.5305Z" fill="#46247D"/>
    <path d="M18.2308 20.127L16.4062 20.6159L16.8881 22.4142L18.7126 21.9253L18.2308 20.127Z" fill="#46247D"/>
    <path d="M18.6605 14.1585L16.8359 14.6474L17.3178 16.4456L19.1423 15.9568L18.6605 14.1585Z" fill="#46247D"/>
    <path d="M0.93457 7.20117L1.41641 8.99942L1.89825 10.7977L2.38009 12.5959L4.2046 12.107L6.16765 19.4332L6.64949 21.2315L8.474 20.7426L8.95584 22.5408L10.7804 22.052L11.2622 23.8502L13.2219 23.3251L14.2034 26.9882L12.3113 27.4952L12.7931 29.2935L10.9686 29.7823L11.4505 31.5806L9.55837 32.0876L10.0402 33.8858L12.0033 41.212L10.1787 41.7009L10.6606 43.4991L11.1424 45.2974L11.6243 47.0956L35.6808 40.6497L35.199 38.8514L34.7171 37.0532L34.271 35.3881L32.4465 35.877L30.4834 28.5508L30.0016 26.7526L28.1771 27.2415L27.6952 25.4432L25.8707 25.9321L25.3889 24.1338L23.5644 24.6227L22.5828 20.9596L24.4074 20.4707L23.9255 18.6725L25.75 18.1836L25.2682 16.3854L27.0927 15.8965L26.6109 14.0983L24.6478 6.77206L26.4723 6.28318L25.9726 4.41833L25.473 2.55349L24.9911 0.755239L0.93457 7.20117ZM31.5359 40.0471L14.9126 44.5013L14.4307 42.7031L31.0541 38.2489L31.5359 40.0471ZM24.7009 14.5386L22.8764 15.0275L23.3583 16.8258L21.5337 17.3146L22.0156 19.1129L20.1911 19.6018L20.6729 21.4L18.8484 21.8889L19.8299 25.552L21.6544 25.0631L22.1363 26.8613L23.9608 26.3725L24.4426 28.1707L26.2671 27.6818L26.749 29.4801L28.5735 28.9912L30.5365 36.3174L13.9132 40.7716L11.9501 33.4454L13.7747 32.9565L13.2928 31.1583L15.1849 30.6513L14.7031 28.8531L16.5276 28.3642L16.0457 26.5659L17.8703 26.0771L16.8887 22.414L15.0642 22.9028L14.5824 21.1046L12.7579 21.5935L12.276 19.7952L10.3839 20.3022L9.9021 18.504L8.07758 18.9928L6.11453 11.6667L22.7379 7.21244L24.7009 14.5386ZM22.256 5.41419L5.6327 9.86841L5.13301 8.00356L21.7564 3.54935L22.256 5.41419Z" fill="#46247D"/>
    <path d="M20.1946 27.4528L18.3701 27.9417L18.852 29.74L20.6765 29.2511L20.1946 27.4528Z" fill="#46247D"/>
  </g>
  <defs>
    <clipPath id="clip0_523_111018">
      <rect width="24.9052" height="41.5086" fill="white" transform="translate(0.93457 7.20117) rotate(-15)"/>
    </clipPath>
  </defs>
</svg>