<svg xmlns="http://www.w3.org/2000/svg" width="221" height="184" fill="none"><g clip-path="url(#a)"><path d="M219.423 175.529a7.065 7.065 0 0 1-7.097 7.092H8.477a7.065 7.065 0 0 1-7.097-7.092V8.471A7.065 7.065 0 0 1 8.477 1.38h203.849a7.065 7.065 0 0 1 7.097 7.092V175.53Z" fill="url(#b)"/><path d="M212.326 1.576H8.477A7.065 7.065 0 0 0 1.38 8.668v32.505h218.043V8.471c0-3.743-3.154-6.895-7.097-6.895Z" fill="url(#c)"/><path d="M212.326 1.576H8.477A7.065 7.065 0 0 0 1.38 8.668V13.2a7.065 7.065 0 0 1 7.097-7.092h203.849a7.065 7.065 0 0 1 7.097 7.092V8.471c0-3.743-3.154-6.895-7.097-6.895Z" fill="url(#d)"/><path d="M219.423 175.529a7.065 7.065 0 0 1-7.097 7.092H8.477a7.065 7.065 0 0 1-7.097-7.092V8.471A7.065 7.065 0 0 1 8.477 1.38h203.849a7.065 7.065 0 0 1 7.097 7.092V175.53ZM1.577 40.976h217.846" stroke="#46247D" stroke-width="1.5" stroke-miterlimit="10"/><path d="M141.748 29.747c0 1.182-.986 2.364-2.366 2.364h-16.757c-1.38 0-2.366-.985-2.366-2.364V12.805c0-1.379.986-2.364 2.366-2.364h16.757c1.183 0 2.366.985 2.366 2.364v16.942Z" fill="#DCC7FF" stroke="#46247D" stroke-width="1.5" stroke-miterlimit="10"/><path d="M126.37 26.792h9.266" stroke="#46247D" stroke-width="1.5" stroke-miterlimit="10" stroke-linecap="round" stroke-linejoin="round"/><path d="M171.516 29.747c0 1.182-.986 2.364-2.366 2.364h-16.757c-1.38 0-2.366-.985-2.366-2.364V12.805c0-1.379.986-2.364 2.366-2.364h16.757c1.183 0 2.366.985 2.366 2.364v16.942Z" fill="#DCC7FF" stroke="#46247D" stroke-width="1.5" stroke-miterlimit="10"/><path d="M165.405 19.503h-9.069v7.486h9.069v-7.486ZM165.405 15.563h-9.069" stroke="#46247D" stroke-width="1.5" stroke-miterlimit="10" stroke-linecap="round" stroke-linejoin="round"/><path d="M201.483 29.747c0 1.182-.986 2.364-2.366 2.364H182.36c-1.38 0-2.366-.985-2.366-2.364V12.805c0-1.379.986-2.364 2.366-2.364h16.757c1.183 0 2.366.985 2.366 2.364v16.942Z" fill="#DCC7FF" stroke="#46247D" stroke-width="1.5" stroke-miterlimit="10"/><path d="m186.106 16.351 9.266 9.85M195.372 16.351l-9.266 9.85" stroke="#46247D" stroke-width="1.5" stroke-miterlimit="10" stroke-linecap="round" stroke-linejoin="round"/></g><defs><linearGradient id="b" x1="-38.193" y1="161.898" x2="150.444" y2="73.147" gradientUnits="userSpaceOnUse"><stop stop-color="#DEF7FC"/><stop offset="1" stop-color="#FFEDF7"/></linearGradient><linearGradient id="c" x1="1.479" y1="21.275" x2="219.511" y2="21.275" gradientUnits="userSpaceOnUse"><stop stop-color="#7D4EFC"/><stop offset=".364" stop-color="#AF6EED"/><stop offset="1" stop-color="#FFA2D6"/></linearGradient><linearGradient id="d" x1="1.479" y1="7.296" x2="219.511" y2="7.296" gradientUnits="userSpaceOnUse"><stop stop-color="#fff"/><stop offset="1" stop-color="#fff" stop-opacity=".3"/></linearGradient><clipPath id="a"><path fill="#fff" d="M0 0h221v184H0z"/></clipPath></defs></svg>